<?xml version="1.0" encoding="utf-8" standalone="no"?>
<!DOCTYPE svg PUBLIC "-//W3C//DTD SVG 1.1//EN"
  "http://www.w3.org/Graphics/SVG/1.1/DTD/svg11.dtd">
<svg xmlns:xlink="http://www.w3.org/1999/xlink" width="460.8pt" height="345.6pt" viewBox="0 0 460.8 345.6" xmlns="http://www.w3.org/2000/svg" version="1.1">
 <metadata>
  <rdf:RDF xmlns:dc="http://purl.org/dc/elements/1.1/" xmlns:cc="http://creativecommons.org/ns#" xmlns:rdf="http://www.w3.org/1999/02/22-rdf-syntax-ns#">
   <cc:Work>
    <dc:type rdf:resource="http://purl.org/dc/dcmitype/StillImage"/>
    <dc:date>2023-05-20T13:21:30.880487</dc:date>
    <dc:format>image/svg+xml</dc:format>
    <dc:creator>
     <cc:Agent>
      <dc:title>Matplotlib v3.5.1, https://matplotlib.org/</dc:title>
     </cc:Agent>
    </dc:creator>
   </cc:Work>
  </rdf:RDF>
 </metadata>
 <defs>
  <style type="text/css">*{stroke-linejoin: round; stroke-linecap: butt}</style>
 </defs>
 <g id="figure_1">
  <g id="patch_1">
   <path d="M 0 345.6 
L 460.8 345.6 
L 460.8 0 
L 0 0 
z
" style="fill: #ffffff"/>
  </g>
  <g id="axes_1">
   <g id="patch_2">
    <path d="M 57.6 307.584 
L 414.72 307.584 
L 414.72 41.472 
L 57.6 41.472 
z
" style="fill: #ffffff"/>
   </g>
   <g id="matplotlib.axis_1">
    <g id="xtick_1">
     <g id="line2d_1">
      <defs>
       <path id="m5b90d25772" d="M 0 0 
L 0 3.5 
" style="stroke: #000000; stroke-width: 0.8"/>
      </defs>
      <g>
       <use xlink:href="#m5b90d25772" x="73.832727" y="307.584" style="stroke: #000000; stroke-width: 0.8"/>
      </g>
     </g>
     <g id="text_1">
      <!-- 0 -->
      <g transform="translate(70.651477 322.182437)scale(0.1 -0.1)">
       <defs>
        <path id="DejaVuSans-30" d="M 2034 4250 
Q 1547 4250 1301 3770 
Q 1056 3291 1056 2328 
Q 1056 1369 1301 889 
Q 1547 409 2034 409 
Q 2525 409 2770 889 
Q 3016 1369 3016 2328 
Q 3016 3291 2770 3770 
Q 2525 4250 2034 4250 
z
M 2034 4750 
Q 2819 4750 3233 4129 
Q 3647 3509 3647 2328 
Q 3647 1150 3233 529 
Q 2819 -91 2034 -91 
Q 1250 -91 836 529 
Q 422 1150 422 2328 
Q 422 3509 836 4129 
Q 1250 4750 2034 4750 
z
" transform="scale(0.015625)"/>
       </defs>
       <use xlink:href="#DejaVuSans-30"/>
      </g>
     </g>
    </g>
    <g id="xtick_2">
     <g id="line2d_2">
      <g>
       <use xlink:href="#m5b90d25772" x="147.617851" y="307.584" style="stroke: #000000; stroke-width: 0.8"/>
      </g>
     </g>
     <g id="text_2">
      <!-- 10000 -->
      <g transform="translate(131.711601 322.182437)scale(0.1 -0.1)">
       <defs>
        <path id="DejaVuSans-31" d="M 794 531 
L 1825 531 
L 1825 4091 
L 703 3866 
L 703 4441 
L 1819 4666 
L 2450 4666 
L 2450 531 
L 3481 531 
L 3481 0 
L 794 0 
L 794 531 
z
" transform="scale(0.015625)"/>
       </defs>
       <use xlink:href="#DejaVuSans-31"/>
       <use xlink:href="#DejaVuSans-30" x="63.623047"/>
       <use xlink:href="#DejaVuSans-30" x="127.246094"/>
       <use xlink:href="#DejaVuSans-30" x="190.869141"/>
       <use xlink:href="#DejaVuSans-30" x="254.492188"/>
      </g>
     </g>
    </g>
    <g id="xtick_3">
     <g id="line2d_3">
      <g>
       <use xlink:href="#m5b90d25772" x="221.402975" y="307.584" style="stroke: #000000; stroke-width: 0.8"/>
      </g>
     </g>
     <g id="text_3">
      <!-- 20000 -->
      <g transform="translate(205.496725 322.182437)scale(0.1 -0.1)">
       <defs>
        <path id="DejaVuSans-32" d="M 1228 531 
L 3431 531 
L 3431 0 
L 469 0 
L 469 531 
Q 828 903 1448 1529 
Q 2069 2156 2228 2338 
Q 2531 2678 2651 2914 
Q 2772 3150 2772 3378 
Q 2772 3750 2511 3984 
Q 2250 4219 1831 4219 
Q 1534 4219 1204 4116 
Q 875 4013 500 3803 
L 500 4441 
Q 881 4594 1212 4672 
Q 1544 4750 1819 4750 
Q 2544 4750 2975 4387 
Q 3406 4025 3406 3419 
Q 3406 3131 3298 2873 
Q 3191 2616 2906 2266 
Q 2828 2175 2409 1742 
Q 1991 1309 1228 531 
z
" transform="scale(0.015625)"/>
       </defs>
       <use xlink:href="#DejaVuSans-32"/>
       <use xlink:href="#DejaVuSans-30" x="63.623047"/>
       <use xlink:href="#DejaVuSans-30" x="127.246094"/>
       <use xlink:href="#DejaVuSans-30" x="190.869141"/>
       <use xlink:href="#DejaVuSans-30" x="254.492188"/>
      </g>
     </g>
    </g>
    <g id="xtick_4">
     <g id="line2d_4">
      <g>
       <use xlink:href="#m5b90d25772" x="295.188099" y="307.584" style="stroke: #000000; stroke-width: 0.8"/>
      </g>
     </g>
     <g id="text_4">
      <!-- 30000 -->
      <g transform="translate(279.281849 322.182437)scale(0.1 -0.1)">
       <defs>
        <path id="DejaVuSans-33" d="M 2597 2516 
Q 3050 2419 3304 2112 
Q 3559 1806 3559 1356 
Q 3559 666 3084 287 
Q 2609 -91 1734 -91 
Q 1441 -91 1130 -33 
Q 819 25 488 141 
L 488 750 
Q 750 597 1062 519 
Q 1375 441 1716 441 
Q 2309 441 2620 675 
Q 2931 909 2931 1356 
Q 2931 1769 2642 2001 
Q 2353 2234 1838 2234 
L 1294 2234 
L 1294 2753 
L 1863 2753 
Q 2328 2753 2575 2939 
Q 2822 3125 2822 3475 
Q 2822 3834 2567 4026 
Q 2313 4219 1838 4219 
Q 1578 4219 1281 4162 
Q 984 4106 628 3988 
L 628 4550 
Q 988 4650 1302 4700 
Q 1616 4750 1894 4750 
Q 2613 4750 3031 4423 
Q 3450 4097 3450 3541 
Q 3450 3153 3228 2886 
Q 3006 2619 2597 2516 
z
" transform="scale(0.015625)"/>
       </defs>
       <use xlink:href="#DejaVuSans-33"/>
       <use xlink:href="#DejaVuSans-30" x="63.623047"/>
       <use xlink:href="#DejaVuSans-30" x="127.246094"/>
       <use xlink:href="#DejaVuSans-30" x="190.869141"/>
       <use xlink:href="#DejaVuSans-30" x="254.492188"/>
      </g>
     </g>
    </g>
    <g id="xtick_5">
     <g id="line2d_5">
      <g>
       <use xlink:href="#m5b90d25772" x="368.973223" y="307.584" style="stroke: #000000; stroke-width: 0.8"/>
      </g>
     </g>
     <g id="text_5">
      <!-- 40000 -->
      <g transform="translate(353.066973 322.182437)scale(0.1 -0.1)">
       <defs>
        <path id="DejaVuSans-34" d="M 2419 4116 
L 825 1625 
L 2419 1625 
L 2419 4116 
z
M 2253 4666 
L 3047 4666 
L 3047 1625 
L 3713 1625 
L 3713 1100 
L 3047 1100 
L 3047 0 
L 2419 0 
L 2419 1100 
L 313 1100 
L 313 1709 
L 2253 4666 
z
" transform="scale(0.015625)"/>
       </defs>
       <use xlink:href="#DejaVuSans-34"/>
       <use xlink:href="#DejaVuSans-30" x="63.623047"/>
       <use xlink:href="#DejaVuSans-30" x="127.246094"/>
       <use xlink:href="#DejaVuSans-30" x="190.869141"/>
       <use xlink:href="#DejaVuSans-30" x="254.492188"/>
      </g>
     </g>
    </g>
   </g>
   <g id="matplotlib.axis_2">
    <g id="ytick_1">
     <g id="line2d_6">
      <defs>
       <path id="m2c15058335" d="M 0 0 
L -3.5 0 
" style="stroke: #000000; stroke-width: 0.8"/>
      </defs>
      <g>
       <use xlink:href="#m2c15058335" x="57.6" y="305.281852" style="stroke: #000000; stroke-width: 0.8"/>
      </g>
     </g>
     <g id="text_6">
      <!-- 0 -->
      <g transform="translate(44.2375 309.081071)scale(0.1 -0.1)">
       <use xlink:href="#DejaVuSans-30"/>
      </g>
     </g>
    </g>
    <g id="ytick_2">
     <g id="line2d_7">
      <g>
       <use xlink:href="#m2c15058335" x="57.6" y="257.982724" style="stroke: #000000; stroke-width: 0.8"/>
      </g>
     </g>
     <g id="text_7">
      <!-- 500 -->
      <g transform="translate(31.5125 261.781943)scale(0.1 -0.1)">
       <defs>
        <path id="DejaVuSans-35" d="M 691 4666 
L 3169 4666 
L 3169 4134 
L 1269 4134 
L 1269 2991 
Q 1406 3038 1543 3061 
Q 1681 3084 1819 3084 
Q 2600 3084 3056 2656 
Q 3513 2228 3513 1497 
Q 3513 744 3044 326 
Q 2575 -91 1722 -91 
Q 1428 -91 1123 -41 
Q 819 9 494 109 
L 494 744 
Q 775 591 1075 516 
Q 1375 441 1709 441 
Q 2250 441 2565 725 
Q 2881 1009 2881 1497 
Q 2881 1984 2565 2268 
Q 2250 2553 1709 2553 
Q 1456 2553 1204 2497 
Q 953 2441 691 2322 
L 691 4666 
z
" transform="scale(0.015625)"/>
       </defs>
       <use xlink:href="#DejaVuSans-35"/>
       <use xlink:href="#DejaVuSans-30" x="63.623047"/>
       <use xlink:href="#DejaVuSans-30" x="127.246094"/>
      </g>
     </g>
    </g>
    <g id="ytick_3">
     <g id="line2d_8">
      <g>
       <use xlink:href="#m2c15058335" x="57.6" y="210.683596" style="stroke: #000000; stroke-width: 0.8"/>
      </g>
     </g>
     <g id="text_8">
      <!-- 1000 -->
      <g transform="translate(25.15 214.482814)scale(0.1 -0.1)">
       <use xlink:href="#DejaVuSans-31"/>
       <use xlink:href="#DejaVuSans-30" x="63.623047"/>
       <use xlink:href="#DejaVuSans-30" x="127.246094"/>
       <use xlink:href="#DejaVuSans-30" x="190.869141"/>
      </g>
     </g>
    </g>
    <g id="ytick_4">
     <g id="line2d_9">
      <g>
       <use xlink:href="#m2c15058335" x="57.6" y="163.384467" style="stroke: #000000; stroke-width: 0.8"/>
      </g>
     </g>
     <g id="text_9">
      <!-- 1500 -->
      <g transform="translate(25.15 167.183686)scale(0.1 -0.1)">
       <use xlink:href="#DejaVuSans-31"/>
       <use xlink:href="#DejaVuSans-35" x="63.623047"/>
       <use xlink:href="#DejaVuSans-30" x="127.246094"/>
       <use xlink:href="#DejaVuSans-30" x="190.869141"/>
      </g>
     </g>
    </g>
    <g id="ytick_5">
     <g id="line2d_10">
      <g>
       <use xlink:href="#m2c15058335" x="57.6" y="116.085339" style="stroke: #000000; stroke-width: 0.8"/>
      </g>
     </g>
     <g id="text_10">
      <!-- 2000 -->
      <g transform="translate(25.15 119.884558)scale(0.1 -0.1)">
       <use xlink:href="#DejaVuSans-32"/>
       <use xlink:href="#DejaVuSans-30" x="63.623047"/>
       <use xlink:href="#DejaVuSans-30" x="127.246094"/>
       <use xlink:href="#DejaVuSans-30" x="190.869141"/>
      </g>
     </g>
    </g>
    <g id="ytick_6">
     <g id="line2d_11">
      <g>
       <use xlink:href="#m2c15058335" x="57.6" y="68.786211" style="stroke: #000000; stroke-width: 0.8"/>
      </g>
     </g>
     <g id="text_11">
      <!-- 2500 -->
      <g transform="translate(25.15 72.585429)scale(0.1 -0.1)">
       <use xlink:href="#DejaVuSans-32"/>
       <use xlink:href="#DejaVuSans-35" x="63.623047"/>
       <use xlink:href="#DejaVuSans-30" x="127.246094"/>
       <use xlink:href="#DejaVuSans-30" x="190.869141"/>
      </g>
     </g>
    </g>
   </g>
   <g id="line2d_12">
    <path d="M 73.832727 53.568 
L 81.21124 291.587241 
L 88.589752 292.982471 
L 95.968264 292.791004 
L 103.346777 292.575603 
L 110.725289 294.178098 
L 118.103802 294.805852 
L 125.482314 293.243562 
L 132.860826 294.352348 
L 140.239339 295.488 
L 147.617851 294.715605 
L 154.996364 294.751931 
L 162.374876 294.298522 
L 169.753388 294.478258 
L 177.131901 294.632737 
L 184.510413 294.677766 
L 191.888926 294.777189 
L 199.267438 294.571721 
L 206.64595 294.356794 
L 214.024463 295.3514 
L 221.402975 294.729606 
L 228.781488 294.618453 
L 236.16 294.772175 
L 243.538512 294.725254 
L 250.917025 294.49207 
L 258.295537 295.022671 
L 265.67405 294.743512 
L 273.052562 295.098066 
L 280.431074 295.018414 
L 287.809587 295.246018 
L 295.188099 294.871787 
L 302.566612 294.912559 
L 309.945124 294.9889 
L 309.945124 294.947749 
L 317.323636 295.020022 
L 324.702149 295.05001 
L 332.080661 294.850219 
L 339.459174 295.022293 
L 346.837686 295.235233 
L 354.216198 295.016617 
L 361.594711 295.096458 
L 368.973223 294.813609 
L 376.351736 295.120959 
L 383.730248 295.029482 
L 391.10876 295.087755 
L 398.487273 294.920127 
" clip-path="url(#pc61a60e3fa)" style="fill: none; stroke: #00bfff; stroke-width: 1.5; stroke-linecap: square"/>
   </g>
   <g id="patch_3">
    <path d="M 57.6 307.584 
L 57.6 41.472 
" style="fill: none; stroke: #000000; stroke-width: 0.8; stroke-linejoin: miter; stroke-linecap: square"/>
   </g>
   <g id="patch_4">
    <path d="M 414.72 307.584 
L 414.72 41.472 
" style="fill: none; stroke: #000000; stroke-width: 0.8; stroke-linejoin: miter; stroke-linecap: square"/>
   </g>
   <g id="patch_5">
    <path d="M 57.6 307.584 
L 414.72 307.584 
" style="fill: none; stroke: #000000; stroke-width: 0.8; stroke-linejoin: miter; stroke-linecap: square"/>
   </g>
   <g id="patch_6">
    <path d="M 57.6 41.472 
L 414.72 41.472 
" style="fill: none; stroke: #000000; stroke-width: 0.8; stroke-linejoin: miter; stroke-linecap: square"/>
   </g>
   <g id="text_12">
    <!-- 2660.87 -->
    <g transform="translate(59.359134 52.112219)scale(0.07 -0.07)">
     <defs>
      <path id="DejaVuSans-36" d="M 2113 2584 
Q 1688 2584 1439 2293 
Q 1191 2003 1191 1497 
Q 1191 994 1439 701 
Q 1688 409 2113 409 
Q 2538 409 2786 701 
Q 3034 994 3034 1497 
Q 3034 2003 2786 2293 
Q 2538 2584 2113 2584 
z
M 3366 4563 
L 3366 3988 
Q 3128 4100 2886 4159 
Q 2644 4219 2406 4219 
Q 1781 4219 1451 3797 
Q 1122 3375 1075 2522 
Q 1259 2794 1537 2939 
Q 1816 3084 2150 3084 
Q 2853 3084 3261 2657 
Q 3669 2231 3669 1497 
Q 3669 778 3244 343 
Q 2819 -91 2113 -91 
Q 1303 -91 875 529 
Q 447 1150 447 2328 
Q 447 3434 972 4092 
Q 1497 4750 2381 4750 
Q 2619 4750 2861 4703 
Q 3103 4656 3366 4563 
z
" transform="scale(0.015625)"/>
      <path id="DejaVuSans-2e" d="M 684 794 
L 1344 794 
L 1344 0 
L 684 0 
L 684 794 
z
" transform="scale(0.015625)"/>
      <path id="DejaVuSans-38" d="M 2034 2216 
Q 1584 2216 1326 1975 
Q 1069 1734 1069 1313 
Q 1069 891 1326 650 
Q 1584 409 2034 409 
Q 2484 409 2743 651 
Q 3003 894 3003 1313 
Q 3003 1734 2745 1975 
Q 2488 2216 2034 2216 
z
M 1403 2484 
Q 997 2584 770 2862 
Q 544 3141 544 3541 
Q 544 4100 942 4425 
Q 1341 4750 2034 4750 
Q 2731 4750 3128 4425 
Q 3525 4100 3525 3541 
Q 3525 3141 3298 2862 
Q 3072 2584 2669 2484 
Q 3125 2378 3379 2068 
Q 3634 1759 3634 1313 
Q 3634 634 3220 271 
Q 2806 -91 2034 -91 
Q 1263 -91 848 271 
Q 434 634 434 1313 
Q 434 1759 690 2068 
Q 947 2378 1403 2484 
z
M 1172 3481 
Q 1172 3119 1398 2916 
Q 1625 2713 2034 2713 
Q 2441 2713 2670 2916 
Q 2900 3119 2900 3481 
Q 2900 3844 2670 4047 
Q 2441 4250 2034 4250 
Q 1625 4250 1398 4047 
Q 1172 3844 1172 3481 
z
" transform="scale(0.015625)"/>
      <path id="DejaVuSans-37" d="M 525 4666 
L 3525 4666 
L 3525 4397 
L 1831 0 
L 1172 0 
L 2766 4134 
L 525 4134 
L 525 4666 
z
" transform="scale(0.015625)"/>
     </defs>
     <use xlink:href="#DejaVuSans-32"/>
     <use xlink:href="#DejaVuSans-36" x="63.623047"/>
     <use xlink:href="#DejaVuSans-36" x="127.246094"/>
     <use xlink:href="#DejaVuSans-30" x="190.869141"/>
     <use xlink:href="#DejaVuSans-2e" x="254.492188"/>
     <use xlink:href="#DejaVuSans-38" x="286.279297"/>
     <use xlink:href="#DejaVuSans-37" x="349.902344"/>
    </g>
   </g>
   <g id="text_13">
    <!-- 144.77 -->
    <g transform="translate(68.964521 290.13146)scale(0.07 -0.07)">
     <use xlink:href="#DejaVuSans-31"/>
     <use xlink:href="#DejaVuSans-34" x="63.623047"/>
     <use xlink:href="#DejaVuSans-34" x="127.246094"/>
     <use xlink:href="#DejaVuSans-2e" x="190.869141"/>
     <use xlink:href="#DejaVuSans-37" x="222.65625"/>
     <use xlink:href="#DejaVuSans-37" x="286.279297"/>
    </g>
   </g>
   <g id="text_14">
    <!-- 130.02 -->
    <g transform="translate(76.343033 291.526689)scale(0.07 -0.07)">
     <use xlink:href="#DejaVuSans-31"/>
     <use xlink:href="#DejaVuSans-33" x="63.623047"/>
     <use xlink:href="#DejaVuSans-30" x="127.246094"/>
     <use xlink:href="#DejaVuSans-2e" x="190.869141"/>
     <use xlink:href="#DejaVuSans-30" x="222.65625"/>
     <use xlink:href="#DejaVuSans-32" x="286.279297"/>
    </g>
   </g>
   <g id="text_15">
    <!-- 132.04 -->
    <g transform="translate(83.721546 291.335222)scale(0.07 -0.07)">
     <use xlink:href="#DejaVuSans-31"/>
     <use xlink:href="#DejaVuSans-33" x="63.623047"/>
     <use xlink:href="#DejaVuSans-32" x="127.246094"/>
     <use xlink:href="#DejaVuSans-2e" x="190.869141"/>
     <use xlink:href="#DejaVuSans-30" x="222.65625"/>
     <use xlink:href="#DejaVuSans-34" x="286.279297"/>
    </g>
   </g>
   <g id="text_16">
    <!-- 134.32 -->
    <g transform="translate(91.100058 291.119822)scale(0.07 -0.07)">
     <use xlink:href="#DejaVuSans-31"/>
     <use xlink:href="#DejaVuSans-33" x="63.623047"/>
     <use xlink:href="#DejaVuSans-34" x="127.246094"/>
     <use xlink:href="#DejaVuSans-2e" x="190.869141"/>
     <use xlink:href="#DejaVuSans-33" x="222.65625"/>
     <use xlink:href="#DejaVuSans-32" x="286.279297"/>
    </g>
   </g>
   <g id="text_17">
    <!-- 117.38 -->
    <g transform="translate(98.478571 292.722317)scale(0.07 -0.07)">
     <use xlink:href="#DejaVuSans-31"/>
     <use xlink:href="#DejaVuSans-31" x="63.623047"/>
     <use xlink:href="#DejaVuSans-37" x="127.246094"/>
     <use xlink:href="#DejaVuSans-2e" x="190.869141"/>
     <use xlink:href="#DejaVuSans-33" x="222.65625"/>
     <use xlink:href="#DejaVuSans-38" x="286.279297"/>
    </g>
   </g>
   <g id="text_18">
    <!-- 110.74 -->
    <g transform="translate(105.857083 293.350071)scale(0.07 -0.07)">
     <use xlink:href="#DejaVuSans-31"/>
     <use xlink:href="#DejaVuSans-31" x="63.623047"/>
     <use xlink:href="#DejaVuSans-30" x="127.246094"/>
     <use xlink:href="#DejaVuSans-2e" x="190.869141"/>
     <use xlink:href="#DejaVuSans-37" x="222.65625"/>
     <use xlink:href="#DejaVuSans-34" x="286.279297"/>
    </g>
   </g>
   <g id="text_19">
    <!-- 127.26 -->
    <g transform="translate(113.235595 291.787781)scale(0.07 -0.07)">
     <use xlink:href="#DejaVuSans-31"/>
     <use xlink:href="#DejaVuSans-32" x="63.623047"/>
     <use xlink:href="#DejaVuSans-37" x="127.246094"/>
     <use xlink:href="#DejaVuSans-2e" x="190.869141"/>
     <use xlink:href="#DejaVuSans-32" x="222.65625"/>
     <use xlink:href="#DejaVuSans-36" x="286.279297"/>
    </g>
   </g>
   <g id="text_20">
    <!-- 115.54 -->
    <g transform="translate(120.614108 292.896567)scale(0.07 -0.07)">
     <use xlink:href="#DejaVuSans-31"/>
     <use xlink:href="#DejaVuSans-31" x="63.623047"/>
     <use xlink:href="#DejaVuSans-35" x="127.246094"/>
     <use xlink:href="#DejaVuSans-2e" x="190.869141"/>
     <use xlink:href="#DejaVuSans-35" x="222.65625"/>
     <use xlink:href="#DejaVuSans-34" x="286.279297"/>
    </g>
   </g>
   <g id="text_21">
    <!-- 103.53 -->
    <g transform="translate(127.99262 294.032219)scale(0.07 -0.07)">
     <use xlink:href="#DejaVuSans-31"/>
     <use xlink:href="#DejaVuSans-30" x="63.623047"/>
     <use xlink:href="#DejaVuSans-33" x="127.246094"/>
     <use xlink:href="#DejaVuSans-2e" x="190.869141"/>
     <use xlink:href="#DejaVuSans-35" x="222.65625"/>
     <use xlink:href="#DejaVuSans-33" x="286.279297"/>
    </g>
   </g>
   <g id="text_22">
    <!-- 111.70 -->
    <g transform="translate(135.371132 293.259824)scale(0.07 -0.07)">
     <use xlink:href="#DejaVuSans-31"/>
     <use xlink:href="#DejaVuSans-31" x="63.623047"/>
     <use xlink:href="#DejaVuSans-31" x="127.246094"/>
     <use xlink:href="#DejaVuSans-2e" x="190.869141"/>
     <use xlink:href="#DejaVuSans-37" x="222.65625"/>
     <use xlink:href="#DejaVuSans-30" x="286.279297"/>
    </g>
   </g>
   <g id="text_23">
    <!-- 111.31 -->
    <g transform="translate(142.749645 293.29615)scale(0.07 -0.07)">
     <use xlink:href="#DejaVuSans-31"/>
     <use xlink:href="#DejaVuSans-31" x="63.623047"/>
     <use xlink:href="#DejaVuSans-31" x="127.246094"/>
     <use xlink:href="#DejaVuSans-2e" x="190.869141"/>
     <use xlink:href="#DejaVuSans-33" x="222.65625"/>
     <use xlink:href="#DejaVuSans-31" x="286.279297"/>
    </g>
   </g>
   <g id="text_24">
    <!-- 116.11 -->
    <g transform="translate(150.128157 292.84274)scale(0.07 -0.07)">
     <use xlink:href="#DejaVuSans-31"/>
     <use xlink:href="#DejaVuSans-31" x="63.623047"/>
     <use xlink:href="#DejaVuSans-36" x="127.246094"/>
     <use xlink:href="#DejaVuSans-2e" x="190.869141"/>
     <use xlink:href="#DejaVuSans-31" x="222.65625"/>
     <use xlink:href="#DejaVuSans-31" x="286.279297"/>
    </g>
   </g>
   <g id="text_25">
    <!-- 114.20 -->
    <g transform="translate(157.50667 293.022477)scale(0.07 -0.07)">
     <use xlink:href="#DejaVuSans-31"/>
     <use xlink:href="#DejaVuSans-31" x="63.623047"/>
     <use xlink:href="#DejaVuSans-34" x="127.246094"/>
     <use xlink:href="#DejaVuSans-2e" x="190.869141"/>
     <use xlink:href="#DejaVuSans-32" x="222.65625"/>
     <use xlink:href="#DejaVuSans-30" x="286.279297"/>
    </g>
   </g>
   <g id="text_26">
    <!-- 112.57 -->
    <g transform="translate(164.885182 293.176956)scale(0.07 -0.07)">
     <use xlink:href="#DejaVuSans-31"/>
     <use xlink:href="#DejaVuSans-31" x="63.623047"/>
     <use xlink:href="#DejaVuSans-32" x="127.246094"/>
     <use xlink:href="#DejaVuSans-2e" x="190.869141"/>
     <use xlink:href="#DejaVuSans-35" x="222.65625"/>
     <use xlink:href="#DejaVuSans-37" x="286.279297"/>
    </g>
   </g>
   <g id="text_27">
    <!-- 112.10 -->
    <g transform="translate(172.263694 293.221985)scale(0.07 -0.07)">
     <use xlink:href="#DejaVuSans-31"/>
     <use xlink:href="#DejaVuSans-31" x="63.623047"/>
     <use xlink:href="#DejaVuSans-32" x="127.246094"/>
     <use xlink:href="#DejaVuSans-2e" x="190.869141"/>
     <use xlink:href="#DejaVuSans-31" x="222.65625"/>
     <use xlink:href="#DejaVuSans-30" x="286.279297"/>
    </g>
   </g>
   <g id="text_28">
    <!-- 111.05 -->
    <g transform="translate(179.642207 293.321407)scale(0.07 -0.07)">
     <use xlink:href="#DejaVuSans-31"/>
     <use xlink:href="#DejaVuSans-31" x="63.623047"/>
     <use xlink:href="#DejaVuSans-31" x="127.246094"/>
     <use xlink:href="#DejaVuSans-2e" x="190.869141"/>
     <use xlink:href="#DejaVuSans-30" x="222.65625"/>
     <use xlink:href="#DejaVuSans-35" x="286.279297"/>
    </g>
   </g>
   <g id="text_29">
    <!-- 113.22 -->
    <g transform="translate(187.020719 293.11594)scale(0.07 -0.07)">
     <use xlink:href="#DejaVuSans-31"/>
     <use xlink:href="#DejaVuSans-31" x="63.623047"/>
     <use xlink:href="#DejaVuSans-33" x="127.246094"/>
     <use xlink:href="#DejaVuSans-2e" x="190.869141"/>
     <use xlink:href="#DejaVuSans-32" x="222.65625"/>
     <use xlink:href="#DejaVuSans-32" x="286.279297"/>
    </g>
   </g>
   <g id="text_30">
    <!-- 115.49 -->
    <g transform="translate(194.399232 292.901013)scale(0.07 -0.07)">
     <defs>
      <path id="DejaVuSans-39" d="M 703 97 
L 703 672 
Q 941 559 1184 500 
Q 1428 441 1663 441 
Q 2288 441 2617 861 
Q 2947 1281 2994 2138 
Q 2813 1869 2534 1725 
Q 2256 1581 1919 1581 
Q 1219 1581 811 2004 
Q 403 2428 403 3163 
Q 403 3881 828 4315 
Q 1253 4750 1959 4750 
Q 2769 4750 3195 4129 
Q 3622 3509 3622 2328 
Q 3622 1225 3098 567 
Q 2575 -91 1691 -91 
Q 1453 -91 1209 -44 
Q 966 3 703 97 
z
M 1959 2075 
Q 2384 2075 2632 2365 
Q 2881 2656 2881 3163 
Q 2881 3666 2632 3958 
Q 2384 4250 1959 4250 
Q 1534 4250 1286 3958 
Q 1038 3666 1038 3163 
Q 1038 2656 1286 2365 
Q 1534 2075 1959 2075 
z
" transform="scale(0.015625)"/>
     </defs>
     <use xlink:href="#DejaVuSans-31"/>
     <use xlink:href="#DejaVuSans-31" x="63.623047"/>
     <use xlink:href="#DejaVuSans-35" x="127.246094"/>
     <use xlink:href="#DejaVuSans-2e" x="190.869141"/>
     <use xlink:href="#DejaVuSans-34" x="222.65625"/>
     <use xlink:href="#DejaVuSans-39" x="286.279297"/>
    </g>
   </g>
   <g id="text_31">
    <!-- 104.97 -->
    <g transform="translate(201.777744 293.895619)scale(0.07 -0.07)">
     <use xlink:href="#DejaVuSans-31"/>
     <use xlink:href="#DejaVuSans-30" x="63.623047"/>
     <use xlink:href="#DejaVuSans-34" x="127.246094"/>
     <use xlink:href="#DejaVuSans-2e" x="190.869141"/>
     <use xlink:href="#DejaVuSans-39" x="222.65625"/>
     <use xlink:href="#DejaVuSans-37" x="286.279297"/>
    </g>
   </g>
   <g id="text_32">
    <!-- 111.55 -->
    <g transform="translate(209.156256 293.273825)scale(0.07 -0.07)">
     <use xlink:href="#DejaVuSans-31"/>
     <use xlink:href="#DejaVuSans-31" x="63.623047"/>
     <use xlink:href="#DejaVuSans-31" x="127.246094"/>
     <use xlink:href="#DejaVuSans-2e" x="190.869141"/>
     <use xlink:href="#DejaVuSans-35" x="222.65625"/>
     <use xlink:href="#DejaVuSans-35" x="286.279297"/>
    </g>
   </g>
   <g id="text_33">
    <!-- 112.72 -->
    <g transform="translate(216.534769 293.162672)scale(0.07 -0.07)">
     <use xlink:href="#DejaVuSans-31"/>
     <use xlink:href="#DejaVuSans-31" x="63.623047"/>
     <use xlink:href="#DejaVuSans-32" x="127.246094"/>
     <use xlink:href="#DejaVuSans-2e" x="190.869141"/>
     <use xlink:href="#DejaVuSans-37" x="222.65625"/>
     <use xlink:href="#DejaVuSans-32" x="286.279297"/>
    </g>
   </g>
   <g id="text_34">
    <!-- 111.10 -->
    <g transform="translate(223.913281 293.316394)scale(0.07 -0.07)">
     <use xlink:href="#DejaVuSans-31"/>
     <use xlink:href="#DejaVuSans-31" x="63.623047"/>
     <use xlink:href="#DejaVuSans-31" x="127.246094"/>
     <use xlink:href="#DejaVuSans-2e" x="190.869141"/>
     <use xlink:href="#DejaVuSans-31" x="222.65625"/>
     <use xlink:href="#DejaVuSans-30" x="286.279297"/>
    </g>
   </g>
   <g id="text_35">
    <!-- 111.59 -->
    <g transform="translate(231.291794 293.269473)scale(0.07 -0.07)">
     <use xlink:href="#DejaVuSans-31"/>
     <use xlink:href="#DejaVuSans-31" x="63.623047"/>
     <use xlink:href="#DejaVuSans-31" x="127.246094"/>
     <use xlink:href="#DejaVuSans-2e" x="190.869141"/>
     <use xlink:href="#DejaVuSans-35" x="222.65625"/>
     <use xlink:href="#DejaVuSans-39" x="286.279297"/>
    </g>
   </g>
   <g id="text_36">
    <!-- 114.06 -->
    <g transform="translate(238.670306 293.036288)scale(0.07 -0.07)">
     <use xlink:href="#DejaVuSans-31"/>
     <use xlink:href="#DejaVuSans-31" x="63.623047"/>
     <use xlink:href="#DejaVuSans-34" x="127.246094"/>
     <use xlink:href="#DejaVuSans-2e" x="190.869141"/>
     <use xlink:href="#DejaVuSans-30" x="222.65625"/>
     <use xlink:href="#DejaVuSans-36" x="286.279297"/>
    </g>
   </g>
   <g id="text_37">
    <!-- 108.45 -->
    <g transform="translate(246.048818 293.56689)scale(0.07 -0.07)">
     <use xlink:href="#DejaVuSans-31"/>
     <use xlink:href="#DejaVuSans-30" x="63.623047"/>
     <use xlink:href="#DejaVuSans-38" x="127.246094"/>
     <use xlink:href="#DejaVuSans-2e" x="190.869141"/>
     <use xlink:href="#DejaVuSans-34" x="222.65625"/>
     <use xlink:href="#DejaVuSans-35" x="286.279297"/>
    </g>
   </g>
   <g id="text_38">
    <!-- 111.40 -->
    <g transform="translate(253.427331 293.28773)scale(0.07 -0.07)">
     <use xlink:href="#DejaVuSans-31"/>
     <use xlink:href="#DejaVuSans-31" x="63.623047"/>
     <use xlink:href="#DejaVuSans-31" x="127.246094"/>
     <use xlink:href="#DejaVuSans-2e" x="190.869141"/>
     <use xlink:href="#DejaVuSans-34" x="222.65625"/>
     <use xlink:href="#DejaVuSans-30" x="286.279297"/>
    </g>
   </g>
   <g id="text_39">
    <!-- 107.65 -->
    <g transform="translate(260.805843 293.642285)scale(0.07 -0.07)">
     <use xlink:href="#DejaVuSans-31"/>
     <use xlink:href="#DejaVuSans-30" x="63.623047"/>
     <use xlink:href="#DejaVuSans-37" x="127.246094"/>
     <use xlink:href="#DejaVuSans-2e" x="190.869141"/>
     <use xlink:href="#DejaVuSans-36" x="222.65625"/>
     <use xlink:href="#DejaVuSans-35" x="286.279297"/>
    </g>
   </g>
   <g id="text_40">
    <!-- 108.50 -->
    <g transform="translate(268.184356 293.562633)scale(0.07 -0.07)">
     <use xlink:href="#DejaVuSans-31"/>
     <use xlink:href="#DejaVuSans-30" x="63.623047"/>
     <use xlink:href="#DejaVuSans-38" x="127.246094"/>
     <use xlink:href="#DejaVuSans-2e" x="190.869141"/>
     <use xlink:href="#DejaVuSans-35" x="222.65625"/>
     <use xlink:href="#DejaVuSans-30" x="286.279297"/>
    </g>
   </g>
   <g id="text_41">
    <!-- 106.09 -->
    <g transform="translate(275.562868 293.790236)scale(0.07 -0.07)">
     <use xlink:href="#DejaVuSans-31"/>
     <use xlink:href="#DejaVuSans-30" x="63.623047"/>
     <use xlink:href="#DejaVuSans-36" x="127.246094"/>
     <use xlink:href="#DejaVuSans-2e" x="190.869141"/>
     <use xlink:href="#DejaVuSans-30" x="222.65625"/>
     <use xlink:href="#DejaVuSans-39" x="286.279297"/>
    </g>
   </g>
   <g id="text_42">
    <!-- 110.05 -->
    <g transform="translate(282.94138 293.416006)scale(0.07 -0.07)">
     <use xlink:href="#DejaVuSans-31"/>
     <use xlink:href="#DejaVuSans-31" x="63.623047"/>
     <use xlink:href="#DejaVuSans-30" x="127.246094"/>
     <use xlink:href="#DejaVuSans-2e" x="190.869141"/>
     <use xlink:href="#DejaVuSans-30" x="222.65625"/>
     <use xlink:href="#DejaVuSans-35" x="286.279297"/>
    </g>
   </g>
   <g id="text_43">
    <!-- 109.61 -->
    <g transform="translate(290.319893 293.456778)scale(0.07 -0.07)">
     <use xlink:href="#DejaVuSans-31"/>
     <use xlink:href="#DejaVuSans-30" x="63.623047"/>
     <use xlink:href="#DejaVuSans-39" x="127.246094"/>
     <use xlink:href="#DejaVuSans-2e" x="190.869141"/>
     <use xlink:href="#DejaVuSans-36" x="222.65625"/>
     <use xlink:href="#DejaVuSans-31" x="286.279297"/>
    </g>
   </g>
   <g id="text_44">
    <!-- 108.81 -->
    <g transform="translate(297.698405 293.533118)scale(0.07 -0.07)">
     <use xlink:href="#DejaVuSans-31"/>
     <use xlink:href="#DejaVuSans-30" x="63.623047"/>
     <use xlink:href="#DejaVuSans-38" x="127.246094"/>
     <use xlink:href="#DejaVuSans-2e" x="190.869141"/>
     <use xlink:href="#DejaVuSans-38" x="222.65625"/>
     <use xlink:href="#DejaVuSans-31" x="286.279297"/>
    </g>
   </g>
   <g id="text_45">
    <!-- 109.24 -->
    <g transform="translate(297.698405 293.491968)scale(0.07 -0.07)">
     <use xlink:href="#DejaVuSans-31"/>
     <use xlink:href="#DejaVuSans-30" x="63.623047"/>
     <use xlink:href="#DejaVuSans-39" x="127.246094"/>
     <use xlink:href="#DejaVuSans-2e" x="190.869141"/>
     <use xlink:href="#DejaVuSans-32" x="222.65625"/>
     <use xlink:href="#DejaVuSans-34" x="286.279297"/>
    </g>
   </g>
   <g id="text_46">
    <!-- 108.48 -->
    <g transform="translate(305.076918 293.564241)scale(0.07 -0.07)">
     <use xlink:href="#DejaVuSans-31"/>
     <use xlink:href="#DejaVuSans-30" x="63.623047"/>
     <use xlink:href="#DejaVuSans-38" x="127.246094"/>
     <use xlink:href="#DejaVuSans-2e" x="190.869141"/>
     <use xlink:href="#DejaVuSans-34" x="222.65625"/>
     <use xlink:href="#DejaVuSans-38" x="286.279297"/>
    </g>
   </g>
   <g id="text_47">
    <!-- 108.16 -->
    <g transform="translate(312.45543 293.594229)scale(0.07 -0.07)">
     <use xlink:href="#DejaVuSans-31"/>
     <use xlink:href="#DejaVuSans-30" x="63.623047"/>
     <use xlink:href="#DejaVuSans-38" x="127.246094"/>
     <use xlink:href="#DejaVuSans-2e" x="190.869141"/>
     <use xlink:href="#DejaVuSans-31" x="222.65625"/>
     <use xlink:href="#DejaVuSans-36" x="286.279297"/>
    </g>
   </g>
   <g id="text_48">
    <!-- 110.27 -->
    <g transform="translate(319.833942 293.394437)scale(0.07 -0.07)">
     <use xlink:href="#DejaVuSans-31"/>
     <use xlink:href="#DejaVuSans-31" x="63.623047"/>
     <use xlink:href="#DejaVuSans-30" x="127.246094"/>
     <use xlink:href="#DejaVuSans-2e" x="190.869141"/>
     <use xlink:href="#DejaVuSans-32" x="222.65625"/>
     <use xlink:href="#DejaVuSans-37" x="286.279297"/>
    </g>
   </g>
   <g id="text_49">
    <!-- 108.45 -->
    <g transform="translate(327.212455 293.566512)scale(0.07 -0.07)">
     <use xlink:href="#DejaVuSans-31"/>
     <use xlink:href="#DejaVuSans-30" x="63.623047"/>
     <use xlink:href="#DejaVuSans-38" x="127.246094"/>
     <use xlink:href="#DejaVuSans-2e" x="190.869141"/>
     <use xlink:href="#DejaVuSans-34" x="222.65625"/>
     <use xlink:href="#DejaVuSans-35" x="286.279297"/>
    </g>
   </g>
   <g id="text_50">
    <!-- 106.20 -->
    <g transform="translate(334.590967 293.779452)scale(0.07 -0.07)">
     <use xlink:href="#DejaVuSans-31"/>
     <use xlink:href="#DejaVuSans-30" x="63.623047"/>
     <use xlink:href="#DejaVuSans-36" x="127.246094"/>
     <use xlink:href="#DejaVuSans-2e" x="190.869141"/>
     <use xlink:href="#DejaVuSans-32" x="222.65625"/>
     <use xlink:href="#DejaVuSans-30" x="286.279297"/>
    </g>
   </g>
   <g id="text_51">
    <!-- 108.51 -->
    <g transform="translate(341.96948 293.560836)scale(0.07 -0.07)">
     <use xlink:href="#DejaVuSans-31"/>
     <use xlink:href="#DejaVuSans-30" x="63.623047"/>
     <use xlink:href="#DejaVuSans-38" x="127.246094"/>
     <use xlink:href="#DejaVuSans-2e" x="190.869141"/>
     <use xlink:href="#DejaVuSans-35" x="222.65625"/>
     <use xlink:href="#DejaVuSans-31" x="286.279297"/>
    </g>
   </g>
   <g id="text_52">
    <!-- 107.67 -->
    <g transform="translate(349.347992 293.640677)scale(0.07 -0.07)">
     <use xlink:href="#DejaVuSans-31"/>
     <use xlink:href="#DejaVuSans-30" x="63.623047"/>
     <use xlink:href="#DejaVuSans-37" x="127.246094"/>
     <use xlink:href="#DejaVuSans-2e" x="190.869141"/>
     <use xlink:href="#DejaVuSans-36" x="222.65625"/>
     <use xlink:href="#DejaVuSans-37" x="286.279297"/>
    </g>
   </g>
   <g id="text_53">
    <!-- 110.66 -->
    <g transform="translate(356.726504 293.357828)scale(0.07 -0.07)">
     <use xlink:href="#DejaVuSans-31"/>
     <use xlink:href="#DejaVuSans-31" x="63.623047"/>
     <use xlink:href="#DejaVuSans-30" x="127.246094"/>
     <use xlink:href="#DejaVuSans-2e" x="190.869141"/>
     <use xlink:href="#DejaVuSans-36" x="222.65625"/>
     <use xlink:href="#DejaVuSans-36" x="286.279297"/>
    </g>
   </g>
   <g id="text_54">
    <!-- 107.41 -->
    <g transform="translate(364.105017 293.665178)scale(0.07 -0.07)">
     <use xlink:href="#DejaVuSans-31"/>
     <use xlink:href="#DejaVuSans-30" x="63.623047"/>
     <use xlink:href="#DejaVuSans-37" x="127.246094"/>
     <use xlink:href="#DejaVuSans-2e" x="190.869141"/>
     <use xlink:href="#DejaVuSans-34" x="222.65625"/>
     <use xlink:href="#DejaVuSans-31" x="286.279297"/>
    </g>
   </g>
   <g id="text_55">
    <!-- 108.38 -->
    <g transform="translate(371.483529 293.573701)scale(0.07 -0.07)">
     <use xlink:href="#DejaVuSans-31"/>
     <use xlink:href="#DejaVuSans-30" x="63.623047"/>
     <use xlink:href="#DejaVuSans-38" x="127.246094"/>
     <use xlink:href="#DejaVuSans-2e" x="190.869141"/>
     <use xlink:href="#DejaVuSans-33" x="222.65625"/>
     <use xlink:href="#DejaVuSans-38" x="286.279297"/>
    </g>
   </g>
   <g id="text_56">
    <!-- 107.76 -->
    <g transform="translate(378.862042 293.631974)scale(0.07 -0.07)">
     <use xlink:href="#DejaVuSans-31"/>
     <use xlink:href="#DejaVuSans-30" x="63.623047"/>
     <use xlink:href="#DejaVuSans-37" x="127.246094"/>
     <use xlink:href="#DejaVuSans-2e" x="190.869141"/>
     <use xlink:href="#DejaVuSans-37" x="222.65625"/>
     <use xlink:href="#DejaVuSans-36" x="286.279297"/>
    </g>
   </g>
   <g id="text_57">
    <!-- 109.53 -->
    <g transform="translate(386.240554 293.464345)scale(0.07 -0.07)">
     <use xlink:href="#DejaVuSans-31"/>
     <use xlink:href="#DejaVuSans-30" x="63.623047"/>
     <use xlink:href="#DejaVuSans-39" x="127.246094"/>
     <use xlink:href="#DejaVuSans-2e" x="190.869141"/>
     <use xlink:href="#DejaVuSans-35" x="222.65625"/>
     <use xlink:href="#DejaVuSans-33" x="286.279297"/>
    </g>
   </g>
   <g id="text_58">
    <!-- mse -->
    <g transform="translate(223.498125 35.472)scale(0.12 -0.12)">
     <defs>
      <path id="DejaVuSans-6d" d="M 3328 2828 
Q 3544 3216 3844 3400 
Q 4144 3584 4550 3584 
Q 5097 3584 5394 3201 
Q 5691 2819 5691 2113 
L 5691 0 
L 5113 0 
L 5113 2094 
Q 5113 2597 4934 2840 
Q 4756 3084 4391 3084 
Q 3944 3084 3684 2787 
Q 3425 2491 3425 1978 
L 3425 0 
L 2847 0 
L 2847 2094 
Q 2847 2600 2669 2842 
Q 2491 3084 2119 3084 
Q 1678 3084 1418 2786 
Q 1159 2488 1159 1978 
L 1159 0 
L 581 0 
L 581 3500 
L 1159 3500 
L 1159 2956 
Q 1356 3278 1631 3431 
Q 1906 3584 2284 3584 
Q 2666 3584 2933 3390 
Q 3200 3197 3328 2828 
z
" transform="scale(0.015625)"/>
      <path id="DejaVuSans-73" d="M 2834 3397 
L 2834 2853 
Q 2591 2978 2328 3040 
Q 2066 3103 1784 3103 
Q 1356 3103 1142 2972 
Q 928 2841 928 2578 
Q 928 2378 1081 2264 
Q 1234 2150 1697 2047 
L 1894 2003 
Q 2506 1872 2764 1633 
Q 3022 1394 3022 966 
Q 3022 478 2636 193 
Q 2250 -91 1575 -91 
Q 1294 -91 989 -36 
Q 684 19 347 128 
L 347 722 
Q 666 556 975 473 
Q 1284 391 1588 391 
Q 1994 391 2212 530 
Q 2431 669 2431 922 
Q 2431 1156 2273 1281 
Q 2116 1406 1581 1522 
L 1381 1569 
Q 847 1681 609 1914 
Q 372 2147 372 2553 
Q 372 3047 722 3315 
Q 1072 3584 1716 3584 
Q 2034 3584 2315 3537 
Q 2597 3491 2834 3397 
z
" transform="scale(0.015625)"/>
      <path id="DejaVuSans-65" d="M 3597 1894 
L 3597 1613 
L 953 1613 
Q 991 1019 1311 708 
Q 1631 397 2203 397 
Q 2534 397 2845 478 
Q 3156 559 3463 722 
L 3463 178 
Q 3153 47 2828 -22 
Q 2503 -91 2169 -91 
Q 1331 -91 842 396 
Q 353 884 353 1716 
Q 353 2575 817 3079 
Q 1281 3584 2069 3584 
Q 2775 3584 3186 3129 
Q 3597 2675 3597 1894 
z
M 3022 2063 
Q 3016 2534 2758 2815 
Q 2500 3097 2075 3097 
Q 1594 3097 1305 2825 
Q 1016 2553 972 2059 
L 3022 2063 
z
" transform="scale(0.015625)"/>
     </defs>
     <use xlink:href="#DejaVuSans-6d"/>
     <use xlink:href="#DejaVuSans-73" x="97.412109"/>
     <use xlink:href="#DejaVuSans-65" x="149.511719"/>
    </g>
   </g>
  </g>
 </g>
 <defs>
  <clipPath id="pc61a60e3fa">
   <rect x="57.6" y="41.472" width="357.12" height="266.112"/>
  </clipPath>
 </defs>
</svg>
