<?xml version="1.0" encoding="utf-8" standalone="no"?>
<!DOCTYPE svg PUBLIC "-//W3C//DTD SVG 1.1//EN"
  "http://www.w3.org/Graphics/SVG/1.1/DTD/svg11.dtd">
<svg xmlns:xlink="http://www.w3.org/1999/xlink" width="460.8pt" height="345.6pt" viewBox="0 0 460.8 345.6" xmlns="http://www.w3.org/2000/svg" version="1.1">
 <metadata>
  <rdf:RDF xmlns:dc="http://purl.org/dc/elements/1.1/" xmlns:cc="http://creativecommons.org/ns#" xmlns:rdf="http://www.w3.org/1999/02/22-rdf-syntax-ns#">
   <cc:Work>
    <dc:type rdf:resource="http://purl.org/dc/dcmitype/StillImage"/>
    <dc:date>2023-06-04T11:52:22.834715</dc:date>
    <dc:format>image/svg+xml</dc:format>
    <dc:creator>
     <cc:Agent>
      <dc:title>Matplotlib v3.5.1, https://matplotlib.org/</dc:title>
     </cc:Agent>
    </dc:creator>
   </cc:Work>
  </rdf:RDF>
 </metadata>
 <defs>
  <style type="text/css">*{stroke-linejoin: round; stroke-linecap: butt}</style>
 </defs>
 <g id="figure_1">
  <g id="patch_1">
   <path d="M 0 345.6 
L 460.8 345.6 
L 460.8 0 
L 0 0 
z
" style="fill: #ffffff"/>
  </g>
  <g id="axes_1">
   <g id="patch_2">
    <path d="M 57.6 71.04 
L 414.72 71.04 
L 414.72 41.472 
L 57.6 41.472 
z
" style="fill: #ffffff"/>
   </g>
   <g id="matplotlib.axis_1">
    <g id="xtick_1">
     <g id="line2d_1">
      <defs>
       <path id="mc74ef09597" d="M 0 0 
L 0 3.5 
" style="stroke: #000000; stroke-width: 0.8"/>
      </defs>
      <g>
       <use xlink:href="#mc74ef09597" x="73.832727" y="71.04" style="stroke: #000000; stroke-width: 0.8"/>
      </g>
     </g>
     <g id="text_1">
      <!-- 300000 -->
      <g transform="translate(54.745227 85.638437)scale(0.1 -0.1)">
       <defs>
        <path id="DejaVuSans-33" d="M 2597 2516 
Q 3050 2419 3304 2112 
Q 3559 1806 3559 1356 
Q 3559 666 3084 287 
Q 2609 -91 1734 -91 
Q 1441 -91 1130 -33 
Q 819 25 488 141 
L 488 750 
Q 750 597 1062 519 
Q 1375 441 1716 441 
Q 2309 441 2620 675 
Q 2931 909 2931 1356 
Q 2931 1769 2642 2001 
Q 2353 2234 1838 2234 
L 1294 2234 
L 1294 2753 
L 1863 2753 
Q 2328 2753 2575 2939 
Q 2822 3125 2822 3475 
Q 2822 3834 2567 4026 
Q 2313 4219 1838 4219 
Q 1578 4219 1281 4162 
Q 984 4106 628 3988 
L 628 4550 
Q 988 4650 1302 4700 
Q 1616 4750 1894 4750 
Q 2613 4750 3031 4423 
Q 3450 4097 3450 3541 
Q 3450 3153 3228 2886 
Q 3006 2619 2597 2516 
z
" transform="scale(0.015625)"/>
        <path id="DejaVuSans-30" d="M 2034 4250 
Q 1547 4250 1301 3770 
Q 1056 3291 1056 2328 
Q 1056 1369 1301 889 
Q 1547 409 2034 409 
Q 2525 409 2770 889 
Q 3016 1369 3016 2328 
Q 3016 3291 2770 3770 
Q 2525 4250 2034 4250 
z
M 2034 4750 
Q 2819 4750 3233 4129 
Q 3647 3509 3647 2328 
Q 3647 1150 3233 529 
Q 2819 -91 2034 -91 
Q 1250 -91 836 529 
Q 422 1150 422 2328 
Q 422 3509 836 4129 
Q 1250 4750 2034 4750 
z
" transform="scale(0.015625)"/>
       </defs>
       <use xlink:href="#DejaVuSans-33"/>
       <use xlink:href="#DejaVuSans-30" x="63.623047"/>
       <use xlink:href="#DejaVuSans-30" x="127.246094"/>
       <use xlink:href="#DejaVuSans-30" x="190.869141"/>
       <use xlink:href="#DejaVuSans-30" x="254.492188"/>
       <use xlink:href="#DejaVuSans-30" x="318.115234"/>
      </g>
     </g>
    </g>
    <g id="xtick_2">
     <g id="line2d_2">
      <g>
       <use xlink:href="#mc74ef09597" x="147.617851" y="71.04" style="stroke: #000000; stroke-width: 0.8"/>
      </g>
     </g>
     <g id="text_2">
      <!-- 350000 -->
      <g transform="translate(128.530351 85.638437)scale(0.1 -0.1)">
       <defs>
        <path id="DejaVuSans-35" d="M 691 4666 
L 3169 4666 
L 3169 4134 
L 1269 4134 
L 1269 2991 
Q 1406 3038 1543 3061 
Q 1681 3084 1819 3084 
Q 2600 3084 3056 2656 
Q 3513 2228 3513 1497 
Q 3513 744 3044 326 
Q 2575 -91 1722 -91 
Q 1428 -91 1123 -41 
Q 819 9 494 109 
L 494 744 
Q 775 591 1075 516 
Q 1375 441 1709 441 
Q 2250 441 2565 725 
Q 2881 1009 2881 1497 
Q 2881 1984 2565 2268 
Q 2250 2553 1709 2553 
Q 1456 2553 1204 2497 
Q 953 2441 691 2322 
L 691 4666 
z
" transform="scale(0.015625)"/>
       </defs>
       <use xlink:href="#DejaVuSans-33"/>
       <use xlink:href="#DejaVuSans-35" x="63.623047"/>
       <use xlink:href="#DejaVuSans-30" x="127.246094"/>
       <use xlink:href="#DejaVuSans-30" x="190.869141"/>
       <use xlink:href="#DejaVuSans-30" x="254.492188"/>
       <use xlink:href="#DejaVuSans-30" x="318.115234"/>
      </g>
     </g>
    </g>
    <g id="xtick_3">
     <g id="line2d_3">
      <g>
       <use xlink:href="#mc74ef09597" x="221.402975" y="71.04" style="stroke: #000000; stroke-width: 0.8"/>
      </g>
     </g>
     <g id="text_3">
      <!-- 400000 -->
      <g transform="translate(202.315475 85.638437)scale(0.1 -0.1)">
       <defs>
        <path id="DejaVuSans-34" d="M 2419 4116 
L 825 1625 
L 2419 1625 
L 2419 4116 
z
M 2253 4666 
L 3047 4666 
L 3047 1625 
L 3713 1625 
L 3713 1100 
L 3047 1100 
L 3047 0 
L 2419 0 
L 2419 1100 
L 313 1100 
L 313 1709 
L 2253 4666 
z
" transform="scale(0.015625)"/>
       </defs>
       <use xlink:href="#DejaVuSans-34"/>
       <use xlink:href="#DejaVuSans-30" x="63.623047"/>
       <use xlink:href="#DejaVuSans-30" x="127.246094"/>
       <use xlink:href="#DejaVuSans-30" x="190.869141"/>
       <use xlink:href="#DejaVuSans-30" x="254.492188"/>
       <use xlink:href="#DejaVuSans-30" x="318.115234"/>
      </g>
     </g>
    </g>
    <g id="xtick_4">
     <g id="line2d_4">
      <g>
       <use xlink:href="#mc74ef09597" x="295.188099" y="71.04" style="stroke: #000000; stroke-width: 0.8"/>
      </g>
     </g>
     <g id="text_4">
      <!-- 450000 -->
      <g transform="translate(276.100599 85.638437)scale(0.1 -0.1)">
       <use xlink:href="#DejaVuSans-34"/>
       <use xlink:href="#DejaVuSans-35" x="63.623047"/>
       <use xlink:href="#DejaVuSans-30" x="127.246094"/>
       <use xlink:href="#DejaVuSans-30" x="190.869141"/>
       <use xlink:href="#DejaVuSans-30" x="254.492188"/>
       <use xlink:href="#DejaVuSans-30" x="318.115234"/>
      </g>
     </g>
    </g>
    <g id="xtick_5">
     <g id="line2d_5">
      <g>
       <use xlink:href="#mc74ef09597" x="368.973223" y="71.04" style="stroke: #000000; stroke-width: 0.8"/>
      </g>
     </g>
     <g id="text_5">
      <!-- 500000 -->
      <g transform="translate(349.885723 85.638437)scale(0.1 -0.1)">
       <use xlink:href="#DejaVuSans-35"/>
       <use xlink:href="#DejaVuSans-30" x="63.623047"/>
       <use xlink:href="#DejaVuSans-30" x="127.246094"/>
       <use xlink:href="#DejaVuSans-30" x="190.869141"/>
       <use xlink:href="#DejaVuSans-30" x="254.492188"/>
       <use xlink:href="#DejaVuSans-30" x="318.115234"/>
      </g>
     </g>
    </g>
   </g>
   <g id="matplotlib.axis_2">
    <g id="ytick_1">
     <g id="line2d_6">
      <defs>
       <path id="m55f6bbfa66" d="M 0 0 
L -3.5 0 
" style="stroke: #000000; stroke-width: 0.8"/>
      </defs>
      <g>
       <use xlink:href="#m55f6bbfa66" x="57.6" y="63.888176" style="stroke: #000000; stroke-width: 0.8"/>
      </g>
     </g>
     <g id="text_6">
      <!-- 15 -->
      <g transform="translate(37.875 67.687394)scale(0.1 -0.1)">
       <defs>
        <path id="DejaVuSans-31" d="M 794 531 
L 1825 531 
L 1825 4091 
L 703 3866 
L 703 4441 
L 1819 4666 
L 2450 4666 
L 2450 531 
L 3481 531 
L 3481 0 
L 794 0 
L 794 531 
z
" transform="scale(0.015625)"/>
       </defs>
       <use xlink:href="#DejaVuSans-31"/>
       <use xlink:href="#DejaVuSans-35" x="63.623047"/>
      </g>
     </g>
    </g>
    <g id="ytick_2">
     <g id="line2d_7">
      <g>
       <use xlink:href="#m55f6bbfa66" x="57.6" y="54.240627" style="stroke: #000000; stroke-width: 0.8"/>
      </g>
     </g>
     <g id="text_7">
      <!-- 20 -->
      <g transform="translate(37.875 58.039846)scale(0.1 -0.1)">
       <defs>
        <path id="DejaVuSans-32" d="M 1228 531 
L 3431 531 
L 3431 0 
L 469 0 
L 469 531 
Q 828 903 1448 1529 
Q 2069 2156 2228 2338 
Q 2531 2678 2651 2914 
Q 2772 3150 2772 3378 
Q 2772 3750 2511 3984 
Q 2250 4219 1831 4219 
Q 1534 4219 1204 4116 
Q 875 4013 500 3803 
L 500 4441 
Q 881 4594 1212 4672 
Q 1544 4750 1819 4750 
Q 2544 4750 2975 4387 
Q 3406 4025 3406 3419 
Q 3406 3131 3298 2873 
Q 3191 2616 2906 2266 
Q 2828 2175 2409 1742 
Q 1991 1309 1228 531 
z
" transform="scale(0.015625)"/>
       </defs>
       <use xlink:href="#DejaVuSans-32"/>
       <use xlink:href="#DejaVuSans-30" x="63.623047"/>
      </g>
     </g>
    </g>
    <g id="ytick_3">
     <g id="line2d_8">
      <g>
       <use xlink:href="#m55f6bbfa66" x="57.6" y="44.593078" style="stroke: #000000; stroke-width: 0.8"/>
      </g>
     </g>
     <g id="text_8">
      <!-- 25 -->
      <g transform="translate(37.875 48.392297)scale(0.1 -0.1)">
       <use xlink:href="#DejaVuSans-32"/>
       <use xlink:href="#DejaVuSans-35" x="63.623047"/>
      </g>
     </g>
    </g>
   </g>
   <g id="line2d_9">
    <path d="M 73.832727 62.342638 
L 75.30843 52.828226 
L 76.784132 55.072246 
L 78.259835 58.475901 
L 79.735537 56.893703 
L 81.21124 53.225705 
L 82.686942 53.300956 
L 84.162645 58.703583 
L 85.638347 57.897048 
L 87.11405 58.049479 
L 88.589752 56.426762 
L 90.065455 64.432297 
L 91.541157 64.771891 
L 93.01686 63.839938 
L 94.492562 64.889591 
L 95.968264 66.691753 
L 97.443967 65.273564 
L 98.919669 63.36142 
L 100.395372 64.073409 
L 101.871074 66.317428 
L 103.346777 67.09888 
L 104.822479 60.521181 
L 106.298182 60.862704 
L 107.773884 59.475387 
L 109.249587 56.967024 
L 110.725289 58.958278 
L 112.200992 59.741659 
L 113.676694 58.340835 
L 115.152397 61.424192 
L 116.628099 59.469598 
L 118.103802 58.641839 
L 119.579504 56.303273 
L 121.055207 56.893703 
L 122.530909 59.867077 
L 124.006612 56.557968 
L 125.482314 58.726737 
L 126.958017 57.520794 
L 128.433719 58.039832 
L 129.909421 56.675668 
L 131.385124 58.879168 
L 132.860826 56.752849 
L 135.812231 45.129482 
L 137.287934 51.182354 
L 138.763636 44.475378 
L 140.239339 51.305843 
L 141.715041 49.916596 
L 143.190744 42.816 
L 144.666446 50.927659 
L 146.142149 49.818191 
L 147.617851 48.359481 
L 149.093554 60.156504 
L 150.569256 60.247191 
L 152.044959 61.171426 
L 153.520661 60.322442 
L 154.996364 62.578039 
L 156.472066 54.840705 
L 157.947769 61.530315 
L 159.423471 61.497513 
L 160.899174 58.967926 
L 162.374876 61.732913 
L 163.850579 61.341223 
L 165.326281 63.376856 
L 166.801983 64.928181 
L 168.277686 60.858845 
L 169.753388 63.141455 
L 171.229091 61.815882 
L 172.704793 62.097591 
L 174.180496 63.710661 
L 175.656198 63.428952 
L 177.131901 62.236515 
L 178.607603 54.312019 
L 180.083306 51.411966 
L 183.034711 55.353954 
L 184.510413 56.204868 
L 185.986116 55.834402 
L 187.461818 57.148398 
L 188.937521 56.592699 
L 190.413223 55.531469 
L 191.888926 56.762496 
L 193.364628 57.329772 
L 194.840331 55.876851 
L 196.316033 57.387657 
L 199.267438 54.479886 
L 200.74314 58.446958 
L 202.218843 59.429079 
L 203.694545 58.194193 
L 205.170248 59.899879 
L 206.64595 58.130519 
L 208.121653 65.348815 
L 209.597355 65.848558 
L 211.073058 65.254269 
L 212.54876 66.041509 
L 214.024463 65.470374 
L 215.500165 67.033277 
L 216.975868 67.486711 
L 218.45157 65.898725 
L 219.927273 68.015397 
L 221.402975 68.368497 
L 222.878678 66.574053 
L 224.35438 66.022213 
L 225.830083 67.363223 
L 227.305785 65.057459 
L 228.781488 65.308295 
L 230.25719 64.057973 
L 231.732893 67.53109 
L 233.208595 65.590003 
L 234.684298 68.387792 
L 236.16 68.326048 
L 237.635702 63.841867 
L 239.111405 62.662937 
L 240.587107 63.565948 
L 242.06281 66.882775 
L 243.538512 66.305851 
L 245.014215 64.46317 
L 246.489917 65.705774 
L 247.96562 63.486838 
L 249.441322 64.34547 
L 250.917025 64.200756 
L 252.392727 62.516294 
L 253.86843 61.455064 
L 255.344132 62.197925 
L 256.819835 63.311252 
L 258.295537 63.380715 
L 259.77124 60.633093 
L 261.246942 62.950434 
L 262.722645 60.513463 
L 264.198347 63.567877 
L 265.67405 63.210918 
L 267.149752 67.228157 
L 268.625455 66.529675 
L 270.101157 67.969089 
L 271.57686 67.423038 
L 273.052562 67.789644 
L 274.528264 67.484782 
L 276.003967 69.022601 
L 277.479669 68.719668 
L 278.955372 68.102225 
L 280.431074 68.327978 
L 281.906777 62.161265 
L 283.382479 56.870549 
L 284.858182 59.782179 
L 286.333884 53.777545 
L 287.809587 57.41853 
L 289.285289 59.639395 
L 290.760992 61.308421 
L 292.236694 62.113027 
L 293.712397 57.702168 
L 295.188099 58.616755 
L 296.663802 55.92123 
L 299.615207 45.804811 
L 301.090909 56.563757 
L 302.566612 56.642867 
L 304.042314 51.425472 
L 305.518017 53.113793 
L 306.993719 54.481816 
L 308.469421 57.829515 
L 309.945124 55.392544 
L 311.420826 58.960208 
L 312.896529 61.374025 
L 314.372231 62.803791 
L 315.847934 58.032114 
L 317.323636 59.787968 
L 318.799339 59.170524 
L 320.275041 60.787454 
L 321.750744 61.063373 
L 323.226446 60.56363 
L 324.702149 61.621002 
L 326.177851 62.458409 
L 327.653554 62.006904 
L 329.129256 62.45455 
L 330.604959 61.264042 
L 332.080661 63.708731 
L 333.556364 60.469084 
L 335.032066 63.934484 
L 336.507769 61.343152 
L 337.983471 64.100422 
L 339.459174 62.716963 
L 340.934876 67.9633 
L 342.410579 68.681078 
L 343.886281 66.817171 
L 345.361983 67.895767 
L 346.837686 69.227129 
L 348.313388 67.224298 
L 349.789091 69.696 
L 351.264793 69.036108 
L 352.740496 68.144674 
L 354.216198 67.550385 
L 355.691901 64.480535 
L 357.167603 66.23253 
L 358.643306 65.290929 
L 360.119008 65.36811 
L 361.594711 65.559131 
L 363.070413 63.865022 
L 364.546116 64.528773 
L 366.021818 64.899239 
L 367.497521 66.132196 
L 368.973223 65.080613 
L 370.448926 62.618558 
L 371.924628 58.940913 
L 373.400331 60.438212 
L 374.876033 60.528899 
L 376.351736 58.325399 
L 377.827438 55.581636 
L 379.30314 62.570321 
L 380.778843 60.534688 
L 382.254545 59.926892 
L 383.730248 61.1174 
L 385.20595 67.880331 
L 386.681653 65.817685 
L 388.157355 66.537393 
L 389.633058 64.57894 
L 391.10876 68.366568 
L 392.584463 67.587046 
L 394.060165 67.093091 
L 395.535868 66.763145 
L 397.01157 67.745266 
L 398.487273 65.777166 
L 398.487273 65.777166 
" clip-path="url(#pec696e1e64)" style="fill: none; stroke: #00bfff; stroke-width: 1.5; stroke-linecap: square"/>
   </g>
   <g id="patch_3">
    <path d="M 57.6 71.04 
L 57.6 41.472 
" style="fill: none; stroke: #000000; stroke-width: 0.8; stroke-linejoin: miter; stroke-linecap: square"/>
   </g>
   <g id="patch_4">
    <path d="M 414.72 71.04 
L 414.72 41.472 
" style="fill: none; stroke: #000000; stroke-width: 0.8; stroke-linejoin: miter; stroke-linecap: square"/>
   </g>
   <g id="patch_5">
    <path d="M 57.6 71.04 
L 414.72 71.04 
" style="fill: none; stroke: #000000; stroke-width: 0.8; stroke-linejoin: miter; stroke-linecap: square"/>
   </g>
   <g id="patch_6">
    <path d="M 57.6 41.472 
L 414.72 41.472 
" style="fill: none; stroke: #000000; stroke-width: 0.8; stroke-linejoin: miter; stroke-linecap: square"/>
   </g>
   <g id="text_9">
    <!-- mse -->
    <g transform="translate(223.498125 35.472)scale(0.12 -0.12)">
     <defs>
      <path id="DejaVuSans-6d" d="M 3328 2828 
Q 3544 3216 3844 3400 
Q 4144 3584 4550 3584 
Q 5097 3584 5394 3201 
Q 5691 2819 5691 2113 
L 5691 0 
L 5113 0 
L 5113 2094 
Q 5113 2597 4934 2840 
Q 4756 3084 4391 3084 
Q 3944 3084 3684 2787 
Q 3425 2491 3425 1978 
L 3425 0 
L 2847 0 
L 2847 2094 
Q 2847 2600 2669 2842 
Q 2491 3084 2119 3084 
Q 1678 3084 1418 2786 
Q 1159 2488 1159 1978 
L 1159 0 
L 581 0 
L 581 3500 
L 1159 3500 
L 1159 2956 
Q 1356 3278 1631 3431 
Q 1906 3584 2284 3584 
Q 2666 3584 2933 3390 
Q 3200 3197 3328 2828 
z
" transform="scale(0.015625)"/>
      <path id="DejaVuSans-73" d="M 2834 3397 
L 2834 2853 
Q 2591 2978 2328 3040 
Q 2066 3103 1784 3103 
Q 1356 3103 1142 2972 
Q 928 2841 928 2578 
Q 928 2378 1081 2264 
Q 1234 2150 1697 2047 
L 1894 2003 
Q 2506 1872 2764 1633 
Q 3022 1394 3022 966 
Q 3022 478 2636 193 
Q 2250 -91 1575 -91 
Q 1294 -91 989 -36 
Q 684 19 347 128 
L 347 722 
Q 666 556 975 473 
Q 1284 391 1588 391 
Q 1994 391 2212 530 
Q 2431 669 2431 922 
Q 2431 1156 2273 1281 
Q 2116 1406 1581 1522 
L 1381 1569 
Q 847 1681 609 1914 
Q 372 2147 372 2553 
Q 372 3047 722 3315 
Q 1072 3584 1716 3584 
Q 2034 3584 2315 3537 
Q 2597 3491 2834 3397 
z
" transform="scale(0.015625)"/>
      <path id="DejaVuSans-65" d="M 3597 1894 
L 3597 1613 
L 953 1613 
Q 991 1019 1311 708 
Q 1631 397 2203 397 
Q 2534 397 2845 478 
Q 3156 559 3463 722 
L 3463 178 
Q 3153 47 2828 -22 
Q 2503 -91 2169 -91 
Q 1331 -91 842 396 
Q 353 884 353 1716 
Q 353 2575 817 3079 
Q 1281 3584 2069 3584 
Q 2775 3584 3186 3129 
Q 3597 2675 3597 1894 
z
M 3022 2063 
Q 3016 2534 2758 2815 
Q 2500 3097 2075 3097 
Q 1594 3097 1305 2825 
Q 1016 2553 972 2059 
L 3022 2063 
z
" transform="scale(0.015625)"/>
     </defs>
     <use xlink:href="#DejaVuSans-6d"/>
     <use xlink:href="#DejaVuSans-73" x="97.412109"/>
     <use xlink:href="#DejaVuSans-65" x="149.511719"/>
    </g>
   </g>
  </g>
  <g id="axes_2">
   <g id="patch_7">
    <path d="M 57.6 130.176 
L 414.72 130.176 
L 414.72 100.608 
L 57.6 100.608 
z
" style="fill: #ffffff"/>
   </g>
   <g id="matplotlib.axis_3">
    <g id="xtick_6">
     <g id="line2d_10">
      <g>
       <use xlink:href="#mc74ef09597" x="73.832727" y="130.176" style="stroke: #000000; stroke-width: 0.8"/>
      </g>
     </g>
     <g id="text_10">
      <!-- 300000 -->
      <g transform="translate(54.745227 144.774437)scale(0.1 -0.1)">
       <use xlink:href="#DejaVuSans-33"/>
       <use xlink:href="#DejaVuSans-30" x="63.623047"/>
       <use xlink:href="#DejaVuSans-30" x="127.246094"/>
       <use xlink:href="#DejaVuSans-30" x="190.869141"/>
       <use xlink:href="#DejaVuSans-30" x="254.492188"/>
       <use xlink:href="#DejaVuSans-30" x="318.115234"/>
      </g>
     </g>
    </g>
    <g id="xtick_7">
     <g id="line2d_11">
      <g>
       <use xlink:href="#mc74ef09597" x="147.617851" y="130.176" style="stroke: #000000; stroke-width: 0.8"/>
      </g>
     </g>
     <g id="text_11">
      <!-- 350000 -->
      <g transform="translate(128.530351 144.774437)scale(0.1 -0.1)">
       <use xlink:href="#DejaVuSans-33"/>
       <use xlink:href="#DejaVuSans-35" x="63.623047"/>
       <use xlink:href="#DejaVuSans-30" x="127.246094"/>
       <use xlink:href="#DejaVuSans-30" x="190.869141"/>
       <use xlink:href="#DejaVuSans-30" x="254.492188"/>
       <use xlink:href="#DejaVuSans-30" x="318.115234"/>
      </g>
     </g>
    </g>
    <g id="xtick_8">
     <g id="line2d_12">
      <g>
       <use xlink:href="#mc74ef09597" x="221.402975" y="130.176" style="stroke: #000000; stroke-width: 0.8"/>
      </g>
     </g>
     <g id="text_12">
      <!-- 400000 -->
      <g transform="translate(202.315475 144.774437)scale(0.1 -0.1)">
       <use xlink:href="#DejaVuSans-34"/>
       <use xlink:href="#DejaVuSans-30" x="63.623047"/>
       <use xlink:href="#DejaVuSans-30" x="127.246094"/>
       <use xlink:href="#DejaVuSans-30" x="190.869141"/>
       <use xlink:href="#DejaVuSans-30" x="254.492188"/>
       <use xlink:href="#DejaVuSans-30" x="318.115234"/>
      </g>
     </g>
    </g>
    <g id="xtick_9">
     <g id="line2d_13">
      <g>
       <use xlink:href="#mc74ef09597" x="295.188099" y="130.176" style="stroke: #000000; stroke-width: 0.8"/>
      </g>
     </g>
     <g id="text_13">
      <!-- 450000 -->
      <g transform="translate(276.100599 144.774437)scale(0.1 -0.1)">
       <use xlink:href="#DejaVuSans-34"/>
       <use xlink:href="#DejaVuSans-35" x="63.623047"/>
       <use xlink:href="#DejaVuSans-30" x="127.246094"/>
       <use xlink:href="#DejaVuSans-30" x="190.869141"/>
       <use xlink:href="#DejaVuSans-30" x="254.492188"/>
       <use xlink:href="#DejaVuSans-30" x="318.115234"/>
      </g>
     </g>
    </g>
    <g id="xtick_10">
     <g id="line2d_14">
      <g>
       <use xlink:href="#mc74ef09597" x="368.973223" y="130.176" style="stroke: #000000; stroke-width: 0.8"/>
      </g>
     </g>
     <g id="text_14">
      <!-- 500000 -->
      <g transform="translate(349.885723 144.774437)scale(0.1 -0.1)">
       <use xlink:href="#DejaVuSans-35"/>
       <use xlink:href="#DejaVuSans-30" x="63.623047"/>
       <use xlink:href="#DejaVuSans-30" x="127.246094"/>
       <use xlink:href="#DejaVuSans-30" x="190.869141"/>
       <use xlink:href="#DejaVuSans-30" x="254.492188"/>
       <use xlink:href="#DejaVuSans-30" x="318.115234"/>
      </g>
     </g>
    </g>
   </g>
   <g id="matplotlib.axis_4">
    <g id="ytick_4">
     <g id="line2d_15">
      <g>
       <use xlink:href="#m55f6bbfa66" x="57.6" y="126.549376" style="stroke: #000000; stroke-width: 0.8"/>
      </g>
     </g>
     <g id="text_15">
      <!-- 250 -->
      <g transform="translate(31.5125 130.348595)scale(0.1 -0.1)">
       <use xlink:href="#DejaVuSans-32"/>
       <use xlink:href="#DejaVuSans-35" x="63.623047"/>
       <use xlink:href="#DejaVuSans-30" x="127.246094"/>
      </g>
     </g>
    </g>
    <g id="ytick_5">
     <g id="line2d_16">
      <g>
       <use xlink:href="#m55f6bbfa66" x="57.6" y="114.260028" style="stroke: #000000; stroke-width: 0.8"/>
      </g>
     </g>
     <g id="text_16">
      <!-- 300 -->
      <g transform="translate(31.5125 118.059247)scale(0.1 -0.1)">
       <use xlink:href="#DejaVuSans-33"/>
       <use xlink:href="#DejaVuSans-30" x="63.623047"/>
       <use xlink:href="#DejaVuSans-30" x="127.246094"/>
      </g>
     </g>
    </g>
    <g id="ytick_6">
     <g id="line2d_17">
      <g>
       <use xlink:href="#m55f6bbfa66" x="57.6" y="101.97068" style="stroke: #000000; stroke-width: 0.8"/>
      </g>
     </g>
     <g id="text_17">
      <!-- 350 -->
      <g transform="translate(31.5125 105.769899)scale(0.1 -0.1)">
       <use xlink:href="#DejaVuSans-33"/>
       <use xlink:href="#DejaVuSans-35" x="63.623047"/>
       <use xlink:href="#DejaVuSans-30" x="127.246094"/>
      </g>
     </g>
    </g>
   </g>
   <g id="line2d_18">
    <path d="M 73.832727 122.800388 
L 75.30843 113.510378 
L 76.784132 114.504095 
L 78.259835 116.286542 
L 79.735537 115.182958 
L 81.21124 115.432678 
L 82.686942 112.369926 
L 84.162645 117.195953 
L 85.638347 116.490053 
L 87.11405 116.484154 
L 88.589752 115.420143 
L 90.065455 122.600317 
L 91.541157 123.020613 
L 93.01686 120.750525 
L 94.492562 123.264434 
L 95.968264 124.614541 
L 97.443967 123.21503 
L 98.919669 122.149544 
L 100.395372 123.851864 
L 101.871074 125.118651 
L 103.346777 125.467668 
L 104.822479 119.801295 
L 106.298182 118.744903 
L 107.773884 119.264988 
L 109.249587 116.175692 
L 110.725289 119.069833 
L 112.200992 119.097607 
L 113.676694 118.427346 
L 115.152397 120.682442 
L 116.628099 119.795396 
L 118.103802 118.312072 
L 119.579504 114.379726 
L 121.055207 113.648264 
L 122.530909 117.262316 
L 124.006612 114.631412 
L 125.482314 116.145214 
L 126.958017 115.508134 
L 128.433719 115.232116 
L 129.909421 114.597985 
L 131.385124 115.762032 
L 132.860826 115.067193 
L 134.336529 106.657346 
L 135.812231 103.1684 
L 137.287934 105.857555 
L 138.763636 102.25014 
L 140.239339 105.752604 
L 141.715041 105.947267 
L 143.190744 101.952 
L 144.666446 107.920445 
L 146.142149 105.720652 
L 147.617851 105.061697 
L 149.093554 112.973088 
L 150.569256 112.969892 
L 152.044959 113.517014 
L 153.520661 112.473403 
L 154.996364 114.622318 
L 156.472066 110.64401 
L 157.947769 114.375794 
L 160.899174 112.018943 
L 162.374876 114.35269 
L 163.850579 116.399358 
L 165.326281 117.819515 
L 166.801983 120.210285 
L 168.277686 116.00954 
L 169.753388 118.673379 
L 171.229091 116.327097 
L 172.704793 117.346375 
L 174.180496 118.023272 
L 175.656198 118.167058 
L 177.131901 117.136473 
L 178.607603 109.204682 
L 180.083306 108.049729 
L 181.559008 109.927295 
L 183.034711 110.345625 
L 184.510413 111.925789 
L 185.986116 112.034673 
L 187.461818 112.278002 
L 188.937521 110.497767 
L 190.413223 111.437165 
L 191.888926 112.806444 
L 193.364628 112.556233 
L 194.840331 110.242149 
L 196.316033 112.394505 
L 197.791736 110.442711 
L 199.267438 110.231826 
L 200.74314 113.736256 
L 202.218843 114.26519 
L 203.694545 111.650754 
L 205.170248 113.746825 
L 206.64595 113.322597 
L 208.121653 121.543188 
L 209.597355 122.993085 
L 212.54876 122.448912 
L 214.024463 122.617522 
L 215.500165 123.728479 
L 216.975868 123.94723 
L 218.45157 122.669875 
L 219.927273 124.672793 
L 221.402975 123.947721 
L 222.878678 123.555937 
L 224.35438 122.511342 
L 225.830083 123.240838 
L 227.305785 121.652071 
L 228.781488 120.269519 
L 230.25719 122.604004 
L 231.732893 123.861942 
L 233.208595 122.314467 
L 234.684298 124.954465 
L 236.16 124.783889 
L 237.635702 120.818608 
L 239.111405 120.668923 
L 240.587107 120.340552 
L 242.06281 123.640488 
L 243.538512 123.106393 
L 245.014215 122.033041 
L 246.489917 122.62293 
L 247.96562 121.764396 
L 249.441322 121.893434 
L 250.917025 121.724087 
L 252.392727 118.674362 
L 253.86843 117.213896 
L 255.344132 118.303224 
L 256.819835 120.603052 
L 258.295537 118.996097 
L 259.77124 116.805398 
L 261.246942 119.311688 
L 262.722645 117.182189 
L 264.198347 120.201682 
L 265.67405 120.298277 
L 267.149752 124.983222 
L 268.625455 125.047127 
L 270.101157 125.492001 
L 271.57686 124.208993 
L 273.052562 125.17002 
L 274.528264 124.868194 
L 276.003967 125.970548 
L 277.479669 126.376097 
L 278.955372 126.07722 
L 280.431074 125.126024 
L 281.906777 117.567338 
L 283.382479 113.795737 
L 284.858182 114.995177 
L 286.333884 113.652934 
L 287.809587 114.307219 
L 289.285289 115.655361 
L 290.760992 117.239949 
L 292.236694 117.954698 
L 293.712397 115.574743 
L 295.188099 115.996759 
L 296.663802 111.39833 
L 299.615207 108.539091 
L 301.090909 111.769715 
L 302.566612 112.992259 
L 304.042314 107.655732 
L 305.518017 109.596958 
L 306.993719 112.659709 
L 308.469421 113.680217 
L 309.945124 111.315992 
L 311.420826 115.707713 
L 312.896529 117.254697 
L 314.372231 119.318324 
L 315.847934 115.269721 
L 317.323636 116.484646 
L 318.799339 116.035593 
L 320.275041 117.733981 
L 321.750744 118.128961 
L 323.226446 117.73988 
L 324.702149 118.043918 
L 326.177851 120.465166 
L 327.653554 119.625066 
L 329.129256 119.13595 
L 332.080661 120.658846 
L 333.556364 119.248766 
L 335.032066 121.151649 
L 336.507769 119.859301 
L 337.983471 121.775702 
L 339.459174 120.135074 
L 340.934876 127.224307 
L 342.410579 128.649626 
L 343.886281 127.192847 
L 345.361983 127.283296 
L 346.837686 128.781614 
L 348.313388 126.094425 
L 349.789091 128.832 
L 351.264793 127.946184 
L 352.740496 128.068586 
L 354.216198 127.859175 
L 355.691901 120.651227 
L 357.167603 122.764257 
L 358.643306 122.171911 
L 360.119008 122.569102 
L 361.594711 122.295787 
L 363.070413 121.849438 
L 364.546116 120.749787 
L 366.021818 121.438728 
L 367.497521 123.396667 
L 368.973223 121.462815 
L 370.448926 118.006067 
L 371.924628 114.940121 
L 373.400331 115.605466 
L 374.876033 116.893881 
L 376.351736 113.660308 
L 377.827438 114.323441 
L 379.30314 118.744657 
L 380.778843 116.533558 
L 382.254545 116.682259 
L 383.730248 116.450727 
L 385.20595 122.879777 
L 386.681653 120.635496 
L 388.157355 122.065731 
L 389.633058 121.106178 
L 391.10876 124.605939 
L 392.584463 123.099019 
L 394.060165 122.76524 
L 395.535868 122.858639 
L 397.01157 123.794105 
L 398.487273 122.352318 
L 398.487273 122.352318 
" clip-path="url(#p1acf76c3c3)" style="fill: none; stroke: #ffa500; stroke-width: 1.5; stroke-linecap: square"/>
   </g>
   <g id="patch_8">
    <path d="M 57.6 130.176 
L 57.6 100.608 
" style="fill: none; stroke: #000000; stroke-width: 0.8; stroke-linejoin: miter; stroke-linecap: square"/>
   </g>
   <g id="patch_9">
    <path d="M 414.72 130.176 
L 414.72 100.608 
" style="fill: none; stroke: #000000; stroke-width: 0.8; stroke-linejoin: miter; stroke-linecap: square"/>
   </g>
   <g id="patch_10">
    <path d="M 57.6 130.176 
L 414.72 130.176 
" style="fill: none; stroke: #000000; stroke-width: 0.8; stroke-linejoin: miter; stroke-linecap: square"/>
   </g>
   <g id="patch_11">
    <path d="M 57.6 100.608 
L 414.72 100.608 
" style="fill: none; stroke: #000000; stroke-width: 0.8; stroke-linejoin: miter; stroke-linecap: square"/>
   </g>
   <g id="text_18">
    <!-- mae -->
    <g transform="translate(222.946875 94.608)scale(0.12 -0.12)">
     <defs>
      <path id="DejaVuSans-61" d="M 2194 1759 
Q 1497 1759 1228 1600 
Q 959 1441 959 1056 
Q 959 750 1161 570 
Q 1363 391 1709 391 
Q 2188 391 2477 730 
Q 2766 1069 2766 1631 
L 2766 1759 
L 2194 1759 
z
M 3341 1997 
L 3341 0 
L 2766 0 
L 2766 531 
Q 2569 213 2275 61 
Q 1981 -91 1556 -91 
Q 1019 -91 701 211 
Q 384 513 384 1019 
Q 384 1609 779 1909 
Q 1175 2209 1959 2209 
L 2766 2209 
L 2766 2266 
Q 2766 2663 2505 2880 
Q 2244 3097 1772 3097 
Q 1472 3097 1187 3025 
Q 903 2953 641 2809 
L 641 3341 
Q 956 3463 1253 3523 
Q 1550 3584 1831 3584 
Q 2591 3584 2966 3190 
Q 3341 2797 3341 1997 
z
" transform="scale(0.015625)"/>
     </defs>
     <use xlink:href="#DejaVuSans-6d"/>
     <use xlink:href="#DejaVuSans-61" x="97.412109"/>
     <use xlink:href="#DejaVuSans-65" x="158.691406"/>
    </g>
   </g>
  </g>
  <g id="axes_3">
   <g id="patch_12">
    <path d="M 57.6 189.312 
L 414.72 189.312 
L 414.72 159.744 
L 57.6 159.744 
z
" style="fill: #ffffff"/>
   </g>
   <g id="matplotlib.axis_5">
    <g id="xtick_11">
     <g id="line2d_19">
      <g>
       <use xlink:href="#mc74ef09597" x="73.832727" y="189.312" style="stroke: #000000; stroke-width: 0.8"/>
      </g>
     </g>
     <g id="text_19">
      <!-- 300000 -->
      <g transform="translate(54.745227 203.910437)scale(0.1 -0.1)">
       <use xlink:href="#DejaVuSans-33"/>
       <use xlink:href="#DejaVuSans-30" x="63.623047"/>
       <use xlink:href="#DejaVuSans-30" x="127.246094"/>
       <use xlink:href="#DejaVuSans-30" x="190.869141"/>
       <use xlink:href="#DejaVuSans-30" x="254.492188"/>
       <use xlink:href="#DejaVuSans-30" x="318.115234"/>
      </g>
     </g>
    </g>
    <g id="xtick_12">
     <g id="line2d_20">
      <g>
       <use xlink:href="#mc74ef09597" x="147.617851" y="189.312" style="stroke: #000000; stroke-width: 0.8"/>
      </g>
     </g>
     <g id="text_20">
      <!-- 350000 -->
      <g transform="translate(128.530351 203.910437)scale(0.1 -0.1)">
       <use xlink:href="#DejaVuSans-33"/>
       <use xlink:href="#DejaVuSans-35" x="63.623047"/>
       <use xlink:href="#DejaVuSans-30" x="127.246094"/>
       <use xlink:href="#DejaVuSans-30" x="190.869141"/>
       <use xlink:href="#DejaVuSans-30" x="254.492188"/>
       <use xlink:href="#DejaVuSans-30" x="318.115234"/>
      </g>
     </g>
    </g>
    <g id="xtick_13">
     <g id="line2d_21">
      <g>
       <use xlink:href="#mc74ef09597" x="221.402975" y="189.312" style="stroke: #000000; stroke-width: 0.8"/>
      </g>
     </g>
     <g id="text_21">
      <!-- 400000 -->
      <g transform="translate(202.315475 203.910437)scale(0.1 -0.1)">
       <use xlink:href="#DejaVuSans-34"/>
       <use xlink:href="#DejaVuSans-30" x="63.623047"/>
       <use xlink:href="#DejaVuSans-30" x="127.246094"/>
       <use xlink:href="#DejaVuSans-30" x="190.869141"/>
       <use xlink:href="#DejaVuSans-30" x="254.492188"/>
       <use xlink:href="#DejaVuSans-30" x="318.115234"/>
      </g>
     </g>
    </g>
    <g id="xtick_14">
     <g id="line2d_22">
      <g>
       <use xlink:href="#mc74ef09597" x="295.188099" y="189.312" style="stroke: #000000; stroke-width: 0.8"/>
      </g>
     </g>
     <g id="text_22">
      <!-- 450000 -->
      <g transform="translate(276.100599 203.910437)scale(0.1 -0.1)">
       <use xlink:href="#DejaVuSans-34"/>
       <use xlink:href="#DejaVuSans-35" x="63.623047"/>
       <use xlink:href="#DejaVuSans-30" x="127.246094"/>
       <use xlink:href="#DejaVuSans-30" x="190.869141"/>
       <use xlink:href="#DejaVuSans-30" x="254.492188"/>
       <use xlink:href="#DejaVuSans-30" x="318.115234"/>
      </g>
     </g>
    </g>
    <g id="xtick_15">
     <g id="line2d_23">
      <g>
       <use xlink:href="#mc74ef09597" x="368.973223" y="189.312" style="stroke: #000000; stroke-width: 0.8"/>
      </g>
     </g>
     <g id="text_23">
      <!-- 500000 -->
      <g transform="translate(349.885723 203.910437)scale(0.1 -0.1)">
       <use xlink:href="#DejaVuSans-35"/>
       <use xlink:href="#DejaVuSans-30" x="63.623047"/>
       <use xlink:href="#DejaVuSans-30" x="127.246094"/>
       <use xlink:href="#DejaVuSans-30" x="190.869141"/>
       <use xlink:href="#DejaVuSans-30" x="254.492188"/>
       <use xlink:href="#DejaVuSans-30" x="318.115234"/>
      </g>
     </g>
    </g>
   </g>
   <g id="matplotlib.axis_6">
    <g id="ytick_7">
     <g id="line2d_24">
      <g>
       <use xlink:href="#m55f6bbfa66" x="57.6" y="182.45332" style="stroke: #000000; stroke-width: 0.8"/>
      </g>
     </g>
     <g id="text_24">
      <!-- 30 -->
      <g transform="translate(37.875 186.252539)scale(0.1 -0.1)">
       <use xlink:href="#DejaVuSans-33"/>
       <use xlink:href="#DejaVuSans-30" x="63.623047"/>
      </g>
     </g>
    </g>
    <g id="ytick_8">
     <g id="line2d_25">
      <g>
       <use xlink:href="#m55f6bbfa66" x="57.6" y="160.784638" style="stroke: #000000; stroke-width: 0.8"/>
      </g>
     </g>
     <g id="text_25">
      <!-- 32 -->
      <g transform="translate(37.875 164.583857)scale(0.1 -0.1)">
       <use xlink:href="#DejaVuSans-33"/>
       <use xlink:href="#DejaVuSans-32" x="63.623047"/>
      </g>
     </g>
    </g>
   </g>
   <g id="line2d_26">
    <path d="M 73.832727 171.618979 
L 75.30843 182.37748 
L 76.784132 182.583333 
L 78.259835 178.238762 
L 79.735537 179.463042 
L 81.21124 180.340624 
L 82.686942 184.392667 
L 84.162645 177.209499 
L 85.638347 179.517214 
L 87.11405 179.040503 
L 88.589752 181.337383 
L 90.065455 171.163937 
L 91.541157 170.134675 
L 93.01686 171.109765 
L 94.492562 170.416368 
L 95.968264 168.57453 
L 97.443967 169.917988 
L 98.919669 172.388218 
L 100.395372 170.470539 
L 101.871074 167.350249 
L 103.346777 167.317746 
L 104.822479 176.386089 
L 106.298182 176.602776 
L 107.773884 177.198665 
L 109.249587 180.210612 
L 110.725289 177.783719 
L 112.200992 175.909378 
L 113.676694 179.008 
L 115.152397 174.219221 
L 116.628099 176.082728 
L 118.103802 177.415352 
L 119.579504 181.294046 
L 121.055207 180.719826 
L 122.530909 177.653707 
L 124.006612 180.199778 
L 125.482314 179.029669 
L 126.958017 180.199778 
L 128.433719 180.199778 
L 129.909421 180.026428 
L 131.385124 178.282099 
L 132.860826 180.839004 
L 135.812231 187.382946 
L 137.287934 184.934385 
L 138.763636 187.968 
L 140.239339 183.601761 
L 141.715041 184.208484 
L 143.190744 187.372111 
L 144.666446 181.684082 
L 146.142149 184.295158 
L 147.617851 185.021059 
L 149.093554 176.765291 
L 150.569256 175.931047 
L 152.044959 174.73927 
L 153.520661 175.671023 
L 154.996364 173.525823 
L 156.472066 178.336271 
L 157.947769 174.934288 
L 159.423471 174.49008 
L 160.899174 177.014481 
L 162.374876 174.511748 
L 163.850579 175.736029 
L 166.801983 171.250612 
L 168.277686 175.324324 
L 169.753388 173.309137 
L 171.229091 174.208387 
L 172.704793 174.511748 
L 174.180496 172.399052 
L 175.656198 172.572401 
L 177.131901 173.970031 
L 178.607603 181.424058 
L 180.083306 184.338496 
L 181.559008 181.131531 
L 183.034711 179.885582 
L 184.510413 178.087081 
L 185.986116 178.412111 
L 187.461818 177.783719 
L 188.937521 178.617964 
L 190.413223 178.856319 
L 191.888926 177.740382 
L 193.364628 178.347105 
L 194.840331 180.773998 
L 196.316033 179.549717 
L 197.791736 181.434892 
L 199.267438 182.334143 
L 200.74314 179.33303 
L 202.218843 176.884469 
L 203.694545 179.603889 
L 205.170248 176.765291 
L 206.64595 178.238762 
L 208.121653 168.617867 
L 209.597355 168.368677 
L 211.073058 169.452111 
L 212.54876 168.780382 
L 214.024463 167.870297 
L 215.500165 167.447758 
L 216.975868 165.075037 
L 218.45157 167.935304 
L 219.927273 165.909282 
L 221.402975 165.140044 
L 222.878678 166.721857 
L 224.35438 169.018738 
L 225.830083 166.75436 
L 227.305785 169.820479 
L 228.781488 170.849741 
L 230.25719 171.19644 
L 231.732893 166.125969 
L 233.208595 167.935304 
L 234.684298 163.709911 
L 236.16 163.926597 
L 237.635702 172.225703 
L 239.111405 172.030684 
L 240.587107 172.160696 
L 242.06281 168.206162 
L 243.538512 168.693707 
L 245.014215 170.882244 
L 246.489917 169.235424 
L 247.96562 171.608145 
L 249.441322 169.961325 
L 250.917025 171.52147 
L 252.392727 173.319971 
L 253.86843 175.627686 
L 255.344132 174.446742 
L 256.819835 171.575642 
L 258.295537 172.821591 
L 259.77124 176.21274 
L 261.246942 171.987347 
L 262.722645 175.627686 
L 264.198347 171.965678 
L 265.67405 171.889838 
L 267.149752 164.587492 
L 268.625455 166.039294 
L 270.101157 163.969935 
L 271.57686 165.389233 
L 273.052562 165.421736 
L 274.528264 163.742414 
L 278.955372 163.699076 
L 280.431074 162.973175 
L 281.906777 174.468411 
L 283.382479 178.141253 
L 284.858182 175.671023 
L 286.333884 177.556198 
L 287.809587 177.296174 
L 289.285289 175.541011 
L 290.760992 172.669911 
L 292.236694 173.287468 
L 293.712397 173.395811 
L 295.188099 175.410999 
L 296.663802 180.936513 
L 298.139504 183.233393 
L 299.615207 183.645098 
L 301.090909 179.65806 
L 302.566612 180.557311 
L 304.042314 184.858544 
L 305.518017 183.016706 
L 306.993719 179.939753 
L 308.469421 178.726307 
L 309.945124 181.012353 
L 311.420826 177.902897 
L 312.896529 175.248484 
L 314.372231 172.994941 
L 315.847934 177.577867 
L 317.323636 176.440261 
L 318.799339 177.556198 
L 320.275041 174.695932 
L 321.750744 174.100044 
L 323.226446 175.736029 
L 324.702149 174.641761 
L 326.177851 173.146622 
L 327.653554 174.468411 
L 329.129256 173.894191 
L 330.604959 175.400164 
L 332.080661 171.586476 
L 333.556364 173.970031 
L 335.032066 171.012256 
L 336.507769 174.024203 
L 337.983471 169.917988 
L 339.459174 172.929935 
L 340.934876 161.304687 
L 342.410579 161.781398 
L 343.886281 165.085872 
L 345.361983 161.402196 
L 346.837686 161.088 
L 348.313388 164.154119 
L 349.789091 161.272184 
L 351.264793 161.131337 
L 352.740496 161.521374 
L 354.216198 162.929838 
L 355.691901 171.543139 
L 357.167603 168.791216 
L 358.643306 169.668798 
L 361.594711 170.102172 
L 363.070413 171.1206 
L 364.546116 171.423961 
L 366.021818 170.665557 
L 367.497521 168.986235 
L 368.973223 170.503042 
L 370.448926 172.182365 
L 371.924628 175.226815 
L 373.400331 173.059947 
L 374.876033 172.832426 
L 376.351736 174.674264 
L 377.827438 175.866041 
L 379.30314 169.950491 
L 380.778843 172.420721 
L 382.254545 173.298302 
L 383.730248 173.384977 
L 385.20595 165.150878 
L 386.681653 169.376271 
L 388.157355 167.816126 
L 389.633058 171.109765 
L 391.10876 164.403308 
L 392.584463 166.255981 
L 394.060165 167.025219 
L 397.01157 165.800938 
L 398.487273 168.812885 
L 398.487273 168.812885 
" clip-path="url(#p7682fea25b)" style="fill: none; stroke: #008000; stroke-width: 1.5; stroke-linecap: square"/>
   </g>
   <g id="patch_13">
    <path d="M 57.6 189.312 
L 57.6 159.744 
" style="fill: none; stroke: #000000; stroke-width: 0.8; stroke-linejoin: miter; stroke-linecap: square"/>
   </g>
   <g id="patch_14">
    <path d="M 414.72 189.312 
L 414.72 159.744 
" style="fill: none; stroke: #000000; stroke-width: 0.8; stroke-linejoin: miter; stroke-linecap: square"/>
   </g>
   <g id="patch_15">
    <path d="M 57.6 189.312 
L 414.72 189.312 
" style="fill: none; stroke: #000000; stroke-width: 0.8; stroke-linejoin: miter; stroke-linecap: square"/>
   </g>
   <g id="patch_16">
    <path d="M 57.6 159.744 
L 414.72 159.744 
" style="fill: none; stroke: #000000; stroke-width: 0.8; stroke-linejoin: miter; stroke-linecap: square"/>
   </g>
   <g id="text_26">
    <!-- psnr -->
    <g transform="translate(222.95625 153.744)scale(0.12 -0.12)">
     <defs>
      <path id="DejaVuSans-70" d="M 1159 525 
L 1159 -1331 
L 581 -1331 
L 581 3500 
L 1159 3500 
L 1159 2969 
Q 1341 3281 1617 3432 
Q 1894 3584 2278 3584 
Q 2916 3584 3314 3078 
Q 3713 2572 3713 1747 
Q 3713 922 3314 415 
Q 2916 -91 2278 -91 
Q 1894 -91 1617 61 
Q 1341 213 1159 525 
z
M 3116 1747 
Q 3116 2381 2855 2742 
Q 2594 3103 2138 3103 
Q 1681 3103 1420 2742 
Q 1159 2381 1159 1747 
Q 1159 1113 1420 752 
Q 1681 391 2138 391 
Q 2594 391 2855 752 
Q 3116 1113 3116 1747 
z
" transform="scale(0.015625)"/>
      <path id="DejaVuSans-6e" d="M 3513 2113 
L 3513 0 
L 2938 0 
L 2938 2094 
Q 2938 2591 2744 2837 
Q 2550 3084 2163 3084 
Q 1697 3084 1428 2787 
Q 1159 2491 1159 1978 
L 1159 0 
L 581 0 
L 581 3500 
L 1159 3500 
L 1159 2956 
Q 1366 3272 1645 3428 
Q 1925 3584 2291 3584 
Q 2894 3584 3203 3211 
Q 3513 2838 3513 2113 
z
" transform="scale(0.015625)"/>
      <path id="DejaVuSans-72" d="M 2631 2963 
Q 2534 3019 2420 3045 
Q 2306 3072 2169 3072 
Q 1681 3072 1420 2755 
Q 1159 2438 1159 1844 
L 1159 0 
L 581 0 
L 581 3500 
L 1159 3500 
L 1159 2956 
Q 1341 3275 1631 3429 
Q 1922 3584 2338 3584 
Q 2397 3584 2469 3576 
Q 2541 3569 2628 3553 
L 2631 2963 
z
" transform="scale(0.015625)"/>
     </defs>
     <use xlink:href="#DejaVuSans-70"/>
     <use xlink:href="#DejaVuSans-73" x="63.476562"/>
     <use xlink:href="#DejaVuSans-6e" x="115.576172"/>
     <use xlink:href="#DejaVuSans-72" x="178.955078"/>
    </g>
   </g>
  </g>
  <g id="axes_4">
   <g id="patch_17">
    <path d="M 57.6 248.448 
L 414.72 248.448 
L 414.72 218.88 
L 57.6 218.88 
z
" style="fill: #ffffff"/>
   </g>
   <g id="matplotlib.axis_7">
    <g id="xtick_16">
     <g id="line2d_27">
      <g>
       <use xlink:href="#mc74ef09597" x="73.832727" y="248.448" style="stroke: #000000; stroke-width: 0.8"/>
      </g>
     </g>
     <g id="text_27">
      <!-- 300000 -->
      <g transform="translate(54.745227 263.046437)scale(0.1 -0.1)">
       <use xlink:href="#DejaVuSans-33"/>
       <use xlink:href="#DejaVuSans-30" x="63.623047"/>
       <use xlink:href="#DejaVuSans-30" x="127.246094"/>
       <use xlink:href="#DejaVuSans-30" x="190.869141"/>
       <use xlink:href="#DejaVuSans-30" x="254.492188"/>
       <use xlink:href="#DejaVuSans-30" x="318.115234"/>
      </g>
     </g>
    </g>
    <g id="xtick_17">
     <g id="line2d_28">
      <g>
       <use xlink:href="#mc74ef09597" x="147.617851" y="248.448" style="stroke: #000000; stroke-width: 0.8"/>
      </g>
     </g>
     <g id="text_28">
      <!-- 350000 -->
      <g transform="translate(128.530351 263.046437)scale(0.1 -0.1)">
       <use xlink:href="#DejaVuSans-33"/>
       <use xlink:href="#DejaVuSans-35" x="63.623047"/>
       <use xlink:href="#DejaVuSans-30" x="127.246094"/>
       <use xlink:href="#DejaVuSans-30" x="190.869141"/>
       <use xlink:href="#DejaVuSans-30" x="254.492188"/>
       <use xlink:href="#DejaVuSans-30" x="318.115234"/>
      </g>
     </g>
    </g>
    <g id="xtick_18">
     <g id="line2d_29">
      <g>
       <use xlink:href="#mc74ef09597" x="221.402975" y="248.448" style="stroke: #000000; stroke-width: 0.8"/>
      </g>
     </g>
     <g id="text_29">
      <!-- 400000 -->
      <g transform="translate(202.315475 263.046437)scale(0.1 -0.1)">
       <use xlink:href="#DejaVuSans-34"/>
       <use xlink:href="#DejaVuSans-30" x="63.623047"/>
       <use xlink:href="#DejaVuSans-30" x="127.246094"/>
       <use xlink:href="#DejaVuSans-30" x="190.869141"/>
       <use xlink:href="#DejaVuSans-30" x="254.492188"/>
       <use xlink:href="#DejaVuSans-30" x="318.115234"/>
      </g>
     </g>
    </g>
    <g id="xtick_19">
     <g id="line2d_30">
      <g>
       <use xlink:href="#mc74ef09597" x="295.188099" y="248.448" style="stroke: #000000; stroke-width: 0.8"/>
      </g>
     </g>
     <g id="text_30">
      <!-- 450000 -->
      <g transform="translate(276.100599 263.046437)scale(0.1 -0.1)">
       <use xlink:href="#DejaVuSans-34"/>
       <use xlink:href="#DejaVuSans-35" x="63.623047"/>
       <use xlink:href="#DejaVuSans-30" x="127.246094"/>
       <use xlink:href="#DejaVuSans-30" x="190.869141"/>
       <use xlink:href="#DejaVuSans-30" x="254.492188"/>
       <use xlink:href="#DejaVuSans-30" x="318.115234"/>
      </g>
     </g>
    </g>
    <g id="xtick_20">
     <g id="line2d_31">
      <g>
       <use xlink:href="#mc74ef09597" x="368.973223" y="248.448" style="stroke: #000000; stroke-width: 0.8"/>
      </g>
     </g>
     <g id="text_31">
      <!-- 500000 -->
      <g transform="translate(349.885723 263.046437)scale(0.1 -0.1)">
       <use xlink:href="#DejaVuSans-35"/>
       <use xlink:href="#DejaVuSans-30" x="63.623047"/>
       <use xlink:href="#DejaVuSans-30" x="127.246094"/>
       <use xlink:href="#DejaVuSans-30" x="190.869141"/>
       <use xlink:href="#DejaVuSans-30" x="254.492188"/>
       <use xlink:href="#DejaVuSans-30" x="318.115234"/>
      </g>
     </g>
    </g>
   </g>
   <g id="matplotlib.axis_8">
    <g id="ytick_9">
     <g id="line2d_32">
      <g>
       <use xlink:href="#m55f6bbfa66" x="57.6" y="242.968615" style="stroke: #000000; stroke-width: 0.8"/>
      </g>
     </g>
     <g id="text_32">
      <!-- 0.900 -->
      <g transform="translate(21.971875 246.767834)scale(0.1 -0.1)">
       <defs>
        <path id="DejaVuSans-2e" d="M 684 794 
L 1344 794 
L 1344 0 
L 684 0 
L 684 794 
z
" transform="scale(0.015625)"/>
        <path id="DejaVuSans-39" d="M 703 97 
L 703 672 
Q 941 559 1184 500 
Q 1428 441 1663 441 
Q 2288 441 2617 861 
Q 2947 1281 2994 2138 
Q 2813 1869 2534 1725 
Q 2256 1581 1919 1581 
Q 1219 1581 811 2004 
Q 403 2428 403 3163 
Q 403 3881 828 4315 
Q 1253 4750 1959 4750 
Q 2769 4750 3195 4129 
Q 3622 3509 3622 2328 
Q 3622 1225 3098 567 
Q 2575 -91 1691 -91 
Q 1453 -91 1209 -44 
Q 966 3 703 97 
z
M 1959 2075 
Q 2384 2075 2632 2365 
Q 2881 2656 2881 3163 
Q 2881 3666 2632 3958 
Q 2384 4250 1959 4250 
Q 1534 4250 1286 3958 
Q 1038 3666 1038 3163 
Q 1038 2656 1286 2365 
Q 1534 2075 1959 2075 
z
" transform="scale(0.015625)"/>
       </defs>
       <use xlink:href="#DejaVuSans-30"/>
       <use xlink:href="#DejaVuSans-2e" x="63.623047"/>
       <use xlink:href="#DejaVuSans-39" x="95.410156"/>
       <use xlink:href="#DejaVuSans-30" x="159.033203"/>
       <use xlink:href="#DejaVuSans-30" x="222.65625"/>
      </g>
     </g>
    </g>
    <g id="ytick_10">
     <g id="line2d_33">
      <g>
       <use xlink:href="#m55f6bbfa66" x="57.6" y="230.045538" style="stroke: #000000; stroke-width: 0.8"/>
      </g>
     </g>
     <g id="text_33">
      <!-- 0.925 -->
      <g transform="translate(21.971875 233.844757)scale(0.1 -0.1)">
       <use xlink:href="#DejaVuSans-30"/>
       <use xlink:href="#DejaVuSans-2e" x="63.623047"/>
       <use xlink:href="#DejaVuSans-39" x="95.410156"/>
       <use xlink:href="#DejaVuSans-32" x="159.033203"/>
       <use xlink:href="#DejaVuSans-35" x="222.65625"/>
      </g>
     </g>
    </g>
   </g>
   <g id="line2d_34">
    <path d="M 73.832727 229.011692 
L 75.30843 233.664 
L 76.784132 233.664 
L 78.259835 232.113231 
L 79.735537 233.664 
L 81.21124 233.147077 
L 82.686942 235.214769 
L 84.162645 232.630154 
L 87.11405 232.630154 
L 88.589752 233.147077 
L 90.065455 226.944 
L 93.01686 227.977846 
L 94.492562 226.944 
L 95.968264 226.427077 
L 98.919669 228.494769 
L 100.395372 226.427077 
L 103.346777 225.393231 
L 104.822479 229.528615 
L 106.298182 229.528615 
L 107.773884 230.045538 
L 109.249587 232.113231 
L 110.725289 230.045538 
L 112.200992 229.528615 
L 113.676694 230.045538 
L 115.152397 228.494769 
L 116.628099 230.045538 
L 118.103802 231.079385 
L 119.579504 236.765538 
L 121.055207 236.765538 
L 122.530909 235.214769 
L 124.006612 235.731692 
L 125.482314 234.697846 
L 126.958017 234.697846 
L 128.433719 235.214769 
L 129.909421 236.765538 
L 131.385124 235.214769 
L 132.860826 236.248615 
L 134.336529 243.485538 
L 135.812231 247.104 
L 137.287934 244.002462 
L 138.763636 246.587077 
L 140.239339 244.519385 
L 141.715041 244.519385 
L 143.190744 246.587077 
L 144.666446 242.968615 
L 146.142149 245.553231 
L 147.617851 246.070154 
L 149.093554 238.833231 
L 150.569256 238.833231 
L 152.044959 237.799385 
L 153.520661 238.833231 
L 154.996364 238.833231 
L 156.472066 240.384 
L 157.947769 238.316308 
L 159.423471 238.833231 
L 160.899174 239.867077 
L 162.374876 237.799385 
L 163.850579 235.214769 
L 165.326281 234.180923 
L 166.801983 232.113231 
L 168.277686 235.731692 
L 169.753388 234.180923 
L 171.229091 235.731692 
L 172.704793 234.697846 
L 175.656198 233.664 
L 177.131901 235.214769 
L 178.607603 239.867077 
L 180.083306 240.900923 
L 181.559008 239.350154 
L 183.034711 239.350154 
L 184.510413 237.799385 
L 185.986116 237.282462 
L 187.461818 237.799385 
L 188.937521 237.282462 
L 190.413223 237.799385 
L 191.888926 237.282462 
L 193.364628 238.833231 
L 194.840331 242.451692 
L 196.316033 240.384 
L 197.791736 240.384 
L 199.267438 241.934769 
L 200.74314 238.316308 
L 202.218843 238.833231 
L 203.694545 241.417846 
L 205.170248 238.833231 
L 206.64595 238.833231 
L 208.121653 230.045538 
L 209.597355 230.045538 
L 211.073058 229.528615 
L 212.54876 229.528615 
L 214.024463 230.562462 
L 215.500165 228.494769 
L 216.975868 228.494769 
L 218.45157 229.528615 
L 219.927273 227.460923 
L 221.402975 228.494769 
L 222.878678 228.494769 
L 224.35438 229.011692 
L 225.830083 228.494769 
L 227.305785 229.528615 
L 228.781488 229.011692 
L 230.25719 229.011692 
L 231.732893 227.977846 
L 233.208595 228.494769 
L 234.684298 226.427077 
L 237.635702 228.494769 
L 239.111405 227.460923 
L 240.587107 229.011692 
L 242.06281 225.910154 
L 243.538512 225.910154 
L 245.014215 227.460923 
L 246.489917 226.944 
L 247.96562 227.460923 
L 249.441322 226.427077 
L 250.917025 227.977846 
L 252.392727 231.596308 
L 253.86843 232.113231 
L 255.344132 232.113231 
L 256.819835 229.528615 
L 258.295537 231.079385 
L 259.77124 234.180923 
L 261.246942 230.562462 
L 262.722645 231.596308 
L 264.198347 230.562462 
L 265.67405 230.562462 
L 267.149752 224.359385 
L 268.625455 224.876308 
L 270.101157 224.359385 
L 271.57686 225.393231 
L 273.052562 223.842462 
L 274.528264 224.876308 
L 276.003967 224.359385 
L 277.479669 223.325538 
L 278.955372 223.842462 
L 280.431074 224.876308 
L 281.906777 234.180923 
L 283.382479 236.248615 
L 284.858182 235.731692 
L 286.333884 236.248615 
L 287.809587 235.214769 
L 289.285289 234.697846 
L 290.760992 233.147077 
L 292.236694 233.664 
L 293.712397 234.697846 
L 295.188099 235.214769 
L 296.663802 238.316308 
L 298.139504 238.316308 
L 299.615207 240.384 
L 301.090909 238.316308 
L 302.566612 237.282462 
L 304.042314 241.934769 
L 305.518017 239.867077 
L 306.993719 237.282462 
L 308.469421 237.282462 
L 309.945124 237.799385 
L 311.420826 234.180923 
L 312.896529 232.630154 
L 314.372231 231.596308 
L 315.847934 234.180923 
L 317.323636 232.630154 
L 318.799339 233.664 
L 321.750744 231.596308 
L 323.226446 232.630154 
L 324.702149 233.147077 
L 326.177851 229.528615 
L 327.653554 230.562462 
L 329.129256 230.562462 
L 330.604959 231.079385 
L 332.080661 230.562462 
L 333.556364 231.596308 
L 335.032066 229.528615 
L 336.507769 230.562462 
L 337.983471 229.528615 
L 339.459174 231.079385 
L 340.934876 221.774769 
L 342.410579 220.224 
L 343.886281 221.257846 
L 345.361983 221.774769 
L 346.837686 220.740923 
L 348.313388 222.291692 
L 349.789091 220.740923 
L 354.216198 222.291692 
L 355.691901 230.562462 
L 357.167603 229.011692 
L 358.643306 229.011692 
L 360.119008 228.494769 
L 361.594711 229.011692 
L 363.070413 229.011692 
L 364.546116 231.079385 
L 366.021818 229.528615 
L 367.497521 229.011692 
L 368.973223 229.528615 
L 371.924628 233.664 
L 373.400331 233.664 
L 374.876033 232.630154 
L 376.351736 235.731692 
L 377.827438 234.180923 
L 379.30314 231.079385 
L 380.778843 232.630154 
L 382.254545 233.664 
L 383.730248 232.113231 
L 385.20595 228.494769 
L 386.681653 230.045538 
L 388.157355 229.011692 
L 389.633058 229.528615 
L 391.10876 226.944 
L 392.584463 229.011692 
L 395.535868 229.011692 
L 397.01157 227.460923 
L 398.487273 229.011692 
L 398.487273 229.011692 
" clip-path="url(#p18f54bbe51)" style="fill: none; stroke: #ff0000; stroke-width: 1.5; stroke-linecap: square"/>
   </g>
   <g id="patch_18">
    <path d="M 57.6 248.448 
L 57.6 218.88 
" style="fill: none; stroke: #000000; stroke-width: 0.8; stroke-linejoin: miter; stroke-linecap: square"/>
   </g>
   <g id="patch_19">
    <path d="M 414.72 248.448 
L 414.72 218.88 
" style="fill: none; stroke: #000000; stroke-width: 0.8; stroke-linejoin: miter; stroke-linecap: square"/>
   </g>
   <g id="patch_20">
    <path d="M 57.6 248.448 
L 414.72 248.448 
" style="fill: none; stroke: #000000; stroke-width: 0.8; stroke-linejoin: miter; stroke-linecap: square"/>
   </g>
   <g id="patch_21">
    <path d="M 57.6 218.88 
L 414.72 218.88 
" style="fill: none; stroke: #000000; stroke-width: 0.8; stroke-linejoin: miter; stroke-linecap: square"/>
   </g>
   <g id="text_34">
    <!-- ssim -->
    <g transform="translate(222.3975 212.88)scale(0.12 -0.12)">
     <defs>
      <path id="DejaVuSans-69" d="M 603 3500 
L 1178 3500 
L 1178 0 
L 603 0 
L 603 3500 
z
M 603 4863 
L 1178 4863 
L 1178 4134 
L 603 4134 
L 603 4863 
z
" transform="scale(0.015625)"/>
     </defs>
     <use xlink:href="#DejaVuSans-73"/>
     <use xlink:href="#DejaVuSans-73" x="52.099609"/>
     <use xlink:href="#DejaVuSans-69" x="104.199219"/>
     <use xlink:href="#DejaVuSans-6d" x="131.982422"/>
    </g>
   </g>
  </g>
  <g id="axes_5">
   <g id="patch_22">
    <path d="M 57.6 307.584 
L 414.72 307.584 
L 414.72 278.016 
L 57.6 278.016 
z
" style="fill: #ffffff"/>
   </g>
   <g id="matplotlib.axis_9">
    <g id="xtick_21">
     <g id="line2d_35">
      <g>
       <use xlink:href="#mc74ef09597" x="73.832727" y="307.584" style="stroke: #000000; stroke-width: 0.8"/>
      </g>
     </g>
     <g id="text_35">
      <!-- 300000 -->
      <g transform="translate(54.745227 322.182437)scale(0.1 -0.1)">
       <use xlink:href="#DejaVuSans-33"/>
       <use xlink:href="#DejaVuSans-30" x="63.623047"/>
       <use xlink:href="#DejaVuSans-30" x="127.246094"/>
       <use xlink:href="#DejaVuSans-30" x="190.869141"/>
       <use xlink:href="#DejaVuSans-30" x="254.492188"/>
       <use xlink:href="#DejaVuSans-30" x="318.115234"/>
      </g>
     </g>
    </g>
    <g id="xtick_22">
     <g id="line2d_36">
      <g>
       <use xlink:href="#mc74ef09597" x="147.617851" y="307.584" style="stroke: #000000; stroke-width: 0.8"/>
      </g>
     </g>
     <g id="text_36">
      <!-- 350000 -->
      <g transform="translate(128.530351 322.182437)scale(0.1 -0.1)">
       <use xlink:href="#DejaVuSans-33"/>
       <use xlink:href="#DejaVuSans-35" x="63.623047"/>
       <use xlink:href="#DejaVuSans-30" x="127.246094"/>
       <use xlink:href="#DejaVuSans-30" x="190.869141"/>
       <use xlink:href="#DejaVuSans-30" x="254.492188"/>
       <use xlink:href="#DejaVuSans-30" x="318.115234"/>
      </g>
     </g>
    </g>
    <g id="xtick_23">
     <g id="line2d_37">
      <g>
       <use xlink:href="#mc74ef09597" x="221.402975" y="307.584" style="stroke: #000000; stroke-width: 0.8"/>
      </g>
     </g>
     <g id="text_37">
      <!-- 400000 -->
      <g transform="translate(202.315475 322.182437)scale(0.1 -0.1)">
       <use xlink:href="#DejaVuSans-34"/>
       <use xlink:href="#DejaVuSans-30" x="63.623047"/>
       <use xlink:href="#DejaVuSans-30" x="127.246094"/>
       <use xlink:href="#DejaVuSans-30" x="190.869141"/>
       <use xlink:href="#DejaVuSans-30" x="254.492188"/>
       <use xlink:href="#DejaVuSans-30" x="318.115234"/>
      </g>
     </g>
    </g>
    <g id="xtick_24">
     <g id="line2d_38">
      <g>
       <use xlink:href="#mc74ef09597" x="295.188099" y="307.584" style="stroke: #000000; stroke-width: 0.8"/>
      </g>
     </g>
     <g id="text_38">
      <!-- 450000 -->
      <g transform="translate(276.100599 322.182437)scale(0.1 -0.1)">
       <use xlink:href="#DejaVuSans-34"/>
       <use xlink:href="#DejaVuSans-35" x="63.623047"/>
       <use xlink:href="#DejaVuSans-30" x="127.246094"/>
       <use xlink:href="#DejaVuSans-30" x="190.869141"/>
       <use xlink:href="#DejaVuSans-30" x="254.492188"/>
       <use xlink:href="#DejaVuSans-30" x="318.115234"/>
      </g>
     </g>
    </g>
    <g id="xtick_25">
     <g id="line2d_39">
      <g>
       <use xlink:href="#mc74ef09597" x="368.973223" y="307.584" style="stroke: #000000; stroke-width: 0.8"/>
      </g>
     </g>
     <g id="text_39">
      <!-- 500000 -->
      <g transform="translate(349.885723 322.182437)scale(0.1 -0.1)">
       <use xlink:href="#DejaVuSans-35"/>
       <use xlink:href="#DejaVuSans-30" x="63.623047"/>
       <use xlink:href="#DejaVuSans-30" x="127.246094"/>
       <use xlink:href="#DejaVuSans-30" x="190.869141"/>
       <use xlink:href="#DejaVuSans-30" x="254.492188"/>
       <use xlink:href="#DejaVuSans-30" x="318.115234"/>
      </g>
     </g>
    </g>
   </g>
   <g id="matplotlib.axis_10">
    <g id="ytick_11">
     <g id="line2d_40">
      <g>
       <use xlink:href="#m55f6bbfa66" x="57.6" y="305.033678" style="stroke: #000000; stroke-width: 0.8"/>
      </g>
     </g>
     <g id="text_40">
      <!-- 15 -->
      <g transform="translate(37.875 308.832897)scale(0.1 -0.1)">
       <use xlink:href="#DejaVuSans-31"/>
       <use xlink:href="#DejaVuSans-35" x="63.623047"/>
      </g>
     </g>
    </g>
    <g id="ytick_12">
     <g id="line2d_41">
      <g>
       <use xlink:href="#m55f6bbfa66" x="57.6" y="291.921483" style="stroke: #000000; stroke-width: 0.8"/>
      </g>
     </g>
     <g id="text_41">
      <!-- 20 -->
      <g transform="translate(37.875 295.720702)scale(0.1 -0.1)">
       <use xlink:href="#DejaVuSans-32"/>
       <use xlink:href="#DejaVuSans-30" x="63.623047"/>
      </g>
     </g>
    </g>
    <g id="ytick_13">
     <g id="line2d_42">
      <g>
       <use xlink:href="#m55f6bbfa66" x="57.6" y="278.809288" style="stroke: #000000; stroke-width: 0.8"/>
      </g>
     </g>
     <g id="text_42">
      <!-- 25 -->
      <g transform="translate(37.875 282.608507)scale(0.1 -0.1)">
       <use xlink:href="#DejaVuSans-32"/>
       <use xlink:href="#DejaVuSans-35" x="63.623047"/>
      </g>
     </g>
    </g>
   </g>
   <g id="line2d_43">
    <path d="M 73.832727 286.487789 
L 75.30843 288.91879 
L 76.784132 288.827005 
L 78.259835 290.96167 
L 79.735537 289.299044 
L 81.21124 290.038572 
L 82.686942 289.511461 
L 84.162645 286.841819 
L 85.638347 288.777179 
L 87.11405 285.905608 
L 90.065455 298.107817 
L 91.541157 297.027372 
L 93.01686 297.926868 
L 94.492562 296.641873 
L 95.968264 297.606931 
L 98.919669 296.534353 
L 100.395372 298.008164 
L 101.871074 296.571067 
L 103.346777 299.518689 
L 104.822479 296.274732 
L 106.298182 297.043106 
L 107.773884 294.06926 
L 109.249587 293.607711 
L 110.725289 293.770302 
L 112.200992 297.200453 
L 113.676694 295.49849 
L 115.152397 296.738903 
L 116.628099 297.21881 
L 118.103802 291.879524 
L 119.579504 285.556823 
L 121.055207 288.782423 
L 122.530909 287.075216 
L 124.006612 287.964222 
L 125.482314 286.02624 
L 126.958017 285.021846 
L 128.433719 286.773635 
L 129.909421 284.707153 
L 131.385124 286.222923 
L 132.860826 285.042825 
L 134.336529 285.087407 
L 135.812231 279.36 
L 137.287934 281.457951 
L 138.763636 280.374884 
L 140.239339 282.504304 
L 141.715041 283.115333 
L 143.190744 284.001717 
L 144.666446 284.641592 
L 146.142149 282.839977 
L 147.617851 284.166931 
L 149.093554 281.756909 
L 150.569256 286.621534 
L 152.044959 286.422228 
L 153.520661 285.226396 
L 154.996364 284.801561 
L 156.472066 281.455329 
L 157.947769 285.396855 
L 160.899174 283.264812 
L 162.374876 284.539317 
L 163.850579 283.689647 
L 165.326281 282.158142 
L 166.801983 285.39161 
L 168.277686 283.700137 
L 169.753388 284.033186 
L 171.229091 282.816375 
L 172.704793 285.396855 
L 174.180496 285.664343 
L 175.656198 286.146872 
L 177.131901 285.745639 
L 178.607603 296.366517 
L 180.083306 293.730966 
L 181.559008 296.303579 
L 183.034711 291.622525 
L 184.510413 297.200453 
L 185.986116 295.991508 
L 187.461818 294.926798 
L 188.937521 296.891005 
L 190.413223 295.842029 
L 191.888926 295.254603 
L 193.364628 289.613737 
L 194.840331 286.32782 
L 196.316033 289.283309 
L 199.267438 285.643364 
L 200.74314 290.195918 
L 202.218843 287.990447 
L 203.694545 287.211582 
L 205.170248 290.764987 
L 206.64595 290.869885 
L 208.121653 299.206619 
L 209.597355 296.851668 
L 211.073058 295.962661 
L 212.54876 297.800991 
L 214.024463 298.600835 
L 215.500165 296.838556 
L 216.975868 300.76697 
L 218.45157 297.132269 
L 219.927273 298.377928 
L 221.402975 297.203075 
L 222.878678 300.698786 
L 224.35438 297.929491 
L 225.830083 296.953943 
L 227.305785 299.725861 
L 230.25719 298.991579 
L 231.732893 300.211013 
L 233.208595 299.316761 
L 234.684298 299.303649 
L 236.16 298.805385 
L 237.635702 296.631383 
L 239.111405 298.123551 
L 240.587107 294.050903 
L 242.06281 297.231922 
L 243.538512 297.793124 
L 245.014215 298.233694 
L 246.489917 296.68121 
L 247.96562 297.44434 
L 249.441322 300.989877 
L 250.917025 299.460995 
L 252.392727 297.239789 
L 253.86843 297.612176 
L 255.344132 298.322857 
L 256.819835 299.177772 
L 258.295537 295.883988 
L 259.77124 295.768601 
L 261.246942 297.347309 
L 262.722645 297.525635 
L 264.198347 298.07897 
L 265.67405 298.970599 
L 267.149752 303.753928 
L 268.625455 303.635918 
L 270.101157 301.370131 
L 271.57686 304.582619 
L 273.052562 302.524004 
L 274.528264 303.57298 
L 276.003967 304.155161 
L 277.479669 305.214626 
L 278.955372 305.537186 
L 280.431074 302.786248 
L 281.906777 290.817436 
L 283.382479 290.416203 
L 284.858182 290.355887 
L 286.333884 290.051684 
L 287.809587 290.694181 
L 289.285289 290.020215 
L 290.760992 292.16537 
L 292.236694 292.178482 
L 293.712397 290.888242 
L 295.188099 290.7781 
L 296.663802 291.871657 
L 298.139504 295.637479 
L 299.615207 292.834092 
L 301.090909 291.564831 
L 302.566612 295.435551 
L 304.042314 293.476589 
L 305.518017 293.43463 
L 306.993719 294.945155 
L 308.469421 293.051754 
L 309.945124 294.147934 
L 311.420826 294.701268 
L 312.896529 291.449444 
L 314.372231 298.653284 
L 315.847934 295.196909 
L 317.323636 297.898021 
L 318.799339 295.409327 
L 320.275041 294.121709 
L 321.750744 297.410248 
L 323.226446 294.415422 
L 324.702149 295.834162 
L 326.177851 299.697015 
L 327.653554 298.149776 
L 329.129256 297.399758 
L 330.604959 298.944375 
L 332.080661 300.31591 
L 333.556364 299.185639 
L 335.032066 299.87534 
L 336.507769 300.176921 
L 337.983471 299.801912 
L 339.459174 298.818498 
L 340.934876 304.511813 
L 342.410579 305.857124 
L 343.886281 304.278416 
L 345.361983 306.24 
L 346.837686 304.653424 
L 348.313388 305.48736 
L 349.789091 305.524074 
L 351.264793 305.316901 
L 352.740496 305.521452 
L 354.216198 305.539809 
L 355.691901 295.645346 
L 357.167603 293.786037 
L 358.643306 294.811411 
L 360.119008 295.14446 
L 361.594711 296.075426 
L 364.546116 293.754568 
L 366.021818 295.356878 
L 367.497521 293.951251 
L 368.973223 293.605089 
L 370.448926 298.92864 
L 371.924628 298.503805 
L 373.400331 299.636699 
L 374.876033 298.569366 
L 376.351736 297.148004 
L 377.827438 299.704882 
L 379.30314 300.617491 
L 380.778843 299.2512 
L 382.254545 295.29394 
L 383.730248 299.697015 
L 385.20595 298.944375 
L 386.681653 297.612176 
L 388.157355 295.978396 
L 389.633058 297.457452 
L 391.10876 299.592117 
L 392.584463 298.818498 
L 394.060165 297.00377 
L 395.535868 299.655056 
L 397.01157 299.796667 
L 398.487273 299.398057 
L 398.487273 299.398057 
" clip-path="url(#p83b43c2fc7)" style="fill: none; stroke: #7fffd4; stroke-width: 1.5; stroke-linecap: square"/>
   </g>
   <g id="patch_23">
    <path d="M 57.6 307.584 
L 57.6 278.016 
" style="fill: none; stroke: #000000; stroke-width: 0.8; stroke-linejoin: miter; stroke-linecap: square"/>
   </g>
   <g id="patch_24">
    <path d="M 414.72 307.584 
L 414.72 278.016 
" style="fill: none; stroke: #000000; stroke-width: 0.8; stroke-linejoin: miter; stroke-linecap: square"/>
   </g>
   <g id="patch_25">
    <path d="M 57.6 307.584 
L 414.72 307.584 
" style="fill: none; stroke: #000000; stroke-width: 0.8; stroke-linejoin: miter; stroke-linecap: square"/>
   </g>
   <g id="patch_26">
    <path d="M 57.6 278.016 
L 414.72 278.016 
" style="fill: none; stroke: #000000; stroke-width: 0.8; stroke-linejoin: miter; stroke-linecap: square"/>
   </g>
   <g id="text_43">
    <!-- lpips -->
    <g transform="translate(222.0825 272.016)scale(0.12 -0.12)">
     <defs>
      <path id="DejaVuSans-6c" d="M 603 4863 
L 1178 4863 
L 1178 0 
L 603 0 
L 603 4863 
z
" transform="scale(0.015625)"/>
     </defs>
     <use xlink:href="#DejaVuSans-6c"/>
     <use xlink:href="#DejaVuSans-70" x="27.783203"/>
     <use xlink:href="#DejaVuSans-69" x="91.259766"/>
     <use xlink:href="#DejaVuSans-70" x="119.042969"/>
     <use xlink:href="#DejaVuSans-73" x="182.519531"/>
    </g>
   </g>
  </g>
 </g>
 <defs>
  <clipPath id="pec696e1e64">
   <rect x="57.6" y="41.472" width="357.12" height="29.568"/>
  </clipPath>
  <clipPath id="p1acf76c3c3">
   <rect x="57.6" y="100.608" width="357.12" height="29.568"/>
  </clipPath>
  <clipPath id="p7682fea25b">
   <rect x="57.6" y="159.744" width="357.12" height="29.568"/>
  </clipPath>
  <clipPath id="p18f54bbe51">
   <rect x="57.6" y="218.88" width="357.12" height="29.568"/>
  </clipPath>
  <clipPath id="p83b43c2fc7">
   <rect x="57.6" y="278.016" width="357.12" height="29.568"/>
  </clipPath>
 </defs>
</svg>
