<?xml version="1.0" encoding="utf-8" standalone="no"?>
<!DOCTYPE svg PUBLIC "-//W3C//DTD SVG 1.1//EN"
  "http://www.w3.org/Graphics/SVG/1.1/DTD/svg11.dtd">
<svg xmlns:xlink="http://www.w3.org/1999/xlink" width="460.8pt" height="345.6pt" viewBox="0 0 460.8 345.6" xmlns="http://www.w3.org/2000/svg" version="1.1">
 <metadata>
  <rdf:RDF xmlns:dc="http://purl.org/dc/elements/1.1/" xmlns:cc="http://creativecommons.org/ns#" xmlns:rdf="http://www.w3.org/1999/02/22-rdf-syntax-ns#">
   <cc:Work>
    <dc:type rdf:resource="http://purl.org/dc/dcmitype/StillImage"/>
    <dc:date>2023-04-21T20:30:19.566225</dc:date>
    <dc:format>image/svg+xml</dc:format>
    <dc:creator>
     <cc:Agent>
      <dc:title>Matplotlib v3.5.1, https://matplotlib.org/</dc:title>
     </cc:Agent>
    </dc:creator>
   </cc:Work>
  </rdf:RDF>
 </metadata>
 <defs>
  <style type="text/css">*{stroke-linejoin: round; stroke-linecap: butt}</style>
 </defs>
 <g id="figure_1">
  <g id="patch_1">
   <path d="M 0 345.6 
L 460.8 345.6 
L 460.8 0 
L 0 0 
z
" style="fill: #ffffff"/>
  </g>
  <g id="axes_1">
   <g id="patch_2">
    <path d="M 57.6 71.04 
L 414.72 71.04 
L 414.72 41.472 
L 57.6 41.472 
z
" style="fill: #ffffff"/>
   </g>
   <g id="matplotlib.axis_1">
    <g id="xtick_1">
     <g id="line2d_1">
      <defs>
       <path id="m3be3dbfb34" d="M 0 0 
L 0 3.5 
" style="stroke: #000000; stroke-width: 0.8"/>
      </defs>
      <g>
       <use xlink:href="#m3be3dbfb34" x="95.843205" y="71.04" style="stroke: #000000; stroke-width: 0.8"/>
      </g>
     </g>
     <g id="text_1">
      <!-- 300000 -->
      <g transform="translate(76.755705 85.638437)scale(0.1 -0.1)">
       <defs>
        <path id="DejaVuSans-33" d="M 2597 2516 
Q 3050 2419 3304 2112 
Q 3559 1806 3559 1356 
Q 3559 666 3084 287 
Q 2609 -91 1734 -91 
Q 1441 -91 1130 -33 
Q 819 25 488 141 
L 488 750 
Q 750 597 1062 519 
Q 1375 441 1716 441 
Q 2309 441 2620 675 
Q 2931 909 2931 1356 
Q 2931 1769 2642 2001 
Q 2353 2234 1838 2234 
L 1294 2234 
L 1294 2753 
L 1863 2753 
Q 2328 2753 2575 2939 
Q 2822 3125 2822 3475 
Q 2822 3834 2567 4026 
Q 2313 4219 1838 4219 
Q 1578 4219 1281 4162 
Q 984 4106 628 3988 
L 628 4550 
Q 988 4650 1302 4700 
Q 1616 4750 1894 4750 
Q 2613 4750 3031 4423 
Q 3450 4097 3450 3541 
Q 3450 3153 3228 2886 
Q 3006 2619 2597 2516 
z
" transform="scale(0.015625)"/>
        <path id="DejaVuSans-30" d="M 2034 4250 
Q 1547 4250 1301 3770 
Q 1056 3291 1056 2328 
Q 1056 1369 1301 889 
Q 1547 409 2034 409 
Q 2525 409 2770 889 
Q 3016 1369 3016 2328 
Q 3016 3291 2770 3770 
Q 2525 4250 2034 4250 
z
M 2034 4750 
Q 2819 4750 3233 4129 
Q 3647 3509 3647 2328 
Q 3647 1150 3233 529 
Q 2819 -91 2034 -91 
Q 1250 -91 836 529 
Q 422 1150 422 2328 
Q 422 3509 836 4129 
Q 1250 4750 2034 4750 
z
" transform="scale(0.015625)"/>
       </defs>
       <use xlink:href="#DejaVuSans-33"/>
       <use xlink:href="#DejaVuSans-30" x="63.623047"/>
       <use xlink:href="#DejaVuSans-30" x="127.246094"/>
       <use xlink:href="#DejaVuSans-30" x="190.869141"/>
       <use xlink:href="#DejaVuSans-30" x="254.492188"/>
       <use xlink:href="#DejaVuSans-30" x="318.115234"/>
      </g>
     </g>
    </g>
    <g id="xtick_2">
     <g id="line2d_2">
      <g>
       <use xlink:href="#m3be3dbfb34" x="164.625948" y="71.04" style="stroke: #000000; stroke-width: 0.8"/>
      </g>
     </g>
     <g id="text_2">
      <!-- 350000 -->
      <g transform="translate(145.538448 85.638437)scale(0.1 -0.1)">
       <defs>
        <path id="DejaVuSans-35" d="M 691 4666 
L 3169 4666 
L 3169 4134 
L 1269 4134 
L 1269 2991 
Q 1406 3038 1543 3061 
Q 1681 3084 1819 3084 
Q 2600 3084 3056 2656 
Q 3513 2228 3513 1497 
Q 3513 744 3044 326 
Q 2575 -91 1722 -91 
Q 1428 -91 1123 -41 
Q 819 9 494 109 
L 494 744 
Q 775 591 1075 516 
Q 1375 441 1709 441 
Q 2250 441 2565 725 
Q 2881 1009 2881 1497 
Q 2881 1984 2565 2268 
Q 2250 2553 1709 2553 
Q 1456 2553 1204 2497 
Q 953 2441 691 2322 
L 691 4666 
z
" transform="scale(0.015625)"/>
       </defs>
       <use xlink:href="#DejaVuSans-33"/>
       <use xlink:href="#DejaVuSans-35" x="63.623047"/>
       <use xlink:href="#DejaVuSans-30" x="127.246094"/>
       <use xlink:href="#DejaVuSans-30" x="190.869141"/>
       <use xlink:href="#DejaVuSans-30" x="254.492188"/>
       <use xlink:href="#DejaVuSans-30" x="318.115234"/>
      </g>
     </g>
    </g>
    <g id="xtick_3">
     <g id="line2d_3">
      <g>
       <use xlink:href="#m3be3dbfb34" x="233.40869" y="71.04" style="stroke: #000000; stroke-width: 0.8"/>
      </g>
     </g>
     <g id="text_3">
      <!-- 400000 -->
      <g transform="translate(214.32119 85.638437)scale(0.1 -0.1)">
       <defs>
        <path id="DejaVuSans-34" d="M 2419 4116 
L 825 1625 
L 2419 1625 
L 2419 4116 
z
M 2253 4666 
L 3047 4666 
L 3047 1625 
L 3713 1625 
L 3713 1100 
L 3047 1100 
L 3047 0 
L 2419 0 
L 2419 1100 
L 313 1100 
L 313 1709 
L 2253 4666 
z
" transform="scale(0.015625)"/>
       </defs>
       <use xlink:href="#DejaVuSans-34"/>
       <use xlink:href="#DejaVuSans-30" x="63.623047"/>
       <use xlink:href="#DejaVuSans-30" x="127.246094"/>
       <use xlink:href="#DejaVuSans-30" x="190.869141"/>
       <use xlink:href="#DejaVuSans-30" x="254.492188"/>
       <use xlink:href="#DejaVuSans-30" x="318.115234"/>
      </g>
     </g>
    </g>
    <g id="xtick_4">
     <g id="line2d_4">
      <g>
       <use xlink:href="#m3be3dbfb34" x="302.191433" y="71.04" style="stroke: #000000; stroke-width: 0.8"/>
      </g>
     </g>
     <g id="text_4">
      <!-- 450000 -->
      <g transform="translate(283.103933 85.638437)scale(0.1 -0.1)">
       <use xlink:href="#DejaVuSans-34"/>
       <use xlink:href="#DejaVuSans-35" x="63.623047"/>
       <use xlink:href="#DejaVuSans-30" x="127.246094"/>
       <use xlink:href="#DejaVuSans-30" x="190.869141"/>
       <use xlink:href="#DejaVuSans-30" x="254.492188"/>
       <use xlink:href="#DejaVuSans-30" x="318.115234"/>
      </g>
     </g>
    </g>
    <g id="xtick_5">
     <g id="line2d_5">
      <g>
       <use xlink:href="#m3be3dbfb34" x="370.974176" y="71.04" style="stroke: #000000; stroke-width: 0.8"/>
      </g>
     </g>
     <g id="text_5">
      <!-- 500000 -->
      <g transform="translate(351.886676 85.638437)scale(0.1 -0.1)">
       <use xlink:href="#DejaVuSans-35"/>
       <use xlink:href="#DejaVuSans-30" x="63.623047"/>
       <use xlink:href="#DejaVuSans-30" x="127.246094"/>
       <use xlink:href="#DejaVuSans-30" x="190.869141"/>
       <use xlink:href="#DejaVuSans-30" x="254.492188"/>
       <use xlink:href="#DejaVuSans-30" x="318.115234"/>
      </g>
     </g>
    </g>
   </g>
   <g id="matplotlib.axis_2">
    <g id="ytick_1">
     <g id="line2d_6">
      <defs>
       <path id="me70c918e7d" d="M 0 0 
L -3.5 0 
" style="stroke: #000000; stroke-width: 0.8"/>
      </defs>
      <g>
       <use xlink:href="#me70c918e7d" x="57.6" y="63.888176" style="stroke: #000000; stroke-width: 0.8"/>
      </g>
     </g>
     <g id="text_6">
      <!-- 15 -->
      <g transform="translate(37.875 67.687394)scale(0.1 -0.1)">
       <defs>
        <path id="DejaVuSans-31" d="M 794 531 
L 1825 531 
L 1825 4091 
L 703 3866 
L 703 4441 
L 1819 4666 
L 2450 4666 
L 2450 531 
L 3481 531 
L 3481 0 
L 794 0 
L 794 531 
z
" transform="scale(0.015625)"/>
       </defs>
       <use xlink:href="#DejaVuSans-31"/>
       <use xlink:href="#DejaVuSans-35" x="63.623047"/>
      </g>
     </g>
    </g>
    <g id="ytick_2">
     <g id="line2d_7">
      <g>
       <use xlink:href="#me70c918e7d" x="57.6" y="54.240627" style="stroke: #000000; stroke-width: 0.8"/>
      </g>
     </g>
     <g id="text_7">
      <!-- 20 -->
      <g transform="translate(37.875 58.039846)scale(0.1 -0.1)">
       <defs>
        <path id="DejaVuSans-32" d="M 1228 531 
L 3431 531 
L 3431 0 
L 469 0 
L 469 531 
Q 828 903 1448 1529 
Q 2069 2156 2228 2338 
Q 2531 2678 2651 2914 
Q 2772 3150 2772 3378 
Q 2772 3750 2511 3984 
Q 2250 4219 1831 4219 
Q 1534 4219 1204 4116 
Q 875 4013 500 3803 
L 500 4441 
Q 881 4594 1212 4672 
Q 1544 4750 1819 4750 
Q 2544 4750 2975 4387 
Q 3406 4025 3406 3419 
Q 3406 3131 3298 2873 
Q 3191 2616 2906 2266 
Q 2828 2175 2409 1742 
Q 1991 1309 1228 531 
z
" transform="scale(0.015625)"/>
       </defs>
       <use xlink:href="#DejaVuSans-32"/>
       <use xlink:href="#DejaVuSans-30" x="63.623047"/>
      </g>
     </g>
    </g>
    <g id="ytick_3">
     <g id="line2d_8">
      <g>
       <use xlink:href="#me70c918e7d" x="57.6" y="44.593078" style="stroke: #000000; stroke-width: 0.8"/>
      </g>
     </g>
     <g id="text_8">
      <!-- 25 -->
      <g transform="translate(37.875 48.392297)scale(0.1 -0.1)">
       <use xlink:href="#DejaVuSans-32"/>
       <use xlink:href="#DejaVuSans-35" x="63.623047"/>
      </g>
     </g>
    </g>
   </g>
   <g id="line2d_9">
    <path d="M 73.832727 59.957764 
L 75.208382 57.096301 
L 76.584037 56.916857 
L 77.959692 59.569933 
L 79.335347 57.26031 
L 80.711002 55.415699 
L 82.086656 57.898978 
L 83.462311 56.324498 
L 84.837966 53.472682 
L 86.213621 57.841092 
L 87.589276 63.704872 
L 88.964931 58.938983 
L 90.340586 65.265846 
L 91.71624 63.386503 
L 93.091895 60.079324 
L 94.46755 62.80958 
L 95.843205 62.342638 
L 97.21886 52.828226 
L 98.594515 55.072246 
L 99.970169 58.475901 
L 101.345824 56.893703 
L 102.721479 53.225705 
L 104.097134 53.300956 
L 105.472789 58.703583 
L 106.848444 57.897048 
L 108.224099 58.049479 
L 109.599753 56.426762 
L 110.975408 64.432297 
L 112.351063 64.771891 
L 113.726718 63.839938 
L 115.102373 64.889591 
L 116.478028 66.691753 
L 117.853683 65.273564 
L 119.229337 63.36142 
L 120.604992 64.073409 
L 121.980647 66.317428 
L 123.356302 67.09888 
L 124.731957 60.521181 
L 126.107612 60.862704 
L 127.483267 59.475387 
L 128.858921 56.967024 
L 130.234576 58.958278 
L 131.610231 59.741659 
L 132.985886 58.340835 
L 134.361541 61.424192 
L 135.737196 59.469598 
L 137.112851 58.641839 
L 138.488505 56.303273 
L 139.86416 56.893703 
L 141.239815 59.867077 
L 142.61547 56.557968 
L 143.991125 58.726737 
L 145.36678 57.520794 
L 146.742435 58.039832 
L 148.118089 56.675668 
L 149.493744 58.879168 
L 150.869399 56.752849 
L 153.620709 45.129482 
L 154.996364 51.182354 
L 156.372018 44.475378 
L 157.747673 51.305843 
L 159.123328 49.916596 
L 160.498983 42.816 
L 161.874638 50.927659 
L 163.250293 49.818191 
L 164.625948 48.359481 
L 166.001602 60.156504 
L 167.377257 60.247191 
L 168.752912 61.171426 
L 170.128567 60.322442 
L 171.504222 62.578039 
L 172.879877 54.840705 
L 174.255532 61.530315 
L 175.631186 61.497513 
L 177.006841 58.967926 
L 178.382496 61.732913 
L 179.758151 61.341223 
L 181.133806 63.376856 
L 182.509461 64.928181 
L 183.885116 60.858845 
L 185.26077 63.141455 
L 186.636425 61.815882 
L 188.01208 62.097591 
L 189.387735 63.710661 
L 190.76339 63.428952 
L 192.139045 62.236515 
L 193.5147 54.312019 
L 194.890354 51.411966 
L 197.641664 55.353954 
L 199.017319 56.204868 
L 200.392974 55.834402 
L 201.768629 57.148398 
L 203.144284 56.592699 
L 204.519938 55.531469 
L 205.895593 56.762496 
L 207.271248 57.329772 
L 208.646903 55.876851 
L 210.022558 57.387657 
L 212.773867 54.479886 
L 214.149522 58.446958 
L 215.525177 59.429079 
L 216.900832 58.194193 
L 218.276487 59.899879 
L 219.652142 58.130519 
L 221.027797 65.348815 
L 222.403451 65.848558 
L 223.779106 65.254269 
L 225.154761 66.041509 
L 226.530416 65.470374 
L 227.906071 67.033277 
L 229.281726 67.486711 
L 230.657381 65.898725 
L 232.033035 68.015397 
L 233.40869 68.368497 
L 234.784345 66.574053 
L 236.16 66.022213 
L 237.535655 67.363223 
L 238.91131 65.057459 
L 240.286965 65.308295 
L 241.662619 64.057973 
L 243.038274 67.53109 
L 244.413929 65.590003 
L 245.789584 68.387792 
L 247.165239 68.326048 
L 248.540894 63.841867 
L 249.916549 62.662937 
L 251.292203 63.565948 
L 252.667858 66.882775 
L 254.043513 66.305851 
L 255.419168 64.46317 
L 256.794823 65.705774 
L 258.170478 63.486838 
L 259.546133 64.34547 
L 260.921787 64.200756 
L 262.297442 62.516294 
L 263.673097 61.455064 
L 265.048752 62.197925 
L 266.424407 63.311252 
L 267.800062 63.380715 
L 269.175716 60.633093 
L 270.551371 62.950434 
L 271.927026 60.513463 
L 273.302681 63.567877 
L 274.678336 63.210918 
L 276.053991 67.228157 
L 277.429646 66.529675 
L 278.8053 67.969089 
L 280.180955 67.423038 
L 281.55661 67.789644 
L 282.932265 67.484782 
L 284.30792 69.022601 
L 285.683575 68.719668 
L 287.05923 68.102225 
L 288.434884 68.327978 
L 289.810539 62.161265 
L 291.186194 56.870549 
L 292.561849 59.782179 
L 293.937504 53.777545 
L 295.313159 57.41853 
L 296.688814 59.639395 
L 298.064468 61.308421 
L 299.440123 62.113027 
L 300.815778 57.702168 
L 302.191433 58.616755 
L 303.567088 55.92123 
L 306.318398 45.804811 
L 307.694052 56.563757 
L 309.069707 56.642867 
L 310.445362 51.425472 
L 311.821017 53.113793 
L 313.196672 54.481816 
L 314.572327 57.829515 
L 315.947982 55.392544 
L 317.323636 58.960208 
L 318.699291 61.374025 
L 320.074946 62.803791 
L 321.450601 58.032114 
L 322.826256 59.787968 
L 324.201911 59.170524 
L 325.577565 60.787454 
L 326.95322 61.063373 
L 328.328875 60.56363 
L 329.70453 61.621002 
L 331.080185 62.458409 
L 332.45584 62.006904 
L 333.831495 62.45455 
L 335.207149 61.264042 
L 336.582804 63.708731 
L 337.958459 60.469084 
L 339.334114 63.934484 
L 340.709769 61.343152 
L 342.085424 64.100422 
L 343.461079 62.716963 
L 344.836733 67.9633 
L 346.212388 68.681078 
L 347.588043 66.817171 
L 348.963698 67.895767 
L 350.339353 69.227129 
L 351.715008 67.224298 
L 353.090663 69.696 
L 354.466317 69.036108 
L 355.841972 68.144674 
L 357.217627 67.550385 
L 358.593282 64.480535 
L 359.968937 66.23253 
L 361.344592 65.290929 
L 362.720247 65.36811 
L 364.095901 65.559131 
L 365.471556 63.865022 
L 366.847211 64.528773 
L 368.222866 64.899239 
L 369.598521 66.132196 
L 370.974176 65.080613 
L 372.349831 62.618558 
L 373.725485 58.940913 
L 375.10114 60.438212 
L 376.476795 60.528899 
L 377.85245 58.325399 
L 379.228105 55.581636 
L 380.60376 62.570321 
L 381.979414 60.534688 
L 383.355069 59.926892 
L 384.730724 61.1174 
L 386.106379 67.880331 
L 387.482034 65.817685 
L 388.857689 66.537393 
L 390.233344 64.57894 
L 391.608998 68.366568 
L 392.984653 67.587046 
L 394.360308 67.093091 
L 395.735963 66.763145 
L 397.111618 67.745266 
L 398.487273 65.777166 
L 398.487273 65.777166 
" clip-path="url(#pd21c5f3034)" style="fill: none; stroke: #00bfff; stroke-width: 1.5; stroke-linecap: square"/>
   </g>
   <g id="patch_3">
    <path d="M 57.6 71.04 
L 57.6 41.472 
" style="fill: none; stroke: #000000; stroke-width: 0.8; stroke-linejoin: miter; stroke-linecap: square"/>
   </g>
   <g id="patch_4">
    <path d="M 414.72 71.04 
L 414.72 41.472 
" style="fill: none; stroke: #000000; stroke-width: 0.8; stroke-linejoin: miter; stroke-linecap: square"/>
   </g>
   <g id="patch_5">
    <path d="M 57.6 71.04 
L 414.72 71.04 
" style="fill: none; stroke: #000000; stroke-width: 0.8; stroke-linejoin: miter; stroke-linecap: square"/>
   </g>
   <g id="patch_6">
    <path d="M 57.6 41.472 
L 414.72 41.472 
" style="fill: none; stroke: #000000; stroke-width: 0.8; stroke-linejoin: miter; stroke-linecap: square"/>
   </g>
   <g id="text_9">
    <!-- mse -->
    <g transform="translate(223.498125 35.472)scale(0.12 -0.12)">
     <defs>
      <path id="DejaVuSans-6d" d="M 3328 2828 
Q 3544 3216 3844 3400 
Q 4144 3584 4550 3584 
Q 5097 3584 5394 3201 
Q 5691 2819 5691 2113 
L 5691 0 
L 5113 0 
L 5113 2094 
Q 5113 2597 4934 2840 
Q 4756 3084 4391 3084 
Q 3944 3084 3684 2787 
Q 3425 2491 3425 1978 
L 3425 0 
L 2847 0 
L 2847 2094 
Q 2847 2600 2669 2842 
Q 2491 3084 2119 3084 
Q 1678 3084 1418 2786 
Q 1159 2488 1159 1978 
L 1159 0 
L 581 0 
L 581 3500 
L 1159 3500 
L 1159 2956 
Q 1356 3278 1631 3431 
Q 1906 3584 2284 3584 
Q 2666 3584 2933 3390 
Q 3200 3197 3328 2828 
z
" transform="scale(0.015625)"/>
      <path id="DejaVuSans-73" d="M 2834 3397 
L 2834 2853 
Q 2591 2978 2328 3040 
Q 2066 3103 1784 3103 
Q 1356 3103 1142 2972 
Q 928 2841 928 2578 
Q 928 2378 1081 2264 
Q 1234 2150 1697 2047 
L 1894 2003 
Q 2506 1872 2764 1633 
Q 3022 1394 3022 966 
Q 3022 478 2636 193 
Q 2250 -91 1575 -91 
Q 1294 -91 989 -36 
Q 684 19 347 128 
L 347 722 
Q 666 556 975 473 
Q 1284 391 1588 391 
Q 1994 391 2212 530 
Q 2431 669 2431 922 
Q 2431 1156 2273 1281 
Q 2116 1406 1581 1522 
L 1381 1569 
Q 847 1681 609 1914 
Q 372 2147 372 2553 
Q 372 3047 722 3315 
Q 1072 3584 1716 3584 
Q 2034 3584 2315 3537 
Q 2597 3491 2834 3397 
z
" transform="scale(0.015625)"/>
      <path id="DejaVuSans-65" d="M 3597 1894 
L 3597 1613 
L 953 1613 
Q 991 1019 1311 708 
Q 1631 397 2203 397 
Q 2534 397 2845 478 
Q 3156 559 3463 722 
L 3463 178 
Q 3153 47 2828 -22 
Q 2503 -91 2169 -91 
Q 1331 -91 842 396 
Q 353 884 353 1716 
Q 353 2575 817 3079 
Q 1281 3584 2069 3584 
Q 2775 3584 3186 3129 
Q 3597 2675 3597 1894 
z
M 3022 2063 
Q 3016 2534 2758 2815 
Q 2500 3097 2075 3097 
Q 1594 3097 1305 2825 
Q 1016 2553 972 2059 
L 3022 2063 
z
" transform="scale(0.015625)"/>
     </defs>
     <use xlink:href="#DejaVuSans-6d"/>
     <use xlink:href="#DejaVuSans-73" x="97.412109"/>
     <use xlink:href="#DejaVuSans-65" x="149.511719"/>
    </g>
   </g>
  </g>
  <g id="axes_2">
   <g id="patch_7">
    <path d="M 57.6 130.176 
L 414.72 130.176 
L 414.72 100.608 
L 57.6 100.608 
z
" style="fill: #ffffff"/>
   </g>
   <g id="matplotlib.axis_3">
    <g id="xtick_6">
     <g id="line2d_10">
      <g>
       <use xlink:href="#m3be3dbfb34" x="95.843205" y="130.176" style="stroke: #000000; stroke-width: 0.8"/>
      </g>
     </g>
     <g id="text_10">
      <!-- 300000 -->
      <g transform="translate(76.755705 144.774437)scale(0.1 -0.1)">
       <use xlink:href="#DejaVuSans-33"/>
       <use xlink:href="#DejaVuSans-30" x="63.623047"/>
       <use xlink:href="#DejaVuSans-30" x="127.246094"/>
       <use xlink:href="#DejaVuSans-30" x="190.869141"/>
       <use xlink:href="#DejaVuSans-30" x="254.492188"/>
       <use xlink:href="#DejaVuSans-30" x="318.115234"/>
      </g>
     </g>
    </g>
    <g id="xtick_7">
     <g id="line2d_11">
      <g>
       <use xlink:href="#m3be3dbfb34" x="164.625948" y="130.176" style="stroke: #000000; stroke-width: 0.8"/>
      </g>
     </g>
     <g id="text_11">
      <!-- 350000 -->
      <g transform="translate(145.538448 144.774437)scale(0.1 -0.1)">
       <use xlink:href="#DejaVuSans-33"/>
       <use xlink:href="#DejaVuSans-35" x="63.623047"/>
       <use xlink:href="#DejaVuSans-30" x="127.246094"/>
       <use xlink:href="#DejaVuSans-30" x="190.869141"/>
       <use xlink:href="#DejaVuSans-30" x="254.492188"/>
       <use xlink:href="#DejaVuSans-30" x="318.115234"/>
      </g>
     </g>
    </g>
    <g id="xtick_8">
     <g id="line2d_12">
      <g>
       <use xlink:href="#m3be3dbfb34" x="233.40869" y="130.176" style="stroke: #000000; stroke-width: 0.8"/>
      </g>
     </g>
     <g id="text_12">
      <!-- 400000 -->
      <g transform="translate(214.32119 144.774437)scale(0.1 -0.1)">
       <use xlink:href="#DejaVuSans-34"/>
       <use xlink:href="#DejaVuSans-30" x="63.623047"/>
       <use xlink:href="#DejaVuSans-30" x="127.246094"/>
       <use xlink:href="#DejaVuSans-30" x="190.869141"/>
       <use xlink:href="#DejaVuSans-30" x="254.492188"/>
       <use xlink:href="#DejaVuSans-30" x="318.115234"/>
      </g>
     </g>
    </g>
    <g id="xtick_9">
     <g id="line2d_13">
      <g>
       <use xlink:href="#m3be3dbfb34" x="302.191433" y="130.176" style="stroke: #000000; stroke-width: 0.8"/>
      </g>
     </g>
     <g id="text_13">
      <!-- 450000 -->
      <g transform="translate(283.103933 144.774437)scale(0.1 -0.1)">
       <use xlink:href="#DejaVuSans-34"/>
       <use xlink:href="#DejaVuSans-35" x="63.623047"/>
       <use xlink:href="#DejaVuSans-30" x="127.246094"/>
       <use xlink:href="#DejaVuSans-30" x="190.869141"/>
       <use xlink:href="#DejaVuSans-30" x="254.492188"/>
       <use xlink:href="#DejaVuSans-30" x="318.115234"/>
      </g>
     </g>
    </g>
    <g id="xtick_10">
     <g id="line2d_14">
      <g>
       <use xlink:href="#m3be3dbfb34" x="370.974176" y="130.176" style="stroke: #000000; stroke-width: 0.8"/>
      </g>
     </g>
     <g id="text_14">
      <!-- 500000 -->
      <g transform="translate(351.886676 144.774437)scale(0.1 -0.1)">
       <use xlink:href="#DejaVuSans-35"/>
       <use xlink:href="#DejaVuSans-30" x="63.623047"/>
       <use xlink:href="#DejaVuSans-30" x="127.246094"/>
       <use xlink:href="#DejaVuSans-30" x="190.869141"/>
       <use xlink:href="#DejaVuSans-30" x="254.492188"/>
       <use xlink:href="#DejaVuSans-30" x="318.115234"/>
      </g>
     </g>
    </g>
   </g>
   <g id="matplotlib.axis_4">
    <g id="ytick_4">
     <g id="line2d_15">
      <g>
       <use xlink:href="#me70c918e7d" x="57.6" y="126.549376" style="stroke: #000000; stroke-width: 0.8"/>
      </g>
     </g>
     <g id="text_15">
      <!-- 250 -->
      <g transform="translate(31.5125 130.348595)scale(0.1 -0.1)">
       <use xlink:href="#DejaVuSans-32"/>
       <use xlink:href="#DejaVuSans-35" x="63.623047"/>
       <use xlink:href="#DejaVuSans-30" x="127.246094"/>
      </g>
     </g>
    </g>
    <g id="ytick_5">
     <g id="line2d_16">
      <g>
       <use xlink:href="#me70c918e7d" x="57.6" y="114.260028" style="stroke: #000000; stroke-width: 0.8"/>
      </g>
     </g>
     <g id="text_16">
      <!-- 300 -->
      <g transform="translate(31.5125 118.059247)scale(0.1 -0.1)">
       <use xlink:href="#DejaVuSans-33"/>
       <use xlink:href="#DejaVuSans-30" x="63.623047"/>
       <use xlink:href="#DejaVuSans-30" x="127.246094"/>
      </g>
     </g>
    </g>
    <g id="ytick_6">
     <g id="line2d_17">
      <g>
       <use xlink:href="#me70c918e7d" x="57.6" y="101.97068" style="stroke: #000000; stroke-width: 0.8"/>
      </g>
     </g>
     <g id="text_17">
      <!-- 350 -->
      <g transform="translate(31.5125 105.769899)scale(0.1 -0.1)">
       <use xlink:href="#DejaVuSans-33"/>
       <use xlink:href="#DejaVuSans-35" x="63.623047"/>
       <use xlink:href="#DejaVuSans-30" x="127.246094"/>
      </g>
     </g>
    </g>
   </g>
   <g id="line2d_18">
    <path d="M 73.832727 114.66656 
L 75.208382 112.134708 
L 76.584037 112.415151 
L 77.959692 114.750619 
L 79.335347 113.16603 
L 80.711002 112.489625 
L 82.086656 112.924422 
L 83.462311 112.30553 
L 84.837966 111.839764 
L 86.213621 115.248829 
L 87.589276 122.985711 
L 88.964931 118.930718 
L 90.340586 123.72553 
L 91.71624 122.628829 
L 93.091895 119.995467 
L 94.46755 121.994207 
L 95.843205 122.800388 
L 97.21886 113.510378 
L 98.594515 114.504095 
L 99.970169 116.286542 
L 101.345824 115.182958 
L 102.721479 115.432678 
L 104.097134 112.369926 
L 105.472789 117.195953 
L 106.848444 116.490053 
L 108.224099 116.484154 
L 109.599753 115.420143 
L 110.975408 122.600317 
L 112.351063 123.020613 
L 113.726718 120.750525 
L 115.102373 123.264434 
L 116.478028 124.614541 
L 117.853683 123.21503 
L 119.229337 122.149544 
L 120.604992 123.851864 
L 121.980647 125.118651 
L 123.356302 125.467668 
L 124.731957 119.801295 
L 126.107612 118.744903 
L 127.483267 119.264988 
L 128.858921 116.175692 
L 130.234576 119.069833 
L 131.610231 119.097607 
L 132.985886 118.427346 
L 134.361541 120.682442 
L 135.737196 119.795396 
L 137.112851 118.312072 
L 138.488505 114.379726 
L 139.86416 113.648264 
L 141.239815 117.262316 
L 142.61547 114.631412 
L 143.991125 116.145214 
L 145.36678 115.508134 
L 146.742435 115.232116 
L 148.118089 114.597985 
L 149.493744 115.762032 
L 150.869399 115.067193 
L 152.245054 106.657346 
L 153.620709 103.1684 
L 154.996364 105.857555 
L 156.372018 102.25014 
L 157.747673 105.752604 
L 159.123328 105.947267 
L 160.498983 101.952 
L 161.874638 107.920445 
L 163.250293 105.720652 
L 164.625948 105.061697 
L 166.001602 112.973088 
L 167.377257 112.969892 
L 168.752912 113.517014 
L 170.128567 112.473403 
L 171.504222 114.622318 
L 172.879877 110.64401 
L 174.255532 114.375794 
L 177.006841 112.018943 
L 178.382496 114.35269 
L 179.758151 116.399358 
L 181.133806 117.819515 
L 182.509461 120.210285 
L 183.885116 116.00954 
L 185.26077 118.673379 
L 186.636425 116.327097 
L 188.01208 117.346375 
L 189.387735 118.023272 
L 190.76339 118.167058 
L 192.139045 117.136473 
L 193.5147 109.204682 
L 194.890354 108.049729 
L 196.266009 109.927295 
L 197.641664 110.345625 
L 199.017319 111.925789 
L 200.392974 112.034673 
L 201.768629 112.278002 
L 203.144284 110.497767 
L 204.519938 111.437165 
L 205.895593 112.806444 
L 207.271248 112.556233 
L 208.646903 110.242149 
L 210.022558 112.394505 
L 211.398213 110.442711 
L 212.773867 110.231826 
L 214.149522 113.736256 
L 215.525177 114.26519 
L 216.900832 111.650754 
L 218.276487 113.746825 
L 219.652142 113.322597 
L 221.027797 121.543188 
L 222.403451 122.993085 
L 225.154761 122.448912 
L 226.530416 122.617522 
L 227.906071 123.728479 
L 229.281726 123.94723 
L 230.657381 122.669875 
L 232.033035 124.672793 
L 233.40869 123.947721 
L 234.784345 123.555937 
L 236.16 122.511342 
L 237.535655 123.240838 
L 238.91131 121.652071 
L 240.286965 120.269519 
L 241.662619 122.604004 
L 243.038274 123.861942 
L 244.413929 122.314467 
L 245.789584 124.954465 
L 247.165239 124.783889 
L 248.540894 120.818608 
L 249.916549 120.668923 
L 251.292203 120.340552 
L 252.667858 123.640488 
L 254.043513 123.106393 
L 255.419168 122.033041 
L 256.794823 122.62293 
L 258.170478 121.764396 
L 259.546133 121.893434 
L 260.921787 121.724087 
L 262.297442 118.674362 
L 263.673097 117.213896 
L 265.048752 118.303224 
L 266.424407 120.603052 
L 267.800062 118.996097 
L 269.175716 116.805398 
L 270.551371 119.311688 
L 271.927026 117.182189 
L 273.302681 120.201682 
L 274.678336 120.298277 
L 276.053991 124.983222 
L 277.429646 125.047127 
L 278.8053 125.492001 
L 280.180955 124.208993 
L 281.55661 125.17002 
L 282.932265 124.868194 
L 284.30792 125.970548 
L 285.683575 126.376097 
L 287.05923 126.07722 
L 288.434884 125.126024 
L 289.810539 117.567338 
L 291.186194 113.795737 
L 292.561849 114.995177 
L 293.937504 113.652934 
L 295.313159 114.307219 
L 296.688814 115.655361 
L 298.064468 117.239949 
L 299.440123 117.954698 
L 300.815778 115.574743 
L 302.191433 115.996759 
L 303.567088 111.39833 
L 306.318398 108.539091 
L 307.694052 111.769715 
L 309.069707 112.992259 
L 310.445362 107.655732 
L 311.821017 109.596958 
L 313.196672 112.659709 
L 314.572327 113.680217 
L 315.947982 111.315992 
L 317.323636 115.707713 
L 318.699291 117.254697 
L 320.074946 119.318324 
L 321.450601 115.269721 
L 322.826256 116.484646 
L 324.201911 116.035593 
L 325.577565 117.733981 
L 326.95322 118.128961 
L 328.328875 117.73988 
L 329.70453 118.043918 
L 331.080185 120.465166 
L 332.45584 119.625066 
L 333.831495 119.13595 
L 336.582804 120.658846 
L 337.958459 119.248766 
L 339.334114 121.151649 
L 340.709769 119.859301 
L 342.085424 121.775702 
L 343.461079 120.135074 
L 344.836733 127.224307 
L 346.212388 128.649626 
L 347.588043 127.192847 
L 348.963698 127.283296 
L 350.339353 128.781614 
L 351.715008 126.094425 
L 353.090663 128.832 
L 354.466317 127.946184 
L 355.841972 128.068586 
L 357.217627 127.859175 
L 358.593282 120.651227 
L 359.968937 122.764257 
L 361.344592 122.171911 
L 362.720247 122.569102 
L 364.095901 122.295787 
L 365.471556 121.849438 
L 366.847211 120.749787 
L 368.222866 121.438728 
L 369.598521 123.396667 
L 370.974176 121.462815 
L 372.349831 118.006067 
L 373.725485 114.940121 
L 375.10114 115.605466 
L 376.476795 116.893881 
L 377.85245 113.660308 
L 379.228105 114.323441 
L 380.60376 118.744657 
L 381.979414 116.533558 
L 383.355069 116.682259 
L 384.730724 116.450727 
L 386.106379 122.879777 
L 387.482034 120.635496 
L 388.857689 122.065731 
L 390.233344 121.106178 
L 391.608998 124.605939 
L 392.984653 123.099019 
L 394.360308 122.76524 
L 395.735963 122.858639 
L 397.111618 123.794105 
L 398.487273 122.352318 
L 398.487273 122.352318 
" clip-path="url(#pc8da5d3dfb)" style="fill: none; stroke: #ffa500; stroke-width: 1.5; stroke-linecap: square"/>
   </g>
   <g id="patch_8">
    <path d="M 57.6 130.176 
L 57.6 100.608 
" style="fill: none; stroke: #000000; stroke-width: 0.8; stroke-linejoin: miter; stroke-linecap: square"/>
   </g>
   <g id="patch_9">
    <path d="M 414.72 130.176 
L 414.72 100.608 
" style="fill: none; stroke: #000000; stroke-width: 0.8; stroke-linejoin: miter; stroke-linecap: square"/>
   </g>
   <g id="patch_10">
    <path d="M 57.6 130.176 
L 414.72 130.176 
" style="fill: none; stroke: #000000; stroke-width: 0.8; stroke-linejoin: miter; stroke-linecap: square"/>
   </g>
   <g id="patch_11">
    <path d="M 57.6 100.608 
L 414.72 100.608 
" style="fill: none; stroke: #000000; stroke-width: 0.8; stroke-linejoin: miter; stroke-linecap: square"/>
   </g>
   <g id="text_18">
    <!-- mae -->
    <g transform="translate(222.946875 94.608)scale(0.12 -0.12)">
     <defs>
      <path id="DejaVuSans-61" d="M 2194 1759 
Q 1497 1759 1228 1600 
Q 959 1441 959 1056 
Q 959 750 1161 570 
Q 1363 391 1709 391 
Q 2188 391 2477 730 
Q 2766 1069 2766 1631 
L 2766 1759 
L 2194 1759 
z
M 3341 1997 
L 3341 0 
L 2766 0 
L 2766 531 
Q 2569 213 2275 61 
Q 1981 -91 1556 -91 
Q 1019 -91 701 211 
Q 384 513 384 1019 
Q 384 1609 779 1909 
Q 1175 2209 1959 2209 
L 2766 2209 
L 2766 2266 
Q 2766 2663 2505 2880 
Q 2244 3097 1772 3097 
Q 1472 3097 1187 3025 
Q 903 2953 641 2809 
L 641 3341 
Q 956 3463 1253 3523 
Q 1550 3584 1831 3584 
Q 2591 3584 2966 3190 
Q 3341 2797 3341 1997 
z
" transform="scale(0.015625)"/>
     </defs>
     <use xlink:href="#DejaVuSans-6d"/>
     <use xlink:href="#DejaVuSans-61" x="97.412109"/>
     <use xlink:href="#DejaVuSans-65" x="158.691406"/>
    </g>
   </g>
  </g>
  <g id="axes_3">
   <g id="patch_12">
    <path d="M 57.6 189.312 
L 414.72 189.312 
L 414.72 159.744 
L 57.6 159.744 
z
" style="fill: #ffffff"/>
   </g>
   <g id="matplotlib.axis_5">
    <g id="xtick_11">
     <g id="line2d_19">
      <g>
       <use xlink:href="#m3be3dbfb34" x="95.843205" y="189.312" style="stroke: #000000; stroke-width: 0.8"/>
      </g>
     </g>
     <g id="text_19">
      <!-- 300000 -->
      <g transform="translate(76.755705 203.910437)scale(0.1 -0.1)">
       <use xlink:href="#DejaVuSans-33"/>
       <use xlink:href="#DejaVuSans-30" x="63.623047"/>
       <use xlink:href="#DejaVuSans-30" x="127.246094"/>
       <use xlink:href="#DejaVuSans-30" x="190.869141"/>
       <use xlink:href="#DejaVuSans-30" x="254.492188"/>
       <use xlink:href="#DejaVuSans-30" x="318.115234"/>
      </g>
     </g>
    </g>
    <g id="xtick_12">
     <g id="line2d_20">
      <g>
       <use xlink:href="#m3be3dbfb34" x="164.625948" y="189.312" style="stroke: #000000; stroke-width: 0.8"/>
      </g>
     </g>
     <g id="text_20">
      <!-- 350000 -->
      <g transform="translate(145.538448 203.910437)scale(0.1 -0.1)">
       <use xlink:href="#DejaVuSans-33"/>
       <use xlink:href="#DejaVuSans-35" x="63.623047"/>
       <use xlink:href="#DejaVuSans-30" x="127.246094"/>
       <use xlink:href="#DejaVuSans-30" x="190.869141"/>
       <use xlink:href="#DejaVuSans-30" x="254.492188"/>
       <use xlink:href="#DejaVuSans-30" x="318.115234"/>
      </g>
     </g>
    </g>
    <g id="xtick_13">
     <g id="line2d_21">
      <g>
       <use xlink:href="#m3be3dbfb34" x="233.40869" y="189.312" style="stroke: #000000; stroke-width: 0.8"/>
      </g>
     </g>
     <g id="text_21">
      <!-- 400000 -->
      <g transform="translate(214.32119 203.910437)scale(0.1 -0.1)">
       <use xlink:href="#DejaVuSans-34"/>
       <use xlink:href="#DejaVuSans-30" x="63.623047"/>
       <use xlink:href="#DejaVuSans-30" x="127.246094"/>
       <use xlink:href="#DejaVuSans-30" x="190.869141"/>
       <use xlink:href="#DejaVuSans-30" x="254.492188"/>
       <use xlink:href="#DejaVuSans-30" x="318.115234"/>
      </g>
     </g>
    </g>
    <g id="xtick_14">
     <g id="line2d_22">
      <g>
       <use xlink:href="#m3be3dbfb34" x="302.191433" y="189.312" style="stroke: #000000; stroke-width: 0.8"/>
      </g>
     </g>
     <g id="text_22">
      <!-- 450000 -->
      <g transform="translate(283.103933 203.910437)scale(0.1 -0.1)">
       <use xlink:href="#DejaVuSans-34"/>
       <use xlink:href="#DejaVuSans-35" x="63.623047"/>
       <use xlink:href="#DejaVuSans-30" x="127.246094"/>
       <use xlink:href="#DejaVuSans-30" x="190.869141"/>
       <use xlink:href="#DejaVuSans-30" x="254.492188"/>
       <use xlink:href="#DejaVuSans-30" x="318.115234"/>
      </g>
     </g>
    </g>
    <g id="xtick_15">
     <g id="line2d_23">
      <g>
       <use xlink:href="#m3be3dbfb34" x="370.974176" y="189.312" style="stroke: #000000; stroke-width: 0.8"/>
      </g>
     </g>
     <g id="text_23">
      <!-- 500000 -->
      <g transform="translate(351.886676 203.910437)scale(0.1 -0.1)">
       <use xlink:href="#DejaVuSans-35"/>
       <use xlink:href="#DejaVuSans-30" x="63.623047"/>
       <use xlink:href="#DejaVuSans-30" x="127.246094"/>
       <use xlink:href="#DejaVuSans-30" x="190.869141"/>
       <use xlink:href="#DejaVuSans-30" x="254.492188"/>
       <use xlink:href="#DejaVuSans-30" x="318.115234"/>
      </g>
     </g>
    </g>
   </g>
   <g id="matplotlib.axis_6">
    <g id="ytick_7">
     <g id="line2d_24">
      <g>
       <use xlink:href="#me70c918e7d" x="57.6" y="182.45332" style="stroke: #000000; stroke-width: 0.8"/>
      </g>
     </g>
     <g id="text_24">
      <!-- 30 -->
      <g transform="translate(37.875 186.252539)scale(0.1 -0.1)">
       <use xlink:href="#DejaVuSans-33"/>
       <use xlink:href="#DejaVuSans-30" x="63.623047"/>
      </g>
     </g>
    </g>
    <g id="ytick_8">
     <g id="line2d_25">
      <g>
       <use xlink:href="#me70c918e7d" x="57.6" y="160.784638" style="stroke: #000000; stroke-width: 0.8"/>
      </g>
     </g>
     <g id="text_25">
      <!-- 32 -->
      <g transform="translate(37.875 164.583857)scale(0.1 -0.1)">
       <use xlink:href="#DejaVuSans-33"/>
       <use xlink:href="#DejaVuSans-32" x="63.623047"/>
      </g>
     </g>
    </g>
   </g>
   <g id="line2d_26">
    <path d="M 73.832727 175.053466 
L 75.208382 178.715473 
L 76.584037 180.134771 
L 77.959692 176.342752 
L 79.335347 178.141253 
L 80.711002 179.744735 
L 82.086656 178.477117 
L 83.462311 179.842244 
L 84.837966 179.224687 
L 86.213621 175.476005 
L 87.589276 167.382752 
L 88.964931 175.259318 
L 90.340586 167.599439 
L 91.71624 169.452111 
L 93.091895 174.804276 
L 94.46755 171.293949 
L 95.843205 171.618979 
L 97.21886 182.37748 
L 98.594515 182.583333 
L 99.970169 178.238762 
L 101.345824 179.463042 
L 102.721479 180.340624 
L 104.097134 184.392667 
L 105.472789 177.209499 
L 106.848444 179.517214 
L 108.224099 179.040503 
L 109.599753 181.337383 
L 110.975408 171.163937 
L 112.351063 170.134675 
L 113.726718 171.109765 
L 115.102373 170.416368 
L 116.478028 168.57453 
L 117.853683 169.917988 
L 119.229337 172.388218 
L 120.604992 170.470539 
L 121.980647 167.350249 
L 123.356302 167.317746 
L 124.731957 176.386089 
L 126.107612 176.602776 
L 127.483267 177.198665 
L 128.858921 180.210612 
L 130.234576 177.783719 
L 131.610231 175.909378 
L 132.985886 179.008 
L 134.361541 174.219221 
L 135.737196 176.082728 
L 137.112851 177.415352 
L 138.488505 181.294046 
L 139.86416 180.719826 
L 141.239815 177.653707 
L 142.61547 180.199778 
L 143.991125 179.029669 
L 145.36678 180.199778 
L 146.742435 180.199778 
L 148.118089 180.026428 
L 149.493744 178.282099 
L 150.869399 180.839004 
L 153.620709 187.382946 
L 154.996364 184.934385 
L 156.372018 187.968 
L 157.747673 183.601761 
L 159.123328 184.208484 
L 160.498983 187.372111 
L 161.874638 181.684082 
L 163.250293 184.295158 
L 164.625948 185.021059 
L 166.001602 176.765291 
L 167.377257 175.931047 
L 168.752912 174.73927 
L 170.128567 175.671023 
L 171.504222 173.525823 
L 172.879877 178.336271 
L 174.255532 174.934288 
L 175.631186 174.49008 
L 177.006841 177.014481 
L 178.382496 174.511748 
L 179.758151 175.736029 
L 182.509461 171.250612 
L 183.885116 175.324324 
L 185.26077 173.309137 
L 186.636425 174.208387 
L 188.01208 174.511748 
L 189.387735 172.399052 
L 190.76339 172.572401 
L 192.139045 173.970031 
L 193.5147 181.424058 
L 194.890354 184.338496 
L 196.266009 181.131531 
L 197.641664 179.885582 
L 199.017319 178.087081 
L 200.392974 178.412111 
L 201.768629 177.783719 
L 203.144284 178.617964 
L 204.519938 178.856319 
L 205.895593 177.740382 
L 207.271248 178.347105 
L 208.646903 180.773998 
L 210.022558 179.549717 
L 211.398213 181.434892 
L 212.773867 182.334143 
L 214.149522 179.33303 
L 215.525177 176.884469 
L 216.900832 179.603889 
L 218.276487 176.765291 
L 219.652142 178.238762 
L 221.027797 168.617867 
L 222.403451 168.368677 
L 223.779106 169.452111 
L 225.154761 168.780382 
L 226.530416 167.870297 
L 227.906071 167.447758 
L 229.281726 165.075037 
L 230.657381 167.935304 
L 232.033035 165.909282 
L 233.40869 165.140044 
L 234.784345 166.721857 
L 236.16 169.018738 
L 237.535655 166.75436 
L 238.91131 169.820479 
L 240.286965 170.849741 
L 241.662619 171.19644 
L 243.038274 166.125969 
L 244.413929 167.935304 
L 245.789584 163.709911 
L 247.165239 163.926597 
L 248.540894 172.225703 
L 249.916549 172.030684 
L 251.292203 172.160696 
L 252.667858 168.206162 
L 254.043513 168.693707 
L 255.419168 170.882244 
L 256.794823 169.235424 
L 258.170478 171.608145 
L 259.546133 169.961325 
L 260.921787 171.52147 
L 262.297442 173.319971 
L 263.673097 175.627686 
L 265.048752 174.446742 
L 266.424407 171.575642 
L 267.800062 172.821591 
L 269.175716 176.21274 
L 270.551371 171.987347 
L 271.927026 175.627686 
L 273.302681 171.965678 
L 274.678336 171.889838 
L 276.053991 164.587492 
L 277.429646 166.039294 
L 278.8053 163.969935 
L 280.180955 165.389233 
L 281.55661 165.421736 
L 282.932265 163.742414 
L 287.05923 163.699076 
L 288.434884 162.973175 
L 289.810539 174.468411 
L 291.186194 178.141253 
L 292.561849 175.671023 
L 293.937504 177.556198 
L 295.313159 177.296174 
L 296.688814 175.541011 
L 298.064468 172.669911 
L 299.440123 173.287468 
L 300.815778 173.395811 
L 302.191433 175.410999 
L 303.567088 180.936513 
L 304.942743 183.233393 
L 306.318398 183.645098 
L 307.694052 179.65806 
L 309.069707 180.557311 
L 310.445362 184.858544 
L 311.821017 183.016706 
L 313.196672 179.939753 
L 314.572327 178.726307 
L 315.947982 181.012353 
L 317.323636 177.902897 
L 318.699291 175.248484 
L 320.074946 172.994941 
L 321.450601 177.577867 
L 322.826256 176.440261 
L 324.201911 177.556198 
L 325.577565 174.695932 
L 326.95322 174.100044 
L 328.328875 175.736029 
L 329.70453 174.641761 
L 331.080185 173.146622 
L 332.45584 174.468411 
L 333.831495 173.894191 
L 335.207149 175.400164 
L 336.582804 171.586476 
L 337.958459 173.970031 
L 339.334114 171.012256 
L 340.709769 174.024203 
L 342.085424 169.917988 
L 343.461079 172.929935 
L 344.836733 161.304687 
L 346.212388 161.781398 
L 347.588043 165.085872 
L 348.963698 161.402196 
L 350.339353 161.088 
L 351.715008 164.154119 
L 353.090663 161.272184 
L 354.466317 161.131337 
L 355.841972 161.521374 
L 357.217627 162.929838 
L 358.593282 171.543139 
L 359.968937 168.791216 
L 361.344592 169.668798 
L 364.095901 170.102172 
L 365.471556 171.1206 
L 366.847211 171.423961 
L 368.222866 170.665557 
L 369.598521 168.986235 
L 372.349831 172.182365 
L 373.725485 175.226815 
L 375.10114 173.059947 
L 376.476795 172.832426 
L 377.85245 174.674264 
L 379.228105 175.866041 
L 380.60376 169.950491 
L 381.979414 172.420721 
L 383.355069 173.298302 
L 384.730724 173.384977 
L 386.106379 165.150878 
L 387.482034 169.376271 
L 388.857689 167.816126 
L 390.233344 171.109765 
L 391.608998 164.403308 
L 392.984653 166.255981 
L 394.360308 167.025219 
L 397.111618 165.800938 
L 398.487273 168.812885 
L 398.487273 168.812885 
" clip-path="url(#p87f4d63916)" style="fill: none; stroke: #008000; stroke-width: 1.5; stroke-linecap: square"/>
   </g>
   <g id="patch_13">
    <path d="M 57.6 189.312 
L 57.6 159.744 
" style="fill: none; stroke: #000000; stroke-width: 0.8; stroke-linejoin: miter; stroke-linecap: square"/>
   </g>
   <g id="patch_14">
    <path d="M 414.72 189.312 
L 414.72 159.744 
" style="fill: none; stroke: #000000; stroke-width: 0.8; stroke-linejoin: miter; stroke-linecap: square"/>
   </g>
   <g id="patch_15">
    <path d="M 57.6 189.312 
L 414.72 189.312 
" style="fill: none; stroke: #000000; stroke-width: 0.8; stroke-linejoin: miter; stroke-linecap: square"/>
   </g>
   <g id="patch_16">
    <path d="M 57.6 159.744 
L 414.72 159.744 
" style="fill: none; stroke: #000000; stroke-width: 0.8; stroke-linejoin: miter; stroke-linecap: square"/>
   </g>
   <g id="text_26">
    <!-- psnr -->
    <g transform="translate(222.95625 153.744)scale(0.12 -0.12)">
     <defs>
      <path id="DejaVuSans-70" d="M 1159 525 
L 1159 -1331 
L 581 -1331 
L 581 3500 
L 1159 3500 
L 1159 2969 
Q 1341 3281 1617 3432 
Q 1894 3584 2278 3584 
Q 2916 3584 3314 3078 
Q 3713 2572 3713 1747 
Q 3713 922 3314 415 
Q 2916 -91 2278 -91 
Q 1894 -91 1617 61 
Q 1341 213 1159 525 
z
M 3116 1747 
Q 3116 2381 2855 2742 
Q 2594 3103 2138 3103 
Q 1681 3103 1420 2742 
Q 1159 2381 1159 1747 
Q 1159 1113 1420 752 
Q 1681 391 2138 391 
Q 2594 391 2855 752 
Q 3116 1113 3116 1747 
z
" transform="scale(0.015625)"/>
      <path id="DejaVuSans-6e" d="M 3513 2113 
L 3513 0 
L 2938 0 
L 2938 2094 
Q 2938 2591 2744 2837 
Q 2550 3084 2163 3084 
Q 1697 3084 1428 2787 
Q 1159 2491 1159 1978 
L 1159 0 
L 581 0 
L 581 3500 
L 1159 3500 
L 1159 2956 
Q 1366 3272 1645 3428 
Q 1925 3584 2291 3584 
Q 2894 3584 3203 3211 
Q 3513 2838 3513 2113 
z
" transform="scale(0.015625)"/>
      <path id="DejaVuSans-72" d="M 2631 2963 
Q 2534 3019 2420 3045 
Q 2306 3072 2169 3072 
Q 1681 3072 1420 2755 
Q 1159 2438 1159 1844 
L 1159 0 
L 581 0 
L 581 3500 
L 1159 3500 
L 1159 2956 
Q 1341 3275 1631 3429 
Q 1922 3584 2338 3584 
Q 2397 3584 2469 3576 
Q 2541 3569 2628 3553 
L 2631 2963 
z
" transform="scale(0.015625)"/>
     </defs>
     <use xlink:href="#DejaVuSans-70"/>
     <use xlink:href="#DejaVuSans-73" x="63.476562"/>
     <use xlink:href="#DejaVuSans-6e" x="115.576172"/>
     <use xlink:href="#DejaVuSans-72" x="178.955078"/>
    </g>
   </g>
  </g>
  <g id="axes_4">
   <g id="patch_17">
    <path d="M 57.6 248.448 
L 414.72 248.448 
L 414.72 218.88 
L 57.6 218.88 
z
" style="fill: #ffffff"/>
   </g>
   <g id="matplotlib.axis_7">
    <g id="xtick_16">
     <g id="line2d_27">
      <g>
       <use xlink:href="#m3be3dbfb34" x="95.843205" y="248.448" style="stroke: #000000; stroke-width: 0.8"/>
      </g>
     </g>
     <g id="text_27">
      <!-- 300000 -->
      <g transform="translate(76.755705 263.046437)scale(0.1 -0.1)">
       <use xlink:href="#DejaVuSans-33"/>
       <use xlink:href="#DejaVuSans-30" x="63.623047"/>
       <use xlink:href="#DejaVuSans-30" x="127.246094"/>
       <use xlink:href="#DejaVuSans-30" x="190.869141"/>
       <use xlink:href="#DejaVuSans-30" x="254.492188"/>
       <use xlink:href="#DejaVuSans-30" x="318.115234"/>
      </g>
     </g>
    </g>
    <g id="xtick_17">
     <g id="line2d_28">
      <g>
       <use xlink:href="#m3be3dbfb34" x="164.625948" y="248.448" style="stroke: #000000; stroke-width: 0.8"/>
      </g>
     </g>
     <g id="text_28">
      <!-- 350000 -->
      <g transform="translate(145.538448 263.046437)scale(0.1 -0.1)">
       <use xlink:href="#DejaVuSans-33"/>
       <use xlink:href="#DejaVuSans-35" x="63.623047"/>
       <use xlink:href="#DejaVuSans-30" x="127.246094"/>
       <use xlink:href="#DejaVuSans-30" x="190.869141"/>
       <use xlink:href="#DejaVuSans-30" x="254.492188"/>
       <use xlink:href="#DejaVuSans-30" x="318.115234"/>
      </g>
     </g>
    </g>
    <g id="xtick_18">
     <g id="line2d_29">
      <g>
       <use xlink:href="#m3be3dbfb34" x="233.40869" y="248.448" style="stroke: #000000; stroke-width: 0.8"/>
      </g>
     </g>
     <g id="text_29">
      <!-- 400000 -->
      <g transform="translate(214.32119 263.046437)scale(0.1 -0.1)">
       <use xlink:href="#DejaVuSans-34"/>
       <use xlink:href="#DejaVuSans-30" x="63.623047"/>
       <use xlink:href="#DejaVuSans-30" x="127.246094"/>
       <use xlink:href="#DejaVuSans-30" x="190.869141"/>
       <use xlink:href="#DejaVuSans-30" x="254.492188"/>
       <use xlink:href="#DejaVuSans-30" x="318.115234"/>
      </g>
     </g>
    </g>
    <g id="xtick_19">
     <g id="line2d_30">
      <g>
       <use xlink:href="#m3be3dbfb34" x="302.191433" y="248.448" style="stroke: #000000; stroke-width: 0.8"/>
      </g>
     </g>
     <g id="text_30">
      <!-- 450000 -->
      <g transform="translate(283.103933 263.046437)scale(0.1 -0.1)">
       <use xlink:href="#DejaVuSans-34"/>
       <use xlink:href="#DejaVuSans-35" x="63.623047"/>
       <use xlink:href="#DejaVuSans-30" x="127.246094"/>
       <use xlink:href="#DejaVuSans-30" x="190.869141"/>
       <use xlink:href="#DejaVuSans-30" x="254.492188"/>
       <use xlink:href="#DejaVuSans-30" x="318.115234"/>
      </g>
     </g>
    </g>
    <g id="xtick_20">
     <g id="line2d_31">
      <g>
       <use xlink:href="#m3be3dbfb34" x="370.974176" y="248.448" style="stroke: #000000; stroke-width: 0.8"/>
      </g>
     </g>
     <g id="text_31">
      <!-- 500000 -->
      <g transform="translate(351.886676 263.046437)scale(0.1 -0.1)">
       <use xlink:href="#DejaVuSans-35"/>
       <use xlink:href="#DejaVuSans-30" x="63.623047"/>
       <use xlink:href="#DejaVuSans-30" x="127.246094"/>
       <use xlink:href="#DejaVuSans-30" x="190.869141"/>
       <use xlink:href="#DejaVuSans-30" x="254.492188"/>
       <use xlink:href="#DejaVuSans-30" x="318.115234"/>
      </g>
     </g>
    </g>
   </g>
   <g id="matplotlib.axis_8">
    <g id="ytick_9">
     <g id="line2d_32">
      <g>
       <use xlink:href="#me70c918e7d" x="57.6" y="242.968615" style="stroke: #000000; stroke-width: 0.8"/>
      </g>
     </g>
     <g id="text_32">
      <!-- 0.900 -->
      <g transform="translate(21.971875 246.767834)scale(0.1 -0.1)">
       <defs>
        <path id="DejaVuSans-2e" d="M 684 794 
L 1344 794 
L 1344 0 
L 684 0 
L 684 794 
z
" transform="scale(0.015625)"/>
        <path id="DejaVuSans-39" d="M 703 97 
L 703 672 
Q 941 559 1184 500 
Q 1428 441 1663 441 
Q 2288 441 2617 861 
Q 2947 1281 2994 2138 
Q 2813 1869 2534 1725 
Q 2256 1581 1919 1581 
Q 1219 1581 811 2004 
Q 403 2428 403 3163 
Q 403 3881 828 4315 
Q 1253 4750 1959 4750 
Q 2769 4750 3195 4129 
Q 3622 3509 3622 2328 
Q 3622 1225 3098 567 
Q 2575 -91 1691 -91 
Q 1453 -91 1209 -44 
Q 966 3 703 97 
z
M 1959 2075 
Q 2384 2075 2632 2365 
Q 2881 2656 2881 3163 
Q 2881 3666 2632 3958 
Q 2384 4250 1959 4250 
Q 1534 4250 1286 3958 
Q 1038 3666 1038 3163 
Q 1038 2656 1286 2365 
Q 1534 2075 1959 2075 
z
" transform="scale(0.015625)"/>
       </defs>
       <use xlink:href="#DejaVuSans-30"/>
       <use xlink:href="#DejaVuSans-2e" x="63.623047"/>
       <use xlink:href="#DejaVuSans-39" x="95.410156"/>
       <use xlink:href="#DejaVuSans-30" x="159.033203"/>
       <use xlink:href="#DejaVuSans-30" x="222.65625"/>
      </g>
     </g>
    </g>
    <g id="ytick_10">
     <g id="line2d_33">
      <g>
       <use xlink:href="#me70c918e7d" x="57.6" y="230.045538" style="stroke: #000000; stroke-width: 0.8"/>
      </g>
     </g>
     <g id="text_33">
      <!-- 0.925 -->
      <g transform="translate(21.971875 233.844757)scale(0.1 -0.1)">
       <use xlink:href="#DejaVuSans-30"/>
       <use xlink:href="#DejaVuSans-2e" x="63.623047"/>
       <use xlink:href="#DejaVuSans-39" x="95.410156"/>
       <use xlink:href="#DejaVuSans-32" x="159.033203"/>
       <use xlink:href="#DejaVuSans-35" x="222.65625"/>
      </g>
     </g>
    </g>
   </g>
   <g id="line2d_34">
    <path d="M 73.832727 237.799385 
L 75.208382 238.316308 
L 76.584037 238.316308 
L 77.959692 236.248615 
L 79.335347 237.799385 
L 80.711002 237.799385 
L 82.086656 238.316308 
L 83.462311 237.799385 
L 84.837966 239.350154 
L 86.213621 236.248615 
L 87.589276 230.562462 
L 88.964931 232.113231 
L 90.340586 228.494769 
L 91.71624 229.528615 
L 93.091895 232.113231 
L 95.843205 229.011692 
L 97.21886 233.664 
L 98.594515 233.664 
L 99.970169 232.113231 
L 101.345824 233.664 
L 102.721479 233.147077 
L 104.097134 235.214769 
L 105.472789 232.630154 
L 108.224099 232.630154 
L 109.599753 233.147077 
L 110.975408 226.944 
L 113.726718 227.977846 
L 115.102373 226.944 
L 116.478028 226.427077 
L 119.229337 228.494769 
L 120.604992 226.427077 
L 123.356302 225.393231 
L 124.731957 229.528615 
L 126.107612 229.528615 
L 127.483267 230.045538 
L 128.858921 232.113231 
L 130.234576 230.045538 
L 131.610231 229.528615 
L 132.985886 230.045538 
L 134.361541 228.494769 
L 135.737196 230.045538 
L 137.112851 231.079385 
L 138.488505 236.765538 
L 139.86416 236.765538 
L 141.239815 235.214769 
L 142.61547 235.731692 
L 143.991125 234.697846 
L 145.36678 234.697846 
L 146.742435 235.214769 
L 148.118089 236.765538 
L 149.493744 235.214769 
L 150.869399 236.248615 
L 152.245054 243.485538 
L 153.620709 247.104 
L 154.996364 244.002462 
L 156.372018 246.587077 
L 157.747673 244.519385 
L 159.123328 244.519385 
L 160.498983 246.587077 
L 161.874638 242.968615 
L 163.250293 245.553231 
L 164.625948 246.070154 
L 166.001602 238.833231 
L 167.377257 238.833231 
L 168.752912 237.799385 
L 170.128567 238.833231 
L 171.504222 238.833231 
L 172.879877 240.384 
L 174.255532 238.316308 
L 175.631186 238.833231 
L 177.006841 239.867077 
L 178.382496 237.799385 
L 179.758151 235.214769 
L 181.133806 234.180923 
L 182.509461 232.113231 
L 183.885116 235.731692 
L 185.26077 234.180923 
L 186.636425 235.731692 
L 188.01208 234.697846 
L 190.76339 233.664 
L 192.139045 235.214769 
L 193.5147 239.867077 
L 194.890354 240.900923 
L 196.266009 239.350154 
L 197.641664 239.350154 
L 199.017319 237.799385 
L 200.392974 237.282462 
L 201.768629 237.799385 
L 203.144284 237.282462 
L 204.519938 237.799385 
L 205.895593 237.282462 
L 207.271248 238.833231 
L 208.646903 242.451692 
L 210.022558 240.384 
L 211.398213 240.384 
L 212.773867 241.934769 
L 214.149522 238.316308 
L 215.525177 238.833231 
L 216.900832 241.417846 
L 218.276487 238.833231 
L 219.652142 238.833231 
L 221.027797 230.045538 
L 222.403451 230.045538 
L 223.779106 229.528615 
L 225.154761 229.528615 
L 226.530416 230.562462 
L 227.906071 228.494769 
L 229.281726 228.494769 
L 230.657381 229.528615 
L 232.033035 227.460923 
L 233.40869 228.494769 
L 234.784345 228.494769 
L 236.16 229.011692 
L 237.535655 228.494769 
L 238.91131 229.528615 
L 240.286965 229.011692 
L 241.662619 229.011692 
L 243.038274 227.977846 
L 244.413929 228.494769 
L 245.789584 226.427077 
L 248.540894 228.494769 
L 249.916549 227.460923 
L 251.292203 229.011692 
L 252.667858 225.910154 
L 254.043513 225.910154 
L 255.419168 227.460923 
L 256.794823 226.944 
L 258.170478 227.460923 
L 259.546133 226.427077 
L 260.921787 227.977846 
L 262.297442 231.596308 
L 263.673097 232.113231 
L 265.048752 232.113231 
L 266.424407 229.528615 
L 267.800062 231.079385 
L 269.175716 234.180923 
L 270.551371 230.562462 
L 271.927026 231.596308 
L 273.302681 230.562462 
L 274.678336 230.562462 
L 276.053991 224.359385 
L 277.429646 224.876308 
L 278.8053 224.359385 
L 280.180955 225.393231 
L 281.55661 223.842462 
L 282.932265 224.876308 
L 284.30792 224.359385 
L 285.683575 223.325538 
L 287.05923 223.842462 
L 288.434884 224.876308 
L 289.810539 234.180923 
L 291.186194 236.248615 
L 292.561849 235.731692 
L 293.937504 236.248615 
L 295.313159 235.214769 
L 296.688814 234.697846 
L 298.064468 233.147077 
L 299.440123 233.664 
L 300.815778 234.697846 
L 302.191433 235.214769 
L 303.567088 238.316308 
L 304.942743 238.316308 
L 306.318398 240.384 
L 307.694052 238.316308 
L 309.069707 237.282462 
L 310.445362 241.934769 
L 311.821017 239.867077 
L 313.196672 237.282462 
L 314.572327 237.282462 
L 315.947982 237.799385 
L 317.323636 234.180923 
L 318.699291 232.630154 
L 320.074946 231.596308 
L 321.450601 234.180923 
L 322.826256 232.630154 
L 324.201911 233.664 
L 326.95322 231.596308 
L 328.328875 232.630154 
L 329.70453 233.147077 
L 331.080185 229.528615 
L 332.45584 230.562462 
L 333.831495 230.562462 
L 335.207149 231.079385 
L 336.582804 230.562462 
L 337.958459 231.596308 
L 339.334114 229.528615 
L 340.709769 230.562462 
L 342.085424 229.528615 
L 343.461079 231.079385 
L 344.836733 221.774769 
L 346.212388 220.224 
L 347.588043 221.257846 
L 348.963698 221.774769 
L 350.339353 220.740923 
L 351.715008 222.291692 
L 353.090663 220.740923 
L 357.217627 222.291692 
L 358.593282 230.562462 
L 359.968937 229.011692 
L 361.344592 229.011692 
L 362.720247 228.494769 
L 364.095901 229.011692 
L 365.471556 229.011692 
L 366.847211 231.079385 
L 368.222866 229.528615 
L 369.598521 229.011692 
L 370.974176 229.528615 
L 373.725485 233.664 
L 375.10114 233.664 
L 376.476795 232.630154 
L 377.85245 235.731692 
L 379.228105 234.180923 
L 380.60376 231.079385 
L 381.979414 232.630154 
L 383.355069 233.664 
L 384.730724 232.113231 
L 386.106379 228.494769 
L 387.482034 230.045538 
L 388.857689 229.011692 
L 390.233344 229.528615 
L 391.608998 226.944 
L 392.984653 229.011692 
L 395.735963 229.011692 
L 397.111618 227.460923 
L 398.487273 229.011692 
L 398.487273 229.011692 
" clip-path="url(#pcfffe4ff1f)" style="fill: none; stroke: #ff0000; stroke-width: 1.5; stroke-linecap: square"/>
   </g>
   <g id="patch_18">
    <path d="M 57.6 248.448 
L 57.6 218.88 
" style="fill: none; stroke: #000000; stroke-width: 0.8; stroke-linejoin: miter; stroke-linecap: square"/>
   </g>
   <g id="patch_19">
    <path d="M 414.72 248.448 
L 414.72 218.88 
" style="fill: none; stroke: #000000; stroke-width: 0.8; stroke-linejoin: miter; stroke-linecap: square"/>
   </g>
   <g id="patch_20">
    <path d="M 57.6 248.448 
L 414.72 248.448 
" style="fill: none; stroke: #000000; stroke-width: 0.8; stroke-linejoin: miter; stroke-linecap: square"/>
   </g>
   <g id="patch_21">
    <path d="M 57.6 218.88 
L 414.72 218.88 
" style="fill: none; stroke: #000000; stroke-width: 0.8; stroke-linejoin: miter; stroke-linecap: square"/>
   </g>
   <g id="text_34">
    <!-- ssim -->
    <g transform="translate(222.3975 212.88)scale(0.12 -0.12)">
     <defs>
      <path id="DejaVuSans-69" d="M 603 3500 
L 1178 3500 
L 1178 0 
L 603 0 
L 603 3500 
z
M 603 4863 
L 1178 4863 
L 1178 4134 
L 603 4134 
L 603 4863 
z
" transform="scale(0.015625)"/>
     </defs>
     <use xlink:href="#DejaVuSans-73"/>
     <use xlink:href="#DejaVuSans-73" x="52.099609"/>
     <use xlink:href="#DejaVuSans-69" x="104.199219"/>
     <use xlink:href="#DejaVuSans-6d" x="131.982422"/>
    </g>
   </g>
  </g>
  <g id="axes_5">
   <g id="patch_22">
    <path d="M 57.6 307.584 
L 414.72 307.584 
L 414.72 278.016 
L 57.6 278.016 
z
" style="fill: #ffffff"/>
   </g>
   <g id="matplotlib.axis_9">
    <g id="xtick_21">
     <g id="line2d_35">
      <g>
       <use xlink:href="#m3be3dbfb34" x="95.843205" y="307.584" style="stroke: #000000; stroke-width: 0.8"/>
      </g>
     </g>
     <g id="text_35">
      <!-- 300000 -->
      <g transform="translate(76.755705 322.182437)scale(0.1 -0.1)">
       <use xlink:href="#DejaVuSans-33"/>
       <use xlink:href="#DejaVuSans-30" x="63.623047"/>
       <use xlink:href="#DejaVuSans-30" x="127.246094"/>
       <use xlink:href="#DejaVuSans-30" x="190.869141"/>
       <use xlink:href="#DejaVuSans-30" x="254.492188"/>
       <use xlink:href="#DejaVuSans-30" x="318.115234"/>
      </g>
     </g>
    </g>
    <g id="xtick_22">
     <g id="line2d_36">
      <g>
       <use xlink:href="#m3be3dbfb34" x="164.625948" y="307.584" style="stroke: #000000; stroke-width: 0.8"/>
      </g>
     </g>
     <g id="text_36">
      <!-- 350000 -->
      <g transform="translate(145.538448 322.182437)scale(0.1 -0.1)">
       <use xlink:href="#DejaVuSans-33"/>
       <use xlink:href="#DejaVuSans-35" x="63.623047"/>
       <use xlink:href="#DejaVuSans-30" x="127.246094"/>
       <use xlink:href="#DejaVuSans-30" x="190.869141"/>
       <use xlink:href="#DejaVuSans-30" x="254.492188"/>
       <use xlink:href="#DejaVuSans-30" x="318.115234"/>
      </g>
     </g>
    </g>
    <g id="xtick_23">
     <g id="line2d_37">
      <g>
       <use xlink:href="#m3be3dbfb34" x="233.40869" y="307.584" style="stroke: #000000; stroke-width: 0.8"/>
      </g>
     </g>
     <g id="text_37">
      <!-- 400000 -->
      <g transform="translate(214.32119 322.182437)scale(0.1 -0.1)">
       <use xlink:href="#DejaVuSans-34"/>
       <use xlink:href="#DejaVuSans-30" x="63.623047"/>
       <use xlink:href="#DejaVuSans-30" x="127.246094"/>
       <use xlink:href="#DejaVuSans-30" x="190.869141"/>
       <use xlink:href="#DejaVuSans-30" x="254.492188"/>
       <use xlink:href="#DejaVuSans-30" x="318.115234"/>
      </g>
     </g>
    </g>
    <g id="xtick_24">
     <g id="line2d_38">
      <g>
       <use xlink:href="#m3be3dbfb34" x="302.191433" y="307.584" style="stroke: #000000; stroke-width: 0.8"/>
      </g>
     </g>
     <g id="text_38">
      <!-- 450000 -->
      <g transform="translate(283.103933 322.182437)scale(0.1 -0.1)">
       <use xlink:href="#DejaVuSans-34"/>
       <use xlink:href="#DejaVuSans-35" x="63.623047"/>
       <use xlink:href="#DejaVuSans-30" x="127.246094"/>
       <use xlink:href="#DejaVuSans-30" x="190.869141"/>
       <use xlink:href="#DejaVuSans-30" x="254.492188"/>
       <use xlink:href="#DejaVuSans-30" x="318.115234"/>
      </g>
     </g>
    </g>
    <g id="xtick_25">
     <g id="line2d_39">
      <g>
       <use xlink:href="#m3be3dbfb34" x="370.974176" y="307.584" style="stroke: #000000; stroke-width: 0.8"/>
      </g>
     </g>
     <g id="text_39">
      <!-- 500000 -->
      <g transform="translate(351.886676 322.182437)scale(0.1 -0.1)">
       <use xlink:href="#DejaVuSans-35"/>
       <use xlink:href="#DejaVuSans-30" x="63.623047"/>
       <use xlink:href="#DejaVuSans-30" x="127.246094"/>
       <use xlink:href="#DejaVuSans-30" x="190.869141"/>
       <use xlink:href="#DejaVuSans-30" x="254.492188"/>
       <use xlink:href="#DejaVuSans-30" x="318.115234"/>
      </g>
     </g>
    </g>
   </g>
   <g id="matplotlib.axis_10">
    <g id="ytick_11">
     <g id="line2d_40">
      <g>
       <use xlink:href="#me70c918e7d" x="57.6" y="305.033678" style="stroke: #000000; stroke-width: 0.8"/>
      </g>
     </g>
     <g id="text_40">
      <!-- 15 -->
      <g transform="translate(37.875 308.832897)scale(0.1 -0.1)">
       <use xlink:href="#DejaVuSans-31"/>
       <use xlink:href="#DejaVuSans-35" x="63.623047"/>
      </g>
     </g>
    </g>
    <g id="ytick_12">
     <g id="line2d_41">
      <g>
       <use xlink:href="#me70c918e7d" x="57.6" y="291.921483" style="stroke: #000000; stroke-width: 0.8"/>
      </g>
     </g>
     <g id="text_41">
      <!-- 20 -->
      <g transform="translate(37.875 295.720702)scale(0.1 -0.1)">
       <use xlink:href="#DejaVuSans-32"/>
       <use xlink:href="#DejaVuSans-30" x="63.623047"/>
      </g>
     </g>
    </g>
    <g id="ytick_13">
     <g id="line2d_42">
      <g>
       <use xlink:href="#me70c918e7d" x="57.6" y="278.809288" style="stroke: #000000; stroke-width: 0.8"/>
      </g>
     </g>
     <g id="text_42">
      <!-- 25 -->
      <g transform="translate(37.875 282.608507)scale(0.1 -0.1)">
       <use xlink:href="#DejaVuSans-32"/>
       <use xlink:href="#DejaVuSans-35" x="63.623047"/>
      </g>
     </g>
    </g>
   </g>
   <g id="line2d_43">
    <path d="M 73.832727 288.045518 
L 75.208382 289.139075 
L 76.584037 287.460714 
L 77.959692 289.4459 
L 79.335347 287.694111 
L 80.711002 288.014049 
L 82.086656 288.0901 
L 83.462311 291.874279 
L 84.837966 289.257085 
L 86.213621 289.569155 
L 87.589276 287.279766 
L 88.964931 285.61714 
L 90.340586 288.719485 
L 91.71624 289.453768 
L 93.091895 285.4021 
L 94.46755 284.953662 
L 95.843205 286.487789 
L 97.21886 288.91879 
L 98.594515 288.827005 
L 99.970169 290.96167 
L 101.345824 289.299044 
L 102.721479 290.038572 
L 104.097134 289.511461 
L 105.472789 286.841819 
L 106.848444 288.777179 
L 108.224099 285.905608 
L 110.975408 298.107817 
L 112.351063 297.027372 
L 113.726718 297.926868 
L 115.102373 296.641873 
L 116.478028 297.606931 
L 119.229337 296.534353 
L 120.604992 298.008164 
L 121.980647 296.571067 
L 123.356302 299.518689 
L 124.731957 296.274732 
L 126.107612 297.043106 
L 127.483267 294.06926 
L 128.858921 293.607711 
L 130.234576 293.770302 
L 131.610231 297.200453 
L 132.985886 295.49849 
L 134.361541 296.738903 
L 135.737196 297.21881 
L 137.112851 291.879524 
L 138.488505 285.556823 
L 139.86416 288.782423 
L 141.239815 287.075216 
L 142.61547 287.964222 
L 143.991125 286.02624 
L 145.36678 285.021846 
L 146.742435 286.773635 
L 148.118089 284.707153 
L 149.493744 286.222923 
L 150.869399 285.042825 
L 152.245054 285.087407 
L 153.620709 279.36 
L 154.996364 281.457951 
L 156.372018 280.374884 
L 157.747673 282.504304 
L 159.123328 283.115333 
L 160.498983 284.001717 
L 161.874638 284.641592 
L 163.250293 282.839977 
L 164.625948 284.166931 
L 166.001602 281.756909 
L 167.377257 286.621534 
L 168.752912 286.422228 
L 170.128567 285.226396 
L 171.504222 284.801561 
L 172.879877 281.455329 
L 174.255532 285.396855 
L 177.006841 283.264812 
L 178.382496 284.539317 
L 179.758151 283.689647 
L 181.133806 282.158142 
L 182.509461 285.39161 
L 183.885116 283.700137 
L 185.26077 284.033186 
L 186.636425 282.816375 
L 188.01208 285.396855 
L 189.387735 285.664343 
L 190.76339 286.146872 
L 192.139045 285.745639 
L 193.5147 296.366517 
L 194.890354 293.730966 
L 196.266009 296.303579 
L 197.641664 291.622525 
L 199.017319 297.200453 
L 201.768629 294.926798 
L 203.144284 296.891005 
L 204.519938 295.842029 
L 205.895593 295.254603 
L 207.271248 289.613737 
L 208.646903 286.32782 
L 210.022558 289.283309 
L 212.773867 285.643364 
L 214.149522 290.195918 
L 215.525177 287.990447 
L 216.900832 287.211582 
L 218.276487 290.764987 
L 219.652142 290.869885 
L 221.027797 299.206619 
L 222.403451 296.851668 
L 223.779106 295.962661 
L 225.154761 297.800991 
L 226.530416 298.600835 
L 227.906071 296.838556 
L 229.281726 300.76697 
L 230.657381 297.132269 
L 232.033035 298.377928 
L 233.40869 297.203075 
L 234.784345 300.698786 
L 236.16 297.929491 
L 237.535655 296.953943 
L 238.91131 299.725861 
L 241.662619 298.991579 
L 243.038274 300.211013 
L 244.413929 299.316761 
L 245.789584 299.303649 
L 247.165239 298.805385 
L 248.540894 296.631383 
L 249.916549 298.123551 
L 251.292203 294.050903 
L 252.667858 297.231922 
L 254.043513 297.793124 
L 255.419168 298.233694 
L 256.794823 296.68121 
L 258.170478 297.44434 
L 259.546133 300.989877 
L 260.921787 299.460995 
L 262.297442 297.239789 
L 263.673097 297.612176 
L 265.048752 298.322857 
L 266.424407 299.177772 
L 267.800062 295.883988 
L 269.175716 295.768601 
L 270.551371 297.347309 
L 271.927026 297.525635 
L 273.302681 298.07897 
L 274.678336 298.970599 
L 276.053991 303.753928 
L 277.429646 303.635918 
L 278.8053 301.370131 
L 280.180955 304.582619 
L 281.55661 302.524004 
L 282.932265 303.57298 
L 284.30792 304.155161 
L 285.683575 305.214626 
L 287.05923 305.537186 
L 288.434884 302.786248 
L 289.810539 290.817436 
L 291.186194 290.416203 
L 292.561849 290.355887 
L 293.937504 290.051684 
L 295.313159 290.694181 
L 296.688814 290.020215 
L 298.064468 292.16537 
L 299.440123 292.178482 
L 300.815778 290.888242 
L 302.191433 290.7781 
L 303.567088 291.871657 
L 304.942743 295.637479 
L 306.318398 292.834092 
L 307.694052 291.564831 
L 309.069707 295.435551 
L 310.445362 293.476589 
L 311.821017 293.43463 
L 313.196672 294.945155 
L 314.572327 293.051754 
L 315.947982 294.147934 
L 317.323636 294.701268 
L 318.699291 291.449444 
L 320.074946 298.653284 
L 321.450601 295.196909 
L 322.826256 297.898021 
L 324.201911 295.409327 
L 325.577565 294.121709 
L 326.95322 297.410248 
L 328.328875 294.415422 
L 329.70453 295.834162 
L 331.080185 299.697015 
L 332.45584 298.149776 
L 333.831495 297.399758 
L 335.207149 298.944375 
L 336.582804 300.31591 
L 337.958459 299.185639 
L 339.334114 299.87534 
L 340.709769 300.176921 
L 342.085424 299.801912 
L 343.461079 298.818498 
L 344.836733 304.511813 
L 346.212388 305.857124 
L 347.588043 304.278416 
L 348.963698 306.24 
L 350.339353 304.653424 
L 351.715008 305.48736 
L 353.090663 305.524074 
L 354.466317 305.316901 
L 355.841972 305.521452 
L 357.217627 305.539809 
L 358.593282 295.645346 
L 359.968937 293.786037 
L 361.344592 294.811411 
L 362.720247 295.14446 
L 364.095901 296.075426 
L 366.847211 293.754568 
L 368.222866 295.356878 
L 369.598521 293.951251 
L 370.974176 293.605089 
L 372.349831 298.92864 
L 373.725485 298.503805 
L 375.10114 299.636699 
L 376.476795 298.569366 
L 377.85245 297.148004 
L 379.228105 299.704882 
L 380.60376 300.617491 
L 381.979414 299.2512 
L 383.355069 295.29394 
L 384.730724 299.697015 
L 386.106379 298.944375 
L 387.482034 297.612176 
L 388.857689 295.978396 
L 390.233344 297.457452 
L 391.608998 299.592117 
L 392.984653 298.818498 
L 394.360308 297.00377 
L 395.735963 299.655056 
L 397.111618 299.796667 
L 398.487273 299.398057 
L 398.487273 299.398057 
" clip-path="url(#pb37996c403)" style="fill: none; stroke: #7fffd4; stroke-width: 1.5; stroke-linecap: square"/>
   </g>
   <g id="patch_23">
    <path d="M 57.6 307.584 
L 57.6 278.016 
" style="fill: none; stroke: #000000; stroke-width: 0.8; stroke-linejoin: miter; stroke-linecap: square"/>
   </g>
   <g id="patch_24">
    <path d="M 414.72 307.584 
L 414.72 278.016 
" style="fill: none; stroke: #000000; stroke-width: 0.8; stroke-linejoin: miter; stroke-linecap: square"/>
   </g>
   <g id="patch_25">
    <path d="M 57.6 307.584 
L 414.72 307.584 
" style="fill: none; stroke: #000000; stroke-width: 0.8; stroke-linejoin: miter; stroke-linecap: square"/>
   </g>
   <g id="patch_26">
    <path d="M 57.6 278.016 
L 414.72 278.016 
" style="fill: none; stroke: #000000; stroke-width: 0.8; stroke-linejoin: miter; stroke-linecap: square"/>
   </g>
   <g id="text_43">
    <!-- lpips -->
    <g transform="translate(222.0825 272.016)scale(0.12 -0.12)">
     <defs>
      <path id="DejaVuSans-6c" d="M 603 4863 
L 1178 4863 
L 1178 0 
L 603 0 
L 603 4863 
z
" transform="scale(0.015625)"/>
     </defs>
     <use xlink:href="#DejaVuSans-6c"/>
     <use xlink:href="#DejaVuSans-70" x="27.783203"/>
     <use xlink:href="#DejaVuSans-69" x="91.259766"/>
     <use xlink:href="#DejaVuSans-70" x="119.042969"/>
     <use xlink:href="#DejaVuSans-73" x="182.519531"/>
    </g>
   </g>
  </g>
 </g>
 <defs>
  <clipPath id="pd21c5f3034">
   <rect x="57.6" y="41.472" width="357.12" height="29.568"/>
  </clipPath>
  <clipPath id="pc8da5d3dfb">
   <rect x="57.6" y="100.608" width="357.12" height="29.568"/>
  </clipPath>
  <clipPath id="p87f4d63916">
   <rect x="57.6" y="159.744" width="357.12" height="29.568"/>
  </clipPath>
  <clipPath id="pcfffe4ff1f">
   <rect x="57.6" y="218.88" width="357.12" height="29.568"/>
  </clipPath>
  <clipPath id="pb37996c403">
   <rect x="57.6" y="278.016" width="357.12" height="29.568"/>
  </clipPath>
 </defs>
</svg>
