<?xml version="1.0" encoding="utf-8" standalone="no"?>
<!DOCTYPE svg PUBLIC "-//W3C//DTD SVG 1.1//EN"
  "http://www.w3.org/Graphics/SVG/1.1/DTD/svg11.dtd">
<svg xmlns:xlink="http://www.w3.org/1999/xlink" width="460.8pt" height="345.6pt" viewBox="0 0 460.8 345.6" xmlns="http://www.w3.org/2000/svg" version="1.1">
 <metadata>
  <rdf:RDF xmlns:dc="http://purl.org/dc/elements/1.1/" xmlns:cc="http://creativecommons.org/ns#" xmlns:rdf="http://www.w3.org/1999/02/22-rdf-syntax-ns#">
   <cc:Work>
    <dc:type rdf:resource="http://purl.org/dc/dcmitype/StillImage"/>
    <dc:date>2023-04-21T20:34:46.341222</dc:date>
    <dc:format>image/svg+xml</dc:format>
    <dc:creator>
     <cc:Agent>
      <dc:title>Matplotlib v3.5.1, https://matplotlib.org/</dc:title>
     </cc:Agent>
    </dc:creator>
   </cc:Work>
  </rdf:RDF>
 </metadata>
 <defs>
  <style type="text/css">*{stroke-linejoin: round; stroke-linecap: butt}</style>
 </defs>
 <g id="figure_1">
  <g id="patch_1">
   <path d="M 0 345.6 
L 460.8 345.6 
L 460.8 0 
L 0 0 
z
" style="fill: #ffffff"/>
  </g>
  <g id="axes_1">
   <g id="patch_2">
    <path d="M 57.6 71.04 
L 414.72 71.04 
L 414.72 41.472 
L 57.6 41.472 
z
" style="fill: #ffffff"/>
   </g>
   <g id="matplotlib.axis_1">
    <g id="xtick_1">
     <g id="line2d_1">
      <defs>
       <path id="mb1e99ba1a0" d="M 0 0 
L 0 3.5 
" style="stroke: #000000; stroke-width: 0.8"/>
      </defs>
      <g>
       <use xlink:href="#mb1e99ba1a0" x="104.649825" y="71.04" style="stroke: #000000; stroke-width: 0.8"/>
      </g>
     </g>
     <g id="text_1">
      <!-- 100000 -->
      <g transform="translate(85.562325 85.638437)scale(0.1 -0.1)">
       <defs>
        <path id="DejaVuSans-31" d="M 794 531 
L 1825 531 
L 1825 4091 
L 703 3866 
L 703 4441 
L 1819 4666 
L 2450 4666 
L 2450 531 
L 3481 531 
L 3481 0 
L 794 0 
L 794 531 
z
" transform="scale(0.015625)"/>
        <path id="DejaVuSans-30" d="M 2034 4250 
Q 1547 4250 1301 3770 
Q 1056 3291 1056 2328 
Q 1056 1369 1301 889 
Q 1547 409 2034 409 
Q 2525 409 2770 889 
Q 3016 1369 3016 2328 
Q 3016 3291 2770 3770 
Q 2525 4250 2034 4250 
z
M 2034 4750 
Q 2819 4750 3233 4129 
Q 3647 3509 3647 2328 
Q 3647 1150 3233 529 
Q 2819 -91 2034 -91 
Q 1250 -91 836 529 
Q 422 1150 422 2328 
Q 422 3509 836 4129 
Q 1250 4750 2034 4750 
z
" transform="scale(0.015625)"/>
       </defs>
       <use xlink:href="#DejaVuSans-31"/>
       <use xlink:href="#DejaVuSans-30" x="63.623047"/>
       <use xlink:href="#DejaVuSans-30" x="127.246094"/>
       <use xlink:href="#DejaVuSans-30" x="190.869141"/>
       <use xlink:href="#DejaVuSans-30" x="254.492188"/>
       <use xlink:href="#DejaVuSans-30" x="318.115234"/>
      </g>
     </g>
    </g>
    <g id="xtick_2">
     <g id="line2d_2">
      <g>
       <use xlink:href="#mb1e99ba1a0" x="176.317495" y="71.04" style="stroke: #000000; stroke-width: 0.8"/>
      </g>
     </g>
     <g id="text_2">
      <!-- 200000 -->
      <g transform="translate(157.229995 85.638437)scale(0.1 -0.1)">
       <defs>
        <path id="DejaVuSans-32" d="M 1228 531 
L 3431 531 
L 3431 0 
L 469 0 
L 469 531 
Q 828 903 1448 1529 
Q 2069 2156 2228 2338 
Q 2531 2678 2651 2914 
Q 2772 3150 2772 3378 
Q 2772 3750 2511 3984 
Q 2250 4219 1831 4219 
Q 1534 4219 1204 4116 
Q 875 4013 500 3803 
L 500 4441 
Q 881 4594 1212 4672 
Q 1544 4750 1819 4750 
Q 2544 4750 2975 4387 
Q 3406 4025 3406 3419 
Q 3406 3131 3298 2873 
Q 3191 2616 2906 2266 
Q 2828 2175 2409 1742 
Q 1991 1309 1228 531 
z
" transform="scale(0.015625)"/>
       </defs>
       <use xlink:href="#DejaVuSans-32"/>
       <use xlink:href="#DejaVuSans-30" x="63.623047"/>
       <use xlink:href="#DejaVuSans-30" x="127.246094"/>
       <use xlink:href="#DejaVuSans-30" x="190.869141"/>
       <use xlink:href="#DejaVuSans-30" x="254.492188"/>
       <use xlink:href="#DejaVuSans-30" x="318.115234"/>
      </g>
     </g>
    </g>
    <g id="xtick_3">
     <g id="line2d_3">
      <g>
       <use xlink:href="#mb1e99ba1a0" x="247.985166" y="71.04" style="stroke: #000000; stroke-width: 0.8"/>
      </g>
     </g>
     <g id="text_3">
      <!-- 300000 -->
      <g transform="translate(228.897666 85.638437)scale(0.1 -0.1)">
       <defs>
        <path id="DejaVuSans-33" d="M 2597 2516 
Q 3050 2419 3304 2112 
Q 3559 1806 3559 1356 
Q 3559 666 3084 287 
Q 2609 -91 1734 -91 
Q 1441 -91 1130 -33 
Q 819 25 488 141 
L 488 750 
Q 750 597 1062 519 
Q 1375 441 1716 441 
Q 2309 441 2620 675 
Q 2931 909 2931 1356 
Q 2931 1769 2642 2001 
Q 2353 2234 1838 2234 
L 1294 2234 
L 1294 2753 
L 1863 2753 
Q 2328 2753 2575 2939 
Q 2822 3125 2822 3475 
Q 2822 3834 2567 4026 
Q 2313 4219 1838 4219 
Q 1578 4219 1281 4162 
Q 984 4106 628 3988 
L 628 4550 
Q 988 4650 1302 4700 
Q 1616 4750 1894 4750 
Q 2613 4750 3031 4423 
Q 3450 4097 3450 3541 
Q 3450 3153 3228 2886 
Q 3006 2619 2597 2516 
z
" transform="scale(0.015625)"/>
       </defs>
       <use xlink:href="#DejaVuSans-33"/>
       <use xlink:href="#DejaVuSans-30" x="63.623047"/>
       <use xlink:href="#DejaVuSans-30" x="127.246094"/>
       <use xlink:href="#DejaVuSans-30" x="190.869141"/>
       <use xlink:href="#DejaVuSans-30" x="254.492188"/>
       <use xlink:href="#DejaVuSans-30" x="318.115234"/>
      </g>
     </g>
    </g>
    <g id="xtick_4">
     <g id="line2d_4">
      <g>
       <use xlink:href="#mb1e99ba1a0" x="319.652836" y="71.04" style="stroke: #000000; stroke-width: 0.8"/>
      </g>
     </g>
     <g id="text_4">
      <!-- 400000 -->
      <g transform="translate(300.565336 85.638437)scale(0.1 -0.1)">
       <defs>
        <path id="DejaVuSans-34" d="M 2419 4116 
L 825 1625 
L 2419 1625 
L 2419 4116 
z
M 2253 4666 
L 3047 4666 
L 3047 1625 
L 3713 1625 
L 3713 1100 
L 3047 1100 
L 3047 0 
L 2419 0 
L 2419 1100 
L 313 1100 
L 313 1709 
L 2253 4666 
z
" transform="scale(0.015625)"/>
       </defs>
       <use xlink:href="#DejaVuSans-34"/>
       <use xlink:href="#DejaVuSans-30" x="63.623047"/>
       <use xlink:href="#DejaVuSans-30" x="127.246094"/>
       <use xlink:href="#DejaVuSans-30" x="190.869141"/>
       <use xlink:href="#DejaVuSans-30" x="254.492188"/>
       <use xlink:href="#DejaVuSans-30" x="318.115234"/>
      </g>
     </g>
    </g>
    <g id="xtick_5">
     <g id="line2d_5">
      <g>
       <use xlink:href="#mb1e99ba1a0" x="391.320506" y="71.04" style="stroke: #000000; stroke-width: 0.8"/>
      </g>
     </g>
     <g id="text_5">
      <!-- 500000 -->
      <g transform="translate(372.233006 85.638437)scale(0.1 -0.1)">
       <defs>
        <path id="DejaVuSans-35" d="M 691 4666 
L 3169 4666 
L 3169 4134 
L 1269 4134 
L 1269 2991 
Q 1406 3038 1543 3061 
Q 1681 3084 1819 3084 
Q 2600 3084 3056 2656 
Q 3513 2228 3513 1497 
Q 3513 744 3044 326 
Q 2575 -91 1722 -91 
Q 1428 -91 1123 -41 
Q 819 9 494 109 
L 494 744 
Q 775 591 1075 516 
Q 1375 441 1709 441 
Q 2250 441 2565 725 
Q 2881 1009 2881 1497 
Q 2881 1984 2565 2268 
Q 2250 2553 1709 2553 
Q 1456 2553 1204 2497 
Q 953 2441 691 2322 
L 691 4666 
z
" transform="scale(0.015625)"/>
       </defs>
       <use xlink:href="#DejaVuSans-35"/>
       <use xlink:href="#DejaVuSans-30" x="63.623047"/>
       <use xlink:href="#DejaVuSans-30" x="127.246094"/>
       <use xlink:href="#DejaVuSans-30" x="190.869141"/>
       <use xlink:href="#DejaVuSans-30" x="254.492188"/>
       <use xlink:href="#DejaVuSans-30" x="318.115234"/>
      </g>
     </g>
    </g>
   </g>
   <g id="matplotlib.axis_2">
    <g id="ytick_1">
     <g id="line2d_6">
      <defs>
       <path id="mc87374b8f4" d="M 0 0 
L -3.5 0 
" style="stroke: #000000; stroke-width: 0.8"/>
      </defs>
      <g>
       <use xlink:href="#mc87374b8f4" x="57.6" y="57.935299" style="stroke: #000000; stroke-width: 0.8"/>
      </g>
     </g>
     <g id="text_6">
      <!-- 25 -->
      <g transform="translate(37.875 61.734518)scale(0.1 -0.1)">
       <use xlink:href="#DejaVuSans-32"/>
       <use xlink:href="#DejaVuSans-35" x="63.623047"/>
      </g>
     </g>
    </g>
    <g id="ytick_2">
     <g id="line2d_7">
      <g>
       <use xlink:href="#mc87374b8f4" x="57.6" y="43.917777" style="stroke: #000000; stroke-width: 0.8"/>
      </g>
     </g>
     <g id="text_7">
      <!-- 30 -->
      <g transform="translate(37.875 47.716996)scale(0.1 -0.1)">
       <use xlink:href="#DejaVuSans-33"/>
       <use xlink:href="#DejaVuSans-30" x="63.623047"/>
      </g>
     </g>
    </g>
   </g>
   <g id="line2d_8">
    <path d="M 73.832727 47.388516 
L 74.549404 43.264561 
L 75.266081 44.556976 
L 75.982757 44.257001 
L 76.699434 42.816 
L 77.416111 48.602433 
L 78.132787 48.100606 
L 78.849464 52.844135 
L 79.566141 50.259304 
L 80.282818 48.916426 
L 80.999494 52.631069 
L 81.716171 49.617302 
L 82.432848 49.628516 
L 83.149524 51.319029 
L 83.866201 52.089992 
L 84.582878 55.157026 
L 85.299554 52.813297 
L 86.016231 55.563534 
L 86.732908 55.420556 
L 87.449585 56.157877 
L 88.166261 49.883635 
L 88.882938 50.665812 
L 89.599615 50.562083 
L 90.316291 50.668616 
L 91.032968 52.132045 
L 91.749645 52.460055 
L 92.466321 51.476025 
L 93.182998 51.341457 
L 93.899675 52.911419 
L 94.616352 54.181407 
L 95.333028 51.490043 
L 96.049705 52.734798 
L 96.766382 56.028916 
L 97.483058 55.726138 
L 98.199735 57.531594 
L 98.916412 58.770743 
L 99.633089 58.678228 
L 101.066442 58.041832 
L 101.783119 50.878879 
L 102.499795 47.781006 
L 103.216472 49.948115 
L 103.933149 51.680681 
L 104.649825 49.939705 
L 105.366502 53.772095 
L 106.083179 53.30391 
L 106.799856 50.466763 
L 107.516532 55.59998 
L 108.233209 54.380456 
L 108.949886 52.555374 
L 109.666562 54.276726 
L 110.383239 57.666163 
L 111.099916 57.237227 
L 111.816592 54.453347 
L 112.533269 54.467364 
L 113.249946 55.339254 
L 113.966623 57.83998 
L 114.683299 57.383009 
L 115.399976 55.726138 
L 116.116653 54.360831 
L 116.833329 53.376801 
L 117.550006 53.982358 
L 118.266683 50.105111 
L 118.983359 53.598278 
L 119.700036 53.009542 
L 120.416713 51.871319 
L 121.13339 57.391419 
L 121.850066 57.722233 
L 122.566743 54.29635 
L 123.28342 58.411895 
L 124.000096 54.747715 
L 124.716773 55.538303 
L 126.150126 58.958578 
L 126.866803 60.660305 
L 127.58348 59.564135 
L 128.300157 58.981006 
L 129.016833 52.639479 
L 129.73351 50.264911 
L 130.450187 50.222859 
L 131.166863 51.717126 
L 131.88354 53.598278 
L 132.600217 53.438478 
L 133.316893 53.601081 
L 134.03357 57.161532 
L 134.750247 56.926038 
L 135.466924 55.10376 
L 136.1836 56.376551 
L 136.900277 58.437126 
L 137.616954 58.526839 
L 138.33363 59.922984 
L 139.050307 57.108265 
L 139.766984 59.073522 
L 140.48366 59.850093 
L 141.200337 58.504411 
L 141.917014 62.922733 
L 142.633691 57.758678 
L 143.350367 56.79988 
L 144.067044 56.370944 
L 144.783721 55.675675 
L 145.500397 53.553422 
L 146.217074 55.210293 
L 146.933751 54.666413 
L 147.650427 58.815599 
L 148.367104 58.075474 
L 149.083781 55.947615 
L 149.800458 60.581807 
L 150.517134 57.273672 
L 151.233811 59.743559 
L 151.950488 59.294999 
L 152.667164 59.79963 
L 153.383841 61.34436 
L 154.100518 61.745262 
L 154.817194 60.321081 
L 155.533871 59.676275 
L 156.250548 52.731995 
L 156.967225 53.948716 
L 157.683901 54.529041 
L 158.400578 54.416901 
L 159.117255 57.223209 
L 159.833931 57.716626 
L 160.550608 57.293297 
L 161.267285 57.890443 
L 161.983961 59.880931 
L 162.700638 59.353872 
L 163.417315 60.503309 
L 164.133992 57.054999 
L 165.567345 62.126538 
L 166.284022 61.024761 
L 167.000698 62.353622 
L 167.717375 58.916526 
L 168.434052 61.520981 
L 169.150728 62.824611 
L 169.867405 59.43237 
L 170.584082 56.883985 
L 171.300759 55.479429 
L 172.017435 57.853997 
L 172.734112 55.364486 
L 173.450789 58.339004 
L 174.167465 57.806338 
L 174.884142 58.176401 
L 175.600819 57.301707 
L 176.317495 58.137151 
L 177.034172 60.898603 
L 177.750849 60.071569 
L 178.467526 62.802183 
L 179.184202 60.091194 
L 179.900879 60.365937 
L 180.617556 62.746113 
L 181.334232 63.629217 
L 182.050909 63.660055 
L 182.767586 62.978804 
L 183.484262 55.995274 
L 184.200939 57.859605 
L 184.917616 56.564385 
L 185.634293 56.889592 
L 186.350969 59.662258 
L 187.067646 60.382758 
L 188.500999 59.928591 
L 189.217676 59.070718 
L 189.934353 61.961131 
L 190.65103 59.715524 
L 191.367706 59.14361 
L 192.084383 61.198578 
L 192.80106 60.343509 
L 193.517736 58.700656 
L 194.234413 59.457602 
L 194.95109 63.690894 
L 195.667766 63.326438 
L 196.384443 62.726488 
L 197.10112 58.193222 
L 197.817797 57.551219 
L 198.534473 57.380205 
L 199.25115 56.054148 
L 199.967827 59.387514 
L 200.684503 55.336451 
L 201.40118 60.590218 
L 202.117857 56.698954 
L 202.834533 60.018303 
L 203.55121 59.210894 
L 204.267887 61.170543 
L 204.984564 60.405186 
L 205.70124 60.08839 
L 206.417917 61.997577 
L 207.134594 62.148966 
L 207.85127 60.766839 
L 208.567947 62.076075 
L 209.284624 62.47978 
L 210.0013 63.875925 
L 210.717977 54.806588 
L 211.434654 58.364235 
L 212.868007 56.412996 
L 213.584684 54.601932 
L 214.301361 58.812796 
L 215.018037 59.937001 
L 215.734714 61.38361 
L 217.168067 61.899454 
L 217.884744 60.116426 
L 218.601421 61.972345 
L 219.318098 63.435775 
L 220.034774 61.579855 
L 220.751451 63.418954 
L 221.468128 64.565587 
L 222.184804 63.564736 
L 222.901481 62.87227 
L 223.618158 63.547915 
L 224.334834 60.231369 
L 225.051511 58.574498 
L 225.768188 60.279029 
L 226.484865 57.649342 
L 227.201541 60.766839 
L 227.918218 62.339605 
L 228.634895 61.240631 
L 229.351571 61.938703 
L 230.068248 60.595825 
L 230.784925 60.539755 
L 231.501601 60.23978 
L 232.218278 63.068516 
L 232.934955 63.30401 
L 233.651632 65.729041 
L 234.368308 64.445036 
L 235.084985 64.004886 
L 235.801662 63.197477 
L 236.518338 61.677977 
L 237.235015 63.581557 
L 237.951692 57.528791 
L 238.668368 58.667014 
L 239.385045 57.391419 
L 240.101722 59.723935 
L 240.818399 58.76794 
L 241.535075 60.063159 
L 242.251752 60.531344 
L 242.968429 61.431269 
L 243.685105 63.034874 
L 244.401782 65.900055 
L 245.118459 63.379705 
L 245.835135 64.742208 
L 246.551812 63.004035 
L 247.268489 64.773046 
L 247.985166 64.602033 
L 248.701842 66.08789 
L 249.418519 64.596426 
L 250.135196 65.636526 
L 250.851872 63.901156 
L 251.568549 62.841432 
L 252.285226 60.393972 
L 253.001902 60.671519 
L 253.718579 59.642633 
L 254.435256 62.202233 
L 255.151933 61.139705 
L 255.868609 62.241482 
L 256.585286 59.791219 
L 257.301963 64.100205 
L 258.018639 62.804986 
L 258.735316 65.757076 
L 259.451993 62.303159 
L 260.168669 64.489892 
L 261.602023 62.589116 
L 262.3187 64.145061 
L 263.035376 63.62361 
L 263.752053 65.552421 
L 264.46873 64.733797 
L 265.185406 58.32779 
L 265.902083 58.100706 
L 266.61876 58.010994 
L 268.052113 60.808891 
L 268.76879 60.607039 
L 269.485467 60.147264 
L 270.202143 62.628365 
L 270.91882 62.073272 
L 271.635497 59.261357 
L 272.352173 59.196876 
L 273.06885 60.461257 
L 273.785527 64.711369 
L 274.502203 62.824611 
L 275.21888 63.561932 
L 275.935557 64.526338 
L 276.652234 62.720881 
L 277.36891 63.780606 
L 278.085587 65.569242 
L 278.802264 61.002333 
L 279.51894 57.439079 
L 280.235617 60.060355 
L 280.952294 59.827665 
L 281.66897 57.554023 
L 282.385647 61.481732 
L 283.102324 63.491845 
L 283.819001 61.893847 
L 284.535677 61.706013 
L 285.252354 63.25635 
L 285.969031 63.413347 
L 286.685707 61.938703 
L 287.402384 64.747815 
L 288.119061 66.0963 
L 288.835738 63.390919 
L 289.552414 64.988916 
L 290.269091 62.950768 
L 290.985768 66.993422 
L 291.702444 65.59167 
L 292.419121 58.964185 
L 293.135798 60.256601 
L 293.852474 57.486738 
L 294.569151 58.748315 
L 296.002505 63.859104 
L 296.719181 61.307915 
L 297.435858 63.727339 
L 298.152535 61.633121 
L 298.869211 63.74416 
L 299.585888 65.311319 
L 300.302565 64.481482 
L 301.019241 64.388966 
L 301.735918 66.421507 
L 302.452595 63.35167 
L 303.169272 67.556926 
L 303.885948 67.83167 
L 304.602625 67.800831 
L 305.319302 66.589717 
L 306.035978 59.084736 
L 306.752655 62.336801 
L 307.469332 62.8162 
L 308.186008 62.106914 
L 308.902685 63.954423 
L 309.619362 64.145061 
L 310.336039 61.66396 
L 311.052715 66.438328 
L 311.769392 66.693447 
L 312.486069 65.218804 
L 313.202745 67.013046 
L 313.919422 65.538403 
L 314.636099 65.342158 
L 315.352775 66.460756 
L 316.786129 67.708315 
L 317.502806 68.751219 
L 318.219482 67.949417 
L 318.936159 68.372746 
L 319.652836 58.182008 
L 320.369512 61.798528 
L 321.086189 61.829367 
L 321.802866 62.401282 
L 322.519542 64.260005 
L 323.236219 62.605937 
L 323.952896 62.356426 
L 324.669573 61.565837 
L 325.386249 65.288891 
L 326.102926 61.72003 
L 326.819603 63.508666 
L 327.536279 65.686989 
L 328.252956 64.153472 
L 328.969633 67.299004 
L 329.686309 65.269267 
L 330.402986 66.586914 
L 331.119663 66.208441 
L 331.83634 66.757927 
L 332.553016 67.974648 
L 333.269693 62.594723 
L 333.98637 62.162984 
L 334.703046 62.00038 
L 335.419723 65.036576 
L 336.1364 63.424561 
L 336.853076 64.302058 
L 337.569753 63.046088 
L 338.28643 65.32814 
L 339.003107 65.501957 
L 339.719783 65.151519 
L 340.43646 65.423459 
L 341.153137 67.113972 
L 341.869813 65.143109 
L 342.58649 64.72819 
L 343.303167 66.281332 
L 344.019843 65.134698 
L 344.73652 65.11227 
L 346.169874 68.470869 
L 346.88655 62.443334 
L 347.603227 62.687239 
L 348.319904 64.293647 
L 349.03658 65.238428 
L 349.753257 64.363735 
L 350.469934 62.224661 
L 351.18661 64.352521 
L 351.903287 64.854348 
L 352.619964 68.532546 
L 353.336641 65.757076 
L 354.053317 69.042783 
L 354.769994 67.133597 
L 355.486671 66.52804 
L 356.203347 67.111169 
L 356.920024 67.083134 
L 357.636701 65.101056 
L 358.353377 67.189667 
L 359.070054 68.616651 
L 359.786731 66.84764 
L 360.503408 63.780606 
L 361.220084 63.211494 
L 361.936761 66.023409 
L 362.653438 66.059855 
L 363.370114 66.654198 
L 364.803468 63.371294 
L 365.520144 62.706864 
L 366.236821 65.372996 
L 366.953498 65.580456 
L 367.670175 65.089842 
L 368.386851 64.257202 
L 369.820205 66.570093 
L 370.536881 64.150668 
L 371.253558 66.236476 
L 371.970235 66.642984 
L 372.686911 68.246588 
L 373.403588 67.907364 
L 374.120265 62.485387 
L 374.836942 62.746113 
L 375.553618 63.480631 
L 376.270295 63.531094 
L 376.986972 66.942959 
L 377.703648 66.797176 
L 378.420325 65.115074 
L 379.137002 66.413096 
L 379.853679 65.019755 
L 380.570355 65.305712 
L 381.287032 66.065462 
L 382.003709 66.365437 
L 382.720385 66.91212 
L 383.437062 68.036325 
L 384.153739 66.466363 
L 384.870415 68.098003 
L 385.587092 65.002934 
L 386.303769 61.285487 
L 387.020446 65.246839 
L 387.737122 62.664811 
L 388.453799 64.086188 
L 389.170476 63.090944 
L 389.887152 63.690894 
L 390.603829 63.648841 
L 391.320506 64.862758 
L 392.037182 66.889692 
L 392.753859 66.589717 
L 393.470536 65.098253 
L 394.187213 65.583259 
L 394.903889 69.696 
L 395.620566 66.74391 
L 396.337243 68.176501 
L 397.053919 68.54376 
L 397.770596 69.558628 
L 398.487273 68.325086 
L 398.487273 68.325086 
" clip-path="url(#p58a8d52836)" style="fill: none; stroke: #00bfff; stroke-width: 1.5; stroke-linecap: square"/>
   </g>
   <g id="patch_3">
    <path d="M 57.6 71.04 
L 57.6 41.472 
" style="fill: none; stroke: #000000; stroke-width: 0.8; stroke-linejoin: miter; stroke-linecap: square"/>
   </g>
   <g id="patch_4">
    <path d="M 414.72 71.04 
L 414.72 41.472 
" style="fill: none; stroke: #000000; stroke-width: 0.8; stroke-linejoin: miter; stroke-linecap: square"/>
   </g>
   <g id="patch_5">
    <path d="M 57.6 71.04 
L 414.72 71.04 
" style="fill: none; stroke: #000000; stroke-width: 0.8; stroke-linejoin: miter; stroke-linecap: square"/>
   </g>
   <g id="patch_6">
    <path d="M 57.6 41.472 
L 414.72 41.472 
" style="fill: none; stroke: #000000; stroke-width: 0.8; stroke-linejoin: miter; stroke-linecap: square"/>
   </g>
   <g id="text_8">
    <!-- mse -->
    <g transform="translate(223.498125 35.472)scale(0.12 -0.12)">
     <defs>
      <path id="DejaVuSans-6d" d="M 3328 2828 
Q 3544 3216 3844 3400 
Q 4144 3584 4550 3584 
Q 5097 3584 5394 3201 
Q 5691 2819 5691 2113 
L 5691 0 
L 5113 0 
L 5113 2094 
Q 5113 2597 4934 2840 
Q 4756 3084 4391 3084 
Q 3944 3084 3684 2787 
Q 3425 2491 3425 1978 
L 3425 0 
L 2847 0 
L 2847 2094 
Q 2847 2600 2669 2842 
Q 2491 3084 2119 3084 
Q 1678 3084 1418 2786 
Q 1159 2488 1159 1978 
L 1159 0 
L 581 0 
L 581 3500 
L 1159 3500 
L 1159 2956 
Q 1356 3278 1631 3431 
Q 1906 3584 2284 3584 
Q 2666 3584 2933 3390 
Q 3200 3197 3328 2828 
z
" transform="scale(0.015625)"/>
      <path id="DejaVuSans-73" d="M 2834 3397 
L 2834 2853 
Q 2591 2978 2328 3040 
Q 2066 3103 1784 3103 
Q 1356 3103 1142 2972 
Q 928 2841 928 2578 
Q 928 2378 1081 2264 
Q 1234 2150 1697 2047 
L 1894 2003 
Q 2506 1872 2764 1633 
Q 3022 1394 3022 966 
Q 3022 478 2636 193 
Q 2250 -91 1575 -91 
Q 1294 -91 989 -36 
Q 684 19 347 128 
L 347 722 
Q 666 556 975 473 
Q 1284 391 1588 391 
Q 1994 391 2212 530 
Q 2431 669 2431 922 
Q 2431 1156 2273 1281 
Q 2116 1406 1581 1522 
L 1381 1569 
Q 847 1681 609 1914 
Q 372 2147 372 2553 
Q 372 3047 722 3315 
Q 1072 3584 1716 3584 
Q 2034 3584 2315 3537 
Q 2597 3491 2834 3397 
z
" transform="scale(0.015625)"/>
      <path id="DejaVuSans-65" d="M 3597 1894 
L 3597 1613 
L 953 1613 
Q 991 1019 1311 708 
Q 1631 397 2203 397 
Q 2534 397 2845 478 
Q 3156 559 3463 722 
L 3463 178 
Q 3153 47 2828 -22 
Q 2503 -91 2169 -91 
Q 1331 -91 842 396 
Q 353 884 353 1716 
Q 353 2575 817 3079 
Q 1281 3584 2069 3584 
Q 2775 3584 3186 3129 
Q 3597 2675 3597 1894 
z
M 3022 2063 
Q 3016 2534 2758 2815 
Q 2500 3097 2075 3097 
Q 1594 3097 1305 2825 
Q 1016 2553 972 2059 
L 3022 2063 
z
" transform="scale(0.015625)"/>
     </defs>
     <use xlink:href="#DejaVuSans-6d"/>
     <use xlink:href="#DejaVuSans-73" x="97.412109"/>
     <use xlink:href="#DejaVuSans-65" x="149.511719"/>
    </g>
   </g>
  </g>
  <g id="axes_2">
   <g id="patch_7">
    <path d="M 57.6 130.176 
L 414.72 130.176 
L 414.72 100.608 
L 57.6 100.608 
z
" style="fill: #ffffff"/>
   </g>
   <g id="matplotlib.axis_3">
    <g id="xtick_6">
     <g id="line2d_9">
      <g>
       <use xlink:href="#mb1e99ba1a0" x="104.649825" y="130.176" style="stroke: #000000; stroke-width: 0.8"/>
      </g>
     </g>
     <g id="text_9">
      <!-- 100000 -->
      <g transform="translate(85.562325 144.774437)scale(0.1 -0.1)">
       <use xlink:href="#DejaVuSans-31"/>
       <use xlink:href="#DejaVuSans-30" x="63.623047"/>
       <use xlink:href="#DejaVuSans-30" x="127.246094"/>
       <use xlink:href="#DejaVuSans-30" x="190.869141"/>
       <use xlink:href="#DejaVuSans-30" x="254.492188"/>
       <use xlink:href="#DejaVuSans-30" x="318.115234"/>
      </g>
     </g>
    </g>
    <g id="xtick_7">
     <g id="line2d_10">
      <g>
       <use xlink:href="#mb1e99ba1a0" x="176.317495" y="130.176" style="stroke: #000000; stroke-width: 0.8"/>
      </g>
     </g>
     <g id="text_10">
      <!-- 200000 -->
      <g transform="translate(157.229995 144.774437)scale(0.1 -0.1)">
       <use xlink:href="#DejaVuSans-32"/>
       <use xlink:href="#DejaVuSans-30" x="63.623047"/>
       <use xlink:href="#DejaVuSans-30" x="127.246094"/>
       <use xlink:href="#DejaVuSans-30" x="190.869141"/>
       <use xlink:href="#DejaVuSans-30" x="254.492188"/>
       <use xlink:href="#DejaVuSans-30" x="318.115234"/>
      </g>
     </g>
    </g>
    <g id="xtick_8">
     <g id="line2d_11">
      <g>
       <use xlink:href="#mb1e99ba1a0" x="247.985166" y="130.176" style="stroke: #000000; stroke-width: 0.8"/>
      </g>
     </g>
     <g id="text_11">
      <!-- 300000 -->
      <g transform="translate(228.897666 144.774437)scale(0.1 -0.1)">
       <use xlink:href="#DejaVuSans-33"/>
       <use xlink:href="#DejaVuSans-30" x="63.623047"/>
       <use xlink:href="#DejaVuSans-30" x="127.246094"/>
       <use xlink:href="#DejaVuSans-30" x="190.869141"/>
       <use xlink:href="#DejaVuSans-30" x="254.492188"/>
       <use xlink:href="#DejaVuSans-30" x="318.115234"/>
      </g>
     </g>
    </g>
    <g id="xtick_9">
     <g id="line2d_12">
      <g>
       <use xlink:href="#mb1e99ba1a0" x="319.652836" y="130.176" style="stroke: #000000; stroke-width: 0.8"/>
      </g>
     </g>
     <g id="text_12">
      <!-- 400000 -->
      <g transform="translate(300.565336 144.774437)scale(0.1 -0.1)">
       <use xlink:href="#DejaVuSans-34"/>
       <use xlink:href="#DejaVuSans-30" x="63.623047"/>
       <use xlink:href="#DejaVuSans-30" x="127.246094"/>
       <use xlink:href="#DejaVuSans-30" x="190.869141"/>
       <use xlink:href="#DejaVuSans-30" x="254.492188"/>
       <use xlink:href="#DejaVuSans-30" x="318.115234"/>
      </g>
     </g>
    </g>
    <g id="xtick_10">
     <g id="line2d_13">
      <g>
       <use xlink:href="#mb1e99ba1a0" x="391.320506" y="130.176" style="stroke: #000000; stroke-width: 0.8"/>
      </g>
     </g>
     <g id="text_13">
      <!-- 500000 -->
      <g transform="translate(372.233006 144.774437)scale(0.1 -0.1)">
       <use xlink:href="#DejaVuSans-35"/>
       <use xlink:href="#DejaVuSans-30" x="63.623047"/>
       <use xlink:href="#DejaVuSans-30" x="127.246094"/>
       <use xlink:href="#DejaVuSans-30" x="190.869141"/>
       <use xlink:href="#DejaVuSans-30" x="254.492188"/>
       <use xlink:href="#DejaVuSans-30" x="318.115234"/>
      </g>
     </g>
    </g>
   </g>
   <g id="matplotlib.axis_4">
    <g id="ytick_3">
     <g id="line2d_14">
      <g>
       <use xlink:href="#mc87374b8f4" x="57.6" y="120.898265" style="stroke: #000000; stroke-width: 0.8"/>
      </g>
     </g>
     <g id="text_14">
      <!-- 70 -->
      <g transform="translate(37.875 124.697484)scale(0.1 -0.1)">
       <defs>
        <path id="DejaVuSans-37" d="M 525 4666 
L 3525 4666 
L 3525 4397 
L 1831 0 
L 1172 0 
L 2766 4134 
L 525 4134 
L 525 4666 
z
" transform="scale(0.015625)"/>
       </defs>
       <use xlink:href="#DejaVuSans-37"/>
       <use xlink:href="#DejaVuSans-30" x="63.623047"/>
      </g>
     </g>
    </g>
    <g id="ytick_4">
     <g id="line2d_15">
      <g>
       <use xlink:href="#mc87374b8f4" x="57.6" y="110.185687" style="stroke: #000000; stroke-width: 0.8"/>
      </g>
     </g>
     <g id="text_15">
      <!-- 80 -->
      <g transform="translate(37.875 113.984906)scale(0.1 -0.1)">
       <defs>
        <path id="DejaVuSans-38" d="M 2034 2216 
Q 1584 2216 1326 1975 
Q 1069 1734 1069 1313 
Q 1069 891 1326 650 
Q 1584 409 2034 409 
Q 2484 409 2743 651 
Q 3003 894 3003 1313 
Q 3003 1734 2745 1975 
Q 2488 2216 2034 2216 
z
M 1403 2484 
Q 997 2584 770 2862 
Q 544 3141 544 3541 
Q 544 4100 942 4425 
Q 1341 4750 2034 4750 
Q 2731 4750 3128 4425 
Q 3525 4100 3525 3541 
Q 3525 3141 3298 2862 
Q 3072 2584 2669 2484 
Q 3125 2378 3379 2068 
Q 3634 1759 3634 1313 
Q 3634 634 3220 271 
Q 2806 -91 2034 -91 
Q 1263 -91 848 271 
Q 434 634 434 1313 
Q 434 1759 690 2068 
Q 947 2378 1403 2484 
z
M 1172 3481 
Q 1172 3119 1398 2916 
Q 1625 2713 2034 2713 
Q 2441 2713 2670 2916 
Q 2900 3119 2900 3481 
Q 2900 3844 2670 4047 
Q 2441 4250 2034 4250 
Q 1625 4250 1398 4047 
Q 1172 3844 1172 3481 
z
" transform="scale(0.015625)"/>
       </defs>
       <use xlink:href="#DejaVuSans-38"/>
       <use xlink:href="#DejaVuSans-30" x="63.623047"/>
      </g>
     </g>
    </g>
   </g>
   <g id="line2d_16">
    <path d="M 73.832727 104.59265 
L 74.549404 106.315233 
L 75.982757 101.952 
L 77.416111 109.912516 
L 78.132787 112.429972 
L 78.849464 110.967705 
L 79.566141 105.233263 
L 80.282818 113.971512 
L 80.999494 113.721909 
L 81.716171 111.424061 
L 82.432848 111.998255 
L 83.149524 110.505993 
L 83.866201 108.384903 
L 84.582878 116.316495 
L 85.299554 114.639977 
L 86.016231 115.702665 
L 86.732908 114.278963 
L 87.449585 115.53662 
L 88.166261 110.577768 
L 88.882938 107.81178 
L 89.599615 106.152402 
L 90.316291 110.817729 
L 91.032968 111.494764 
L 91.749645 113.157356 
L 92.466321 113.472306 
L 93.182998 109.598638 
L 93.899675 115.603038 
L 94.616352 114.276821 
L 95.333028 113.417672 
L 96.049705 111.945764 
L 96.766382 118.127992 
L 97.483058 114.55749 
L 98.199735 116.111885 
L 98.916412 116.297213 
L 99.633089 120.092679 
L 100.349765 117.388824 
L 101.066442 120.401201 
L 101.783119 108.562732 
L 102.499795 110.294956 
L 103.216472 114.109704 
L 103.933149 110.22211 
L 104.649825 114.525352 
L 105.366502 114.924932 
L 106.083179 119.614898 
L 106.799856 108.188863 
L 107.516532 112.596017 
L 108.233209 114.418227 
L 108.949886 116.861766 
L 109.666562 118.010154 
L 110.383239 115.483057 
L 111.099916 116.129025 
L 111.816592 116.095816 
L 112.533269 115.665171 
L 113.249946 112.0786 
L 113.966623 117.76805 
L 114.683299 118.229762 
L 115.399976 115.477701 
L 116.116653 115.333081 
L 116.833329 113.18628 
L 117.550006 110.05178 
L 118.266683 110.288528 
L 118.983359 116.587524 
L 119.700036 114.576773 
L 120.416713 112.131091 
L 121.13339 118.591847 
L 121.850066 117.833396 
L 122.566743 119.125333 
L 123.28342 118.068002 
L 124.000096 119.376008 
L 124.716773 121.013961 
L 125.43345 117.781976 
L 126.150126 117.412392 
L 126.866803 121.150011 
L 127.58348 119.987696 
L 128.300157 117.771264 
L 129.016833 111.61046 
L 129.73351 114.1397 
L 130.450187 109.822531 
L 131.166863 113.584788 
L 131.88354 110.404224 
L 132.600217 115.976907 
L 133.316893 113.300905 
L 134.03357 117.203497 
L 134.750247 116.951751 
L 135.466924 112.709571 
L 136.1836 118.071216 
L 136.900277 119.458495 
L 137.616954 116.903545 
L 138.33363 119.963057 
L 139.050307 117.790546 
L 139.766984 119.133903 
L 140.48366 120.760073 
L 141.200337 119.278523 
L 141.917014 124.075615 
L 142.633691 119.163899 
L 143.350367 121.361048 
L 144.067044 115.938341 
L 144.783721 116.55003 
L 145.500397 115.913703 
L 146.217074 117.658781 
L 146.933751 116.432191 
L 147.650427 117.043879 
L 148.367104 116.190087 
L 149.083781 113.396247 
L 149.800458 120.966825 
L 150.517134 116.977462 
L 151.233811 115.648031 
L 151.950488 119.690957 
L 152.667164 121.503526 
L 153.383841 124.157031 
L 154.100518 115.101689 
L 154.817194 118.976429 
L 155.533871 118.918581 
L 156.250548 111.019126 
L 157.683901 117.073875 
L 158.400578 113.277337 
L 159.117255 114.478217 
L 159.833931 113.507658 
L 160.550608 117.971589 
L 161.267285 118.835022 
L 161.983961 119.986625 
L 162.700638 120.858628 
L 163.417315 122.141995 
L 164.133992 117.349188 
L 164.850668 119.81201 
L 165.567345 119.649178 
L 166.284022 119.969484 
L 167.000698 118.124779 
L 167.717375 113.231273 
L 168.434052 120.347638 
L 169.150728 122.477299 
L 169.867405 119.653463 
L 170.584082 113.632995 
L 171.300759 114.243612 
L 172.017435 116.373272 
L 172.734112 113.900809 
L 173.450789 119.581689 
L 174.167465 118.427945 
L 174.884142 118.102282 
L 175.600819 114.083994 
L 176.317495 117.502378 
L 177.034172 118.274755 
L 177.750849 116.836055 
L 178.467526 123.060063 
L 179.184202 117.498093 
L 179.900879 114.133272 
L 180.617556 124.191311 
L 181.334232 121.160723 
L 182.050909 121.077165 
L 182.767586 122.67441 
L 183.484262 115.342722 
L 184.200939 120.136601 
L 184.917616 116.934611 
L 185.634293 116.523248 
L 186.350969 120.643306 
L 187.067646 121.72849 
L 187.784323 115.964052 
L 188.500999 117.976945 
L 189.217676 118.718255 
L 189.934353 122.947581 
L 190.65103 117.207782 
L 191.367706 119.271024 
L 192.084383 118.952861 
L 192.80106 121.052526 
L 193.517736 121.004319 
L 194.234413 117.630929 
L 194.95109 118.897155 
L 195.667766 121.357835 
L 196.384443 123.075061 
L 197.10112 116.839269 
L 197.817797 117.459527 
L 198.534473 118.556495 
L 199.25115 117.502378 
L 199.967827 120.664731 
L 200.684503 119.184253 
L 201.40118 116.015472 
L 202.117857 118.605773 
L 202.834533 122.595137 
L 203.55121 122.568356 
L 204.267887 119.664176 
L 204.984564 119.737022 
L 205.70124 121.936314 
L 206.417917 120.841488 
L 207.134594 122.738686 
L 207.85127 123.967418 
L 208.567947 122.778322 
L 209.284624 123.492851 
L 210.0013 123.724243 
L 210.717977 116.245792 
L 211.434654 118.20298 
L 212.151331 117.538801 
L 212.868007 115.669456 
L 213.584684 111.614745 
L 214.301361 119.00321 
L 215.018037 122.117356 
L 215.734714 118.541498 
L 216.451391 117.417748 
L 217.168067 121.123229 
L 217.884744 120.344425 
L 218.601421 124.11311 
L 219.318098 124.21595 
L 220.034774 120.028404 
L 220.751451 123.063277 
L 221.468128 125.302206 
L 222.184804 123.106127 
L 222.901481 119.777729 
L 223.618158 126.679843 
L 224.334834 117.378112 
L 225.051511 110.531703 
L 225.768188 118.057289 
L 226.484865 116.258648 
L 227.201541 116.860694 
L 227.918218 121.930957 
L 228.634895 123.279671 
L 229.351571 111.915769 
L 230.068248 122.961507 
L 230.784925 122.309111 
L 231.501601 121.103946 
L 232.218278 121.875252 
L 232.934955 123.157548 
L 233.651632 123.923497 
L 234.368308 123.505706 
L 235.084985 124.37771 
L 235.801662 120.197662 
L 236.518338 124.282368 
L 237.951692 118.426873 
L 238.668368 113.499088 
L 239.385045 116.743927 
L 240.101722 121.680283 
L 240.818399 117.879461 
L 241.535075 118.683975 
L 242.251752 122.297328 
L 242.968429 122.433377 
L 244.401782 124.896199 
L 245.118459 121.746701 
L 245.835135 125.583946 
L 246.551812 123.607476 
L 247.268489 123.022569 
L 247.985166 123.484281 
L 248.701842 127.190833 
L 249.418519 122.689408 
L 250.135196 124.620886 
L 250.851872 124.753722 
L 251.568549 114.436438 
L 252.285226 116.152593 
L 253.001902 120.284434 
L 253.718579 116.060465 
L 254.435256 117.807686 
L 255.151933 123.957777 
L 255.868609 122.215912 
L 256.585286 119.955558 
L 257.301963 124.154889 
L 258.018639 119.595615 
L 258.735316 123.884932 
L 259.451993 125.366481 
L 260.168669 124.365926 
L 260.885346 118.757892 
L 261.602023 121.938456 
L 262.3187 123.144692 
L 263.035376 120.316572 
L 263.752053 124.695874 
L 264.46873 121.883822 
L 265.185406 119.922349 
L 265.902083 120.113033 
L 266.61876 120.707581 
L 267.335436 117.200283 
L 268.052113 118.944291 
L 268.76879 122.685123 
L 269.485467 121.346051 
L 270.202143 118.692545 
L 270.91882 122.16342 
L 271.635497 120.654018 
L 272.352173 122.32518 
L 273.06885 121.857041 
L 273.785527 120.87684 
L 274.502203 121.949169 
L 275.21888 125.831407 
L 275.935557 126.220274 
L 276.652234 122.253406 
L 277.36891 124.115252 
L 278.085587 125.667505 
L 278.802264 123.135051 
L 280.235617 115.867638 
L 280.952294 123.343946 
L 281.66897 120.611168 
L 282.385647 120.844702 
L 283.102324 124.15596 
L 283.819001 120.649733 
L 284.535677 122.885448 
L 285.252354 120.571531 
L 285.969031 120.817921 
L 286.685707 122.212698 
L 287.402384 120.159097 
L 288.119061 123.957777 
L 288.835738 122.649771 
L 289.552414 120.279078 
L 290.269091 122.802961 
L 290.985768 124.217022 
L 291.702444 123.683535 
L 292.419121 119.644893 
L 293.135798 117.221708 
L 293.852474 120.317643 
L 294.569151 121.105018 
L 295.285828 119.264597 
L 296.002505 123.253961 
L 296.719181 123.095415 
L 297.435858 122.197701 
L 298.152535 121.042885 
L 298.869211 124.792287 
L 299.585888 123.039709 
L 300.302565 124.890843 
L 301.019241 124.346644 
L 301.735918 125.817481 
L 302.452595 125.014037 
L 303.169272 127.134056 
L 303.885948 123.833511 
L 304.602625 126.52344 
L 305.319302 124.673377 
L 306.035978 120.891837 
L 306.752655 123.633186 
L 307.469332 121.117873 
L 308.186008 120.214802 
L 308.902685 123.718887 
L 309.619362 124.495549 
L 310.336039 121.527093 
L 311.052715 122.149494 
L 311.769392 124.390565 
L 312.486069 122.579068 
L 314.636099 126.448451 
L 315.352775 124.996897 
L 316.069452 126.348824 
L 316.786129 122.306969 
L 317.502806 126.011378 
L 318.219482 125.911751 
L 318.936159 125.114736 
L 319.652836 115.87728 
L 320.369512 122.05201 
L 321.086189 118.481507 
L 321.802866 120.091608 
L 322.519542 120.670087 
L 323.236219 121.491742 
L 323.952896 124.162387 
L 324.669573 125.567878 
L 325.386249 126.38739 
L 326.102926 121.221785 
L 326.819603 123.541058 
L 327.536279 125.340771 
L 328.252956 125.721067 
L 328.969633 122.252335 
L 329.686309 126.188136 
L 330.402986 125.691072 
L 331.119663 123.896715 
L 331.83634 125.547524 
L 332.553016 127.556132 
L 333.269693 126.706625 
L 333.98637 123.065419 
L 334.703046 121.646003 
L 335.419723 124.498762 
L 336.1364 120.103392 
L 336.853076 123.065419 
L 337.569753 123.056849 
L 338.28643 125.579661 
L 339.003107 124.970116 
L 339.719783 123.398581 
L 340.43646 125.609657 
L 341.153137 125.483248 
L 341.869813 124.945477 
L 342.58649 124.784788 
L 343.303167 122.323038 
L 344.019843 125.413616 
L 344.73652 124.38628 
L 345.453197 125.641794 
L 346.169874 128.428136 
L 346.88655 120.487973 
L 347.603227 114.002579 
L 348.319904 120.923975 
L 349.03658 123.882789 
L 349.753257 122.64013 
L 350.469934 122.596209 
L 351.18661 124.627313 
L 351.903287 125.108308 
L 352.619964 125.062244 
L 353.336641 123.940637 
L 354.053317 120.977538 
L 354.769994 125.889255 
L 356.203347 124.913339 
L 356.920024 124.574822 
L 357.636701 126.301689 
L 358.353377 123.262531 
L 359.070054 128.832 
L 360.503408 119.674889 
L 361.936761 126.434525 
L 362.653438 118.877873 
L 363.370114 117.775549 
L 364.086791 120.475118 
L 364.803468 123.9942 
L 365.520144 123.387868 
L 366.236821 125.265783 
L 366.953498 124.342359 
L 367.670175 124.713014 
L 368.386851 121.827045 
L 369.103528 126.168853 
L 369.820205 125.912823 
L 370.536881 124.401278 
L 371.253558 124.868346 
L 371.970235 126.71948 
L 372.686911 128.137825 
L 373.403588 124.209523 
L 374.120265 118.983927 
L 375.553618 121.94167 
L 376.270295 125.44254 
L 376.986972 124.958332 
L 377.703648 125.075099 
L 378.420325 119.942703 
L 379.137002 122.602636 
L 379.853679 124.480551 
L 380.570355 121.832402 
L 381.287032 123.55177 
L 382.003709 127.548633 
L 382.720385 124.284511 
L 383.437062 125.809982 
L 384.153739 125.01618 
L 384.870415 127.702894 
L 385.587092 122.284473 
L 386.303769 119.898781 
L 387.020446 120.021976 
L 387.737122 122.897232 
L 388.453799 123.998485 
L 389.170476 121.423181 
L 389.887152 121.918102 
L 390.603829 121.468174 
L 392.753859 127.411512 
L 393.470536 124.790144 
L 394.187213 124.986185 
L 394.903889 124.967973 
L 395.620566 124.795501 
L 396.337243 127.350451 
L 397.053919 128.468844 
L 397.770596 126.899451 
L 398.487273 126.635922 
L 398.487273 126.635922 
" clip-path="url(#pf38d095412)" style="fill: none; stroke: #ffa500; stroke-width: 1.5; stroke-linecap: square"/>
   </g>
   <g id="patch_8">
    <path d="M 57.6 130.176 
L 57.6 100.608 
" style="fill: none; stroke: #000000; stroke-width: 0.8; stroke-linejoin: miter; stroke-linecap: square"/>
   </g>
   <g id="patch_9">
    <path d="M 414.72 130.176 
L 414.72 100.608 
" style="fill: none; stroke: #000000; stroke-width: 0.8; stroke-linejoin: miter; stroke-linecap: square"/>
   </g>
   <g id="patch_10">
    <path d="M 57.6 130.176 
L 414.72 130.176 
" style="fill: none; stroke: #000000; stroke-width: 0.8; stroke-linejoin: miter; stroke-linecap: square"/>
   </g>
   <g id="patch_11">
    <path d="M 57.6 100.608 
L 414.72 100.608 
" style="fill: none; stroke: #000000; stroke-width: 0.8; stroke-linejoin: miter; stroke-linecap: square"/>
   </g>
   <g id="text_16">
    <!-- mae -->
    <g transform="translate(222.946875 94.608)scale(0.12 -0.12)">
     <defs>
      <path id="DejaVuSans-61" d="M 2194 1759 
Q 1497 1759 1228 1600 
Q 959 1441 959 1056 
Q 959 750 1161 570 
Q 1363 391 1709 391 
Q 2188 391 2477 730 
Q 2766 1069 2766 1631 
L 2766 1759 
L 2194 1759 
z
M 3341 1997 
L 3341 0 
L 2766 0 
L 2766 531 
Q 2569 213 2275 61 
Q 1981 -91 1556 -91 
Q 1019 -91 701 211 
Q 384 513 384 1019 
Q 384 1609 779 1909 
Q 1175 2209 1959 2209 
L 2766 2209 
L 2766 2266 
Q 2766 2663 2505 2880 
Q 2244 3097 1772 3097 
Q 1472 3097 1187 3025 
Q 903 2953 641 2809 
L 641 3341 
Q 956 3463 1253 3523 
Q 1550 3584 1831 3584 
Q 2591 3584 2966 3190 
Q 3341 2797 3341 1997 
z
" transform="scale(0.015625)"/>
     </defs>
     <use xlink:href="#DejaVuSans-6d"/>
     <use xlink:href="#DejaVuSans-61" x="97.412109"/>
     <use xlink:href="#DejaVuSans-65" x="158.691406"/>
    </g>
   </g>
  </g>
  <g id="axes_3">
   <g id="patch_12">
    <path d="M 57.6 189.312 
L 414.72 189.312 
L 414.72 159.744 
L 57.6 159.744 
z
" style="fill: #ffffff"/>
   </g>
   <g id="matplotlib.axis_5">
    <g id="xtick_11">
     <g id="line2d_17">
      <g>
       <use xlink:href="#mb1e99ba1a0" x="104.649825" y="189.312" style="stroke: #000000; stroke-width: 0.8"/>
      </g>
     </g>
     <g id="text_17">
      <!-- 100000 -->
      <g transform="translate(85.562325 203.910437)scale(0.1 -0.1)">
       <use xlink:href="#DejaVuSans-31"/>
       <use xlink:href="#DejaVuSans-30" x="63.623047"/>
       <use xlink:href="#DejaVuSans-30" x="127.246094"/>
       <use xlink:href="#DejaVuSans-30" x="190.869141"/>
       <use xlink:href="#DejaVuSans-30" x="254.492188"/>
       <use xlink:href="#DejaVuSans-30" x="318.115234"/>
      </g>
     </g>
    </g>
    <g id="xtick_12">
     <g id="line2d_18">
      <g>
       <use xlink:href="#mb1e99ba1a0" x="176.317495" y="189.312" style="stroke: #000000; stroke-width: 0.8"/>
      </g>
     </g>
     <g id="text_18">
      <!-- 200000 -->
      <g transform="translate(157.229995 203.910437)scale(0.1 -0.1)">
       <use xlink:href="#DejaVuSans-32"/>
       <use xlink:href="#DejaVuSans-30" x="63.623047"/>
       <use xlink:href="#DejaVuSans-30" x="127.246094"/>
       <use xlink:href="#DejaVuSans-30" x="190.869141"/>
       <use xlink:href="#DejaVuSans-30" x="254.492188"/>
       <use xlink:href="#DejaVuSans-30" x="318.115234"/>
      </g>
     </g>
    </g>
    <g id="xtick_13">
     <g id="line2d_19">
      <g>
       <use xlink:href="#mb1e99ba1a0" x="247.985166" y="189.312" style="stroke: #000000; stroke-width: 0.8"/>
      </g>
     </g>
     <g id="text_19">
      <!-- 300000 -->
      <g transform="translate(228.897666 203.910437)scale(0.1 -0.1)">
       <use xlink:href="#DejaVuSans-33"/>
       <use xlink:href="#DejaVuSans-30" x="63.623047"/>
       <use xlink:href="#DejaVuSans-30" x="127.246094"/>
       <use xlink:href="#DejaVuSans-30" x="190.869141"/>
       <use xlink:href="#DejaVuSans-30" x="254.492188"/>
       <use xlink:href="#DejaVuSans-30" x="318.115234"/>
      </g>
     </g>
    </g>
    <g id="xtick_14">
     <g id="line2d_20">
      <g>
       <use xlink:href="#mb1e99ba1a0" x="319.652836" y="189.312" style="stroke: #000000; stroke-width: 0.8"/>
      </g>
     </g>
     <g id="text_20">
      <!-- 400000 -->
      <g transform="translate(300.565336 203.910437)scale(0.1 -0.1)">
       <use xlink:href="#DejaVuSans-34"/>
       <use xlink:href="#DejaVuSans-30" x="63.623047"/>
       <use xlink:href="#DejaVuSans-30" x="127.246094"/>
       <use xlink:href="#DejaVuSans-30" x="190.869141"/>
       <use xlink:href="#DejaVuSans-30" x="254.492188"/>
       <use xlink:href="#DejaVuSans-30" x="318.115234"/>
      </g>
     </g>
    </g>
    <g id="xtick_15">
     <g id="line2d_21">
      <g>
       <use xlink:href="#mb1e99ba1a0" x="391.320506" y="189.312" style="stroke: #000000; stroke-width: 0.8"/>
      </g>
     </g>
     <g id="text_21">
      <!-- 500000 -->
      <g transform="translate(372.233006 203.910437)scale(0.1 -0.1)">
       <use xlink:href="#DejaVuSans-35"/>
       <use xlink:href="#DejaVuSans-30" x="63.623047"/>
       <use xlink:href="#DejaVuSans-30" x="127.246094"/>
       <use xlink:href="#DejaVuSans-30" x="190.869141"/>
       <use xlink:href="#DejaVuSans-30" x="254.492188"/>
       <use xlink:href="#DejaVuSans-30" x="318.115234"/>
      </g>
     </g>
    </g>
   </g>
   <g id="matplotlib.axis_6">
    <g id="ytick_5">
     <g id="line2d_22">
      <g>
       <use xlink:href="#mc87374b8f4" x="57.6" y="178.020052" style="stroke: #000000; stroke-width: 0.8"/>
      </g>
     </g>
     <g id="text_22">
      <!-- 23 -->
      <g transform="translate(37.875 181.819271)scale(0.1 -0.1)">
       <use xlink:href="#DejaVuSans-32"/>
       <use xlink:href="#DejaVuSans-33" x="63.623047"/>
      </g>
     </g>
    </g>
    <g id="ytick_6">
     <g id="line2d_23">
      <g>
       <use xlink:href="#mc87374b8f4" x="57.6" y="163.347563" style="stroke: #000000; stroke-width: 0.8"/>
      </g>
     </g>
     <g id="text_23">
      <!-- 24 -->
      <g transform="translate(37.875 167.146782)scale(0.1 -0.1)">
       <use xlink:href="#DejaVuSans-32"/>
       <use xlink:href="#DejaVuSans-34" x="63.623047"/>
      </g>
     </g>
    </g>
   </g>
   <g id="line2d_24">
    <path d="M 73.832727 184.608 
L 74.549404 187.968 
L 75.266081 187.469135 
L 76.699434 186.001886 
L 77.416111 183.228786 
L 78.132787 184.299878 
L 78.849464 180.059528 
L 79.566141 183.126079 
L 80.282818 181.512105 
L 80.999494 180.646428 
L 81.716171 181.086603 
L 82.432848 181.878917 
L 83.149524 180.367651 
L 83.866201 180.176908 
L 84.582878 176.934288 
L 85.299554 178.797694 
L 86.016231 177.65324 
L 86.732908 177.462498 
L 87.449585 176.582148 
L 88.166261 181.732192 
L 88.882938 182.436472 
L 90.316291 181.218655 
L 91.032968 180.235598 
L 91.749645 180.83717 
L 92.466321 180.279616 
L 93.182998 180.763808 
L 93.899675 179.516646 
L 94.616352 178.797694 
L 95.333028 179.678044 
L 96.049705 179.413939 
L 96.766382 176.406079 
L 97.483058 176.992978 
L 98.199735 175.246952 
L 98.916412 173.897083 
L 99.633089 173.970445 
L 100.349765 174.278568 
L 101.066442 173.412891 
L 101.783119 181.805555 
L 102.499795 184.43193 
L 103.216472 181.468087 
L 103.933149 180.617083 
L 104.649825 181.54145 
L 105.366502 179.149834 
L 106.083179 177.917345 
L 106.799856 181.761537 
L 107.516532 178.724332 
L 108.949886 178.108087 
L 109.666562 176.611493 
L 110.383239 174.454638 
L 111.099916 175.657782 
L 111.816592 175.657782 
L 112.533269 177.154376 
L 113.249946 176.112629 
L 113.966623 173.324856 
L 114.683299 174.82145 
L 115.399976 177.65324 
L 116.116653 178.562934 
L 116.833329 179.149834 
L 117.550006 179.325904 
L 118.266683 181.086603 
L 118.983359 177.35979 
L 119.700036 177.71193 
L 120.416713 179.472629 
L 121.13339 174.087825 
L 121.850066 174.46931 
L 122.566743 175.819179 
L 123.28342 174.05848 
L 124.000096 175.540402 
L 124.716773 175.246952 
L 126.150126 173.368873 
L 126.866803 171.476122 
L 127.58348 171.974987 
L 128.300157 172.283109 
L 129.016833 179.692716 
L 129.73351 180.367651 
L 130.450187 179.604681 
L 131.166863 179.942148 
L 132.600217 177.47717 
L 133.316893 177.799965 
L 134.03357 175.217607 
L 134.750247 174.557345 
L 135.466924 176.171319 
L 136.1836 175.408349 
L 136.900277 173.295511 
L 137.616954 173.354201 
L 138.33363 171.40276 
L 139.050307 173.016734 
L 139.766984 172.429834 
L 140.48366 172.400489 
L 141.200337 173.060751 
L 141.917014 168.541624 
L 142.633691 174.161188 
L 143.350367 174.17586 
L 144.067044 176.435424 
L 144.783721 175.804507 
L 145.500397 177.3011 
L 146.217074 176.053939 
L 146.933751 176.860926 
L 147.650427 174.073153 
L 148.367104 174.439965 
L 149.083781 176.230009 
L 149.800458 171.446777 
L 150.517134 173.647651 
L 151.950488 171.622847 
L 152.667164 172.077694 
L 153.383841 169.700751 
L 154.100518 170.390358 
L 154.817194 171.52014 
L 155.533871 170.69848 
L 156.250548 178.739004 
L 156.967225 178.210795 
L 157.683901 177.41848 
L 158.400578 175.863197 
L 159.117255 174.76276 
L 159.833931 174.777432 
L 160.550608 174.498655 
L 161.267285 173.691668 
L 161.983961 173.134114 
L 162.700638 171.52014 
L 163.417315 171.212017 
L 164.133992 173.324856 
L 165.567345 169.700751 
L 166.284022 170.375686 
L 167.000698 169.686079 
L 167.717375 172.561886 
L 168.434052 169.128524 
L 169.150728 168.644332 
L 169.867405 173.838393 
L 170.584082 175.555074 
L 171.300759 175.613764 
L 172.017435 173.354201 
L 172.734112 176.596821 
L 173.450789 172.972716 
L 174.167465 174.513328 
L 174.884142 173.721013 
L 175.600819 174.924157 
L 176.317495 173.398218 
L 177.034172 170.669135 
L 177.750849 172.136384 
L 178.467526 168.967127 
L 179.184202 170.316996 
L 179.900879 170.449048 
L 180.617556 168.937782 
L 181.334232 168.116122 
L 182.050909 168.04276 
L 182.767586 168.21883 
L 183.484262 175.305642 
L 184.200939 173.823721 
L 184.917616 174.82145 
L 185.634293 174.616035 
L 186.350969 171.945642 
L 187.067646 171.314725 
L 187.784323 172.356472 
L 188.500999 172.224419 
L 189.217676 171.798917 
L 189.934353 169.319266 
L 190.65103 171.989659 
L 191.367706 171.989659 
L 192.084383 170.067563 
L 192.80106 170.140926 
L 193.517736 171.182672 
L 194.234413 170.947913 
L 194.95109 167.940052 
L 195.667766 167.411843 
L 196.384443 169.040489 
L 197.10112 173.266166 
L 197.817797 173.192803 
L 198.534473 174.249223 
L 199.25115 173.955773 
L 199.967827 172.825991 
L 200.684503 174.205205 
L 201.40118 171.329397 
L 202.117857 174.557345 
L 202.834533 170.69848 
L 203.55121 172.400489 
L 204.267887 170.199616 
L 204.984564 170.184943 
L 205.70124 170.625118 
L 206.417917 169.143197 
L 207.134594 169.025817 
L 207.85127 169.480664 
L 208.567947 169.231231 
L 209.284624 167.558568 
L 210.0013 166.590183 
L 210.717977 175.672454 
L 211.434654 172.914026 
L 212.151331 173.647651 
L 212.868007 174.836122 
L 213.584684 176.582148 
L 214.301361 171.69621 
L 215.734714 169.818131 
L 216.451391 169.554026 
L 217.168067 169.832803 
L 217.884744 171.138655 
L 219.318098 167.33848 
L 220.034774 169.627389 
L 220.751451 167.86669 
L 221.468128 166.546166 
L 222.184804 167.98407 
L 222.901481 168.21883 
L 223.618158 166.678218 
L 224.334834 172.635249 
L 225.051511 173.295511 
L 225.768188 172.972716 
L 226.484865 174.689397 
L 227.201541 170.859878 
L 227.918218 169.480664 
L 228.634895 170.170271 
L 229.351571 170.610445 
L 230.068248 169.113852 
L 230.784925 169.920838 
L 231.501601 170.287651 
L 232.218278 166.795598 
L 232.934955 167.309135 
L 233.651632 166.017956 
L 234.368308 167.089048 
L 235.084985 167.030358 
L 235.801662 167.998742 
L 236.518338 167.92538 
L 237.235015 166.414114 
L 237.951692 174.146515 
L 238.668368 172.840664 
L 239.385045 173.456908 
L 240.101722 171.065293 
L 240.818399 172.121712 
L 241.535075 170.537083 
L 242.251752 169.964856 
L 242.968429 170.771843 
L 244.401782 165.739179 
L 245.118459 167.998742 
L 245.835135 165.856559 
L 246.551812 167.059703 
L 247.268489 166.282061 
L 247.985166 166.619528 
L 248.701842 164.345293 
L 249.418519 165.636472 
L 250.135196 164.932192 
L 250.851872 166.326079 
L 251.568549 169.759441 
L 252.285226 169.818131 
L 253.001902 170.302323 
L 253.718579 171.505467 
L 254.435256 169.348611 
L 255.151933 169.832803 
L 255.868609 168.761712 
L 256.585286 171.490795 
L 257.301963 167.558568 
L 258.018639 167.763983 
L 258.735316 165.665817 
L 259.451993 167.323808 
L 260.168669 166.443459 
L 260.885346 166.912978 
L 261.602023 167.646603 
L 262.3187 166.736908 
L 263.035376 166.824943 
L 263.752053 165.005555 
L 264.46873 166.399441 
L 265.185406 172.356472 
L 265.902083 171.593502 
L 266.61876 171.505467 
L 267.335436 171.886952 
L 268.052113 170.566428 
L 268.76879 169.950183 
L 269.485467 168.776384 
L 270.202143 168.541624 
L 270.91882 168.908437 
L 271.635497 168.306865 
L 272.352173 170.184943 
L 273.06885 169.113852 
L 273.785527 166.105991 
L 274.502203 168.526952 
L 275.935557 164.712105 
L 276.652234 166.487476 
L 277.36891 165.475074 
L 278.085587 164.125205 
L 278.802264 169.069834 
L 279.51894 172.459179 
L 280.235617 171.388087 
L 280.952294 171.094638 
L 281.66897 171.34407 
L 283.102324 167.617258 
L 283.819001 167.98407 
L 284.535677 168.174812 
L 285.252354 167.353153 
L 285.969031 167.602585 
L 286.685707 167.074376 
L 287.402384 166.986341 
L 288.119061 165.09359 
L 288.835738 166.546166 
L 289.552414 165.372367 
L 290.269091 167.16241 
L 290.985768 163.905118 
L 291.702444 164.345293 
L 292.419121 171.857607 
L 293.135798 171.094638 
L 293.852474 171.81359 
L 294.569151 170.625118 
L 295.285828 169.979528 
L 296.002505 166.707563 
L 296.719181 167.778655 
L 297.435858 166.868961 
L 298.152535 168.27752 
L 299.585888 165.416384 
L 300.302565 165.0349 
L 301.019241 165.607127 
L 301.735918 164.227913 
L 302.452595 165.431057 
L 303.169272 163.846428 
L 303.885948 164.066515 
L 304.602625 162.628611 
L 305.319302 163.083459 
L 306.035978 171.373415 
L 306.752655 168.45359 
L 307.469332 168.057432 
L 308.186008 169.069834 
L 308.902685 167.323808 
L 309.619362 166.604856 
L 310.336039 168.879092 
L 311.052715 165.064245 
L 311.769392 164.946865 
L 312.486069 166.047301 
L 313.202745 164.521362 
L 314.636099 164.68276 
L 315.352775 163.464943 
L 316.069452 162.848699 
L 316.786129 163.641013 
L 317.502806 161.865642 
L 318.219482 162.408524 
L 318.936159 162.481886 
L 319.652836 172.708611 
L 320.369512 169.113852 
L 321.086189 169.187214 
L 321.802866 168.967127 
L 322.519542 167.822672 
L 323.236219 169.040489 
L 323.952896 167.719965 
L 324.669573 166.942323 
L 325.386249 164.785467 
L 326.102926 168.292192 
L 326.819603 167.103721 
L 327.536279 164.68276 
L 328.252956 165.753852 
L 328.969633 163.318218 
L 329.686309 164.726777 
L 330.402986 163.259528 
L 331.119663 164.15455 
L 331.83634 163.817083 
L 332.553016 162.393852 
L 333.269693 166.296734 
L 333.98637 168.424245 
L 334.703046 168.570969 
L 335.419723 165.797869 
L 336.1364 166.736908 
L 336.853076 166.414114 
L 337.569753 166.575511 
L 339.003107 164.301275 
L 339.719783 164.85883 
L 340.43646 163.611668 
L 341.153137 163.362236 
L 341.869813 165.284332 
L 342.58649 164.169223 
L 344.019843 163.729048 
L 344.73652 164.990882 
L 345.453197 163.142148 
L 346.169874 161.880314 
L 346.88655 169.539354 
L 347.603227 168.072105 
L 348.319904 168.072105 
L 349.03658 165.636472 
L 350.469934 167.558568 
L 351.18661 166.179354 
L 351.903287 165.401712 
L 352.619964 163.655686 
L 353.336641 165.049572 
L 354.053317 163.699703 
L 354.769994 163.97848 
L 355.486671 163.670358 
L 356.203347 164.21324 
L 356.920024 163.332891 
L 357.636701 163.817083 
L 358.353377 163.596996 
L 359.070054 161.366777 
L 359.786731 163.963808 
L 360.503408 167.92538 
L 361.220084 166.399441 
L 361.936761 164.536035 
L 362.653438 165.152279 
L 363.370114 165.313677 
L 364.086791 166.135336 
L 364.803468 166.091319 
L 365.520144 166.384769 
L 366.236821 164.33062 
L 366.953498 164.888175 
L 367.670175 163.963808 
L 368.386851 165.357694 
L 369.103528 163.288873 
L 369.820205 162.159092 
L 370.536881 163.97848 
L 371.253558 162.628611 
L 371.970235 162.584594 
L 372.686911 161.088 
L 373.403588 161.425467 
L 374.120265 168.233502 
L 374.836942 166.795598 
L 375.553618 166.428786 
L 376.986972 164.550707 
L 377.703648 163.8611 
L 378.420325 165.401712 
L 379.137002 164.257258 
L 379.853679 164.888175 
L 380.570355 163.963808 
L 381.287032 163.97848 
L 382.003709 163.582323 
L 382.720385 163.567651 
L 383.437062 162.452541 
L 384.153739 162.261799 
L 384.870415 162.276472 
L 385.587092 167.206428 
L 386.303769 169.128524 
L 387.020446 167.411843 
L 387.737122 168.072105 
L 388.453799 166.590183 
L 389.170476 166.634201 
L 389.887152 166.223371 
L 390.603829 167.015686 
L 391.320506 165.651144 
L 392.037182 163.8611 
L 392.753859 162.672629 
L 393.470536 164.418655 
L 394.187213 164.653415 
L 394.903889 161.645555 
L 395.620566 163.699703 
L 396.337243 162.437869 
L 397.053919 161.513502 
L 398.487273 161.469485 
L 398.487273 161.469485 
" clip-path="url(#p0a9eae63d5)" style="fill: none; stroke: #008000; stroke-width: 1.5; stroke-linecap: square"/>
   </g>
   <g id="patch_13">
    <path d="M 57.6 189.312 
L 57.6 159.744 
" style="fill: none; stroke: #000000; stroke-width: 0.8; stroke-linejoin: miter; stroke-linecap: square"/>
   </g>
   <g id="patch_14">
    <path d="M 414.72 189.312 
L 414.72 159.744 
" style="fill: none; stroke: #000000; stroke-width: 0.8; stroke-linejoin: miter; stroke-linecap: square"/>
   </g>
   <g id="patch_15">
    <path d="M 57.6 189.312 
L 414.72 189.312 
" style="fill: none; stroke: #000000; stroke-width: 0.8; stroke-linejoin: miter; stroke-linecap: square"/>
   </g>
   <g id="patch_16">
    <path d="M 57.6 159.744 
L 414.72 159.744 
" style="fill: none; stroke: #000000; stroke-width: 0.8; stroke-linejoin: miter; stroke-linecap: square"/>
   </g>
   <g id="text_24">
    <!-- psnr -->
    <g transform="translate(222.95625 153.744)scale(0.12 -0.12)">
     <defs>
      <path id="DejaVuSans-70" d="M 1159 525 
L 1159 -1331 
L 581 -1331 
L 581 3500 
L 1159 3500 
L 1159 2969 
Q 1341 3281 1617 3432 
Q 1894 3584 2278 3584 
Q 2916 3584 3314 3078 
Q 3713 2572 3713 1747 
Q 3713 922 3314 415 
Q 2916 -91 2278 -91 
Q 1894 -91 1617 61 
Q 1341 213 1159 525 
z
M 3116 1747 
Q 3116 2381 2855 2742 
Q 2594 3103 2138 3103 
Q 1681 3103 1420 2742 
Q 1159 2381 1159 1747 
Q 1159 1113 1420 752 
Q 1681 391 2138 391 
Q 2594 391 2855 752 
Q 3116 1113 3116 1747 
z
" transform="scale(0.015625)"/>
      <path id="DejaVuSans-6e" d="M 3513 2113 
L 3513 0 
L 2938 0 
L 2938 2094 
Q 2938 2591 2744 2837 
Q 2550 3084 2163 3084 
Q 1697 3084 1428 2787 
Q 1159 2491 1159 1978 
L 1159 0 
L 581 0 
L 581 3500 
L 1159 3500 
L 1159 2956 
Q 1366 3272 1645 3428 
Q 1925 3584 2291 3584 
Q 2894 3584 3203 3211 
Q 3513 2838 3513 2113 
z
" transform="scale(0.015625)"/>
      <path id="DejaVuSans-72" d="M 2631 2963 
Q 2534 3019 2420 3045 
Q 2306 3072 2169 3072 
Q 1681 3072 1420 2755 
Q 1159 2438 1159 1844 
L 1159 0 
L 581 0 
L 581 3500 
L 1159 3500 
L 1159 2956 
Q 1341 3275 1631 3429 
Q 1922 3584 2338 3584 
Q 2397 3584 2469 3576 
Q 2541 3569 2628 3553 
L 2631 2963 
z
" transform="scale(0.015625)"/>
     </defs>
     <use xlink:href="#DejaVuSans-70"/>
     <use xlink:href="#DejaVuSans-73" x="63.476562"/>
     <use xlink:href="#DejaVuSans-6e" x="115.576172"/>
     <use xlink:href="#DejaVuSans-72" x="178.955078"/>
    </g>
   </g>
  </g>
  <g id="axes_4">
   <g id="patch_17">
    <path d="M 57.6 248.448 
L 414.72 248.448 
L 414.72 218.88 
L 57.6 218.88 
z
" style="fill: #ffffff"/>
   </g>
   <g id="matplotlib.axis_7">
    <g id="xtick_16">
     <g id="line2d_25">
      <g>
       <use xlink:href="#mb1e99ba1a0" x="104.649825" y="248.448" style="stroke: #000000; stroke-width: 0.8"/>
      </g>
     </g>
     <g id="text_25">
      <!-- 100000 -->
      <g transform="translate(85.562325 263.046437)scale(0.1 -0.1)">
       <use xlink:href="#DejaVuSans-31"/>
       <use xlink:href="#DejaVuSans-30" x="63.623047"/>
       <use xlink:href="#DejaVuSans-30" x="127.246094"/>
       <use xlink:href="#DejaVuSans-30" x="190.869141"/>
       <use xlink:href="#DejaVuSans-30" x="254.492188"/>
       <use xlink:href="#DejaVuSans-30" x="318.115234"/>
      </g>
     </g>
    </g>
    <g id="xtick_17">
     <g id="line2d_26">
      <g>
       <use xlink:href="#mb1e99ba1a0" x="176.317495" y="248.448" style="stroke: #000000; stroke-width: 0.8"/>
      </g>
     </g>
     <g id="text_26">
      <!-- 200000 -->
      <g transform="translate(157.229995 263.046437)scale(0.1 -0.1)">
       <use xlink:href="#DejaVuSans-32"/>
       <use xlink:href="#DejaVuSans-30" x="63.623047"/>
       <use xlink:href="#DejaVuSans-30" x="127.246094"/>
       <use xlink:href="#DejaVuSans-30" x="190.869141"/>
       <use xlink:href="#DejaVuSans-30" x="254.492188"/>
       <use xlink:href="#DejaVuSans-30" x="318.115234"/>
      </g>
     </g>
    </g>
    <g id="xtick_18">
     <g id="line2d_27">
      <g>
       <use xlink:href="#mb1e99ba1a0" x="247.985166" y="248.448" style="stroke: #000000; stroke-width: 0.8"/>
      </g>
     </g>
     <g id="text_27">
      <!-- 300000 -->
      <g transform="translate(228.897666 263.046437)scale(0.1 -0.1)">
       <use xlink:href="#DejaVuSans-33"/>
       <use xlink:href="#DejaVuSans-30" x="63.623047"/>
       <use xlink:href="#DejaVuSans-30" x="127.246094"/>
       <use xlink:href="#DejaVuSans-30" x="190.869141"/>
       <use xlink:href="#DejaVuSans-30" x="254.492188"/>
       <use xlink:href="#DejaVuSans-30" x="318.115234"/>
      </g>
     </g>
    </g>
    <g id="xtick_19">
     <g id="line2d_28">
      <g>
       <use xlink:href="#mb1e99ba1a0" x="319.652836" y="248.448" style="stroke: #000000; stroke-width: 0.8"/>
      </g>
     </g>
     <g id="text_28">
      <!-- 400000 -->
      <g transform="translate(300.565336 263.046437)scale(0.1 -0.1)">
       <use xlink:href="#DejaVuSans-34"/>
       <use xlink:href="#DejaVuSans-30" x="63.623047"/>
       <use xlink:href="#DejaVuSans-30" x="127.246094"/>
       <use xlink:href="#DejaVuSans-30" x="190.869141"/>
       <use xlink:href="#DejaVuSans-30" x="254.492188"/>
       <use xlink:href="#DejaVuSans-30" x="318.115234"/>
      </g>
     </g>
    </g>
    <g id="xtick_20">
     <g id="line2d_29">
      <g>
       <use xlink:href="#mb1e99ba1a0" x="391.320506" y="248.448" style="stroke: #000000; stroke-width: 0.8"/>
      </g>
     </g>
     <g id="text_29">
      <!-- 500000 -->
      <g transform="translate(372.233006 263.046437)scale(0.1 -0.1)">
       <use xlink:href="#DejaVuSans-35"/>
       <use xlink:href="#DejaVuSans-30" x="63.623047"/>
       <use xlink:href="#DejaVuSans-30" x="127.246094"/>
       <use xlink:href="#DejaVuSans-30" x="190.869141"/>
       <use xlink:href="#DejaVuSans-30" x="254.492188"/>
       <use xlink:href="#DejaVuSans-30" x="318.115234"/>
      </g>
     </g>
    </g>
   </g>
   <g id="matplotlib.axis_8">
    <g id="ytick_7">
     <g id="line2d_30">
      <g>
       <use xlink:href="#mc87374b8f4" x="57.6" y="245.369806" style="stroke: #000000; stroke-width: 0.8"/>
      </g>
     </g>
     <g id="text_30">
      <!-- 0.925 -->
      <g transform="translate(21.971875 249.169025)scale(0.1 -0.1)">
       <defs>
        <path id="DejaVuSans-2e" d="M 684 794 
L 1344 794 
L 1344 0 
L 684 0 
L 684 794 
z
" transform="scale(0.015625)"/>
        <path id="DejaVuSans-39" d="M 703 97 
L 703 672 
Q 941 559 1184 500 
Q 1428 441 1663 441 
Q 2288 441 2617 861 
Q 2947 1281 2994 2138 
Q 2813 1869 2534 1725 
Q 2256 1581 1919 1581 
Q 1219 1581 811 2004 
Q 403 2428 403 3163 
Q 403 3881 828 4315 
Q 1253 4750 1959 4750 
Q 2769 4750 3195 4129 
Q 3622 3509 3622 2328 
Q 3622 1225 3098 567 
Q 2575 -91 1691 -91 
Q 1453 -91 1209 -44 
Q 966 3 703 97 
z
M 1959 2075 
Q 2384 2075 2632 2365 
Q 2881 2656 2881 3163 
Q 2881 3666 2632 3958 
Q 2384 4250 1959 4250 
Q 1534 4250 1286 3958 
Q 1038 3666 1038 3163 
Q 1038 2656 1286 2365 
Q 1534 2075 1959 2075 
z
" transform="scale(0.015625)"/>
       </defs>
       <use xlink:href="#DejaVuSans-30"/>
       <use xlink:href="#DejaVuSans-2e" x="63.623047"/>
       <use xlink:href="#DejaVuSans-39" x="95.410156"/>
       <use xlink:href="#DejaVuSans-32" x="159.033203"/>
       <use xlink:href="#DejaVuSans-35" x="222.65625"/>
      </g>
     </g>
    </g>
    <g id="ytick_8">
     <g id="line2d_31">
      <g>
       <use xlink:href="#mc87374b8f4" x="57.6" y="223.692387" style="stroke: #000000; stroke-width: 0.8"/>
      </g>
     </g>
     <g id="text_31">
      <!-- 0.950 -->
      <g transform="translate(21.971875 227.491606)scale(0.1 -0.1)">
       <use xlink:href="#DejaVuSans-30"/>
       <use xlink:href="#DejaVuSans-2e" x="63.623047"/>
       <use xlink:href="#DejaVuSans-39" x="95.410156"/>
       <use xlink:href="#DejaVuSans-35" x="159.033203"/>
       <use xlink:href="#DejaVuSans-30" x="222.65625"/>
      </g>
     </g>
    </g>
   </g>
   <g id="line2d_32">
    <path d="M 73.832727 241.901419 
L 74.549404 239.300129 
L 75.266081 241.034323 
L 75.982757 247.104 
L 76.699434 240.167226 
L 77.416111 235.831742 
L 78.132787 234.964645 
L 78.849464 236.698839 
L 79.566141 241.901419 
L 80.282818 233.230452 
L 80.999494 233.230452 
L 81.716171 234.964645 
L 82.432848 234.964645 
L 83.149524 235.831742 
L 83.866201 238.433032 
L 84.582878 230.629161 
L 85.299554 232.363355 
L 86.016231 230.629161 
L 86.732908 232.363355 
L 87.449585 231.496258 
L 88.166261 235.831742 
L 88.882938 236.698839 
L 89.599615 240.167226 
L 90.316291 235.831742 
L 91.032968 234.964645 
L 91.749645 233.230452 
L 92.466321 233.230452 
L 93.182998 235.831742 
L 93.899675 231.496258 
L 96.049705 234.097548 
L 96.766382 228.894968 
L 97.483058 232.363355 
L 98.199735 230.629161 
L 98.916412 230.629161 
L 99.633089 228.027871 
L 100.349765 228.894968 
L 101.066442 227.160774 
L 101.783119 236.698839 
L 102.499795 236.698839 
L 103.216472 233.230452 
L 103.933149 236.698839 
L 104.649825 233.230452 
L 105.366502 231.496258 
L 106.083179 228.894968 
L 106.799856 238.433032 
L 107.516532 232.363355 
L 108.233209 232.363355 
L 108.949886 230.629161 
L 109.666562 229.762065 
L 110.383239 232.363355 
L 111.099916 230.629161 
L 112.533269 230.629161 
L 113.249946 234.964645 
L 113.966623 228.027871 
L 114.683299 228.894968 
L 115.399976 231.496258 
L 116.833329 233.230452 
L 117.550006 236.698839 
L 118.266683 235.831742 
L 118.983359 230.629161 
L 119.700036 231.496258 
L 120.416713 234.097548 
L 121.13339 228.894968 
L 124.000096 228.894968 
L 124.716773 228.027871 
L 125.43345 229.762065 
L 126.150126 228.894968 
L 126.866803 226.293677 
L 127.58348 227.160774 
L 128.300157 229.762065 
L 129.016833 234.097548 
L 129.73351 233.230452 
L 130.450187 237.565935 
L 131.166863 232.363355 
L 131.88354 234.964645 
L 132.600217 230.629161 
L 133.316893 233.230452 
L 134.03357 230.629161 
L 134.750247 230.629161 
L 135.466924 234.097548 
L 136.1836 229.762065 
L 136.900277 228.027871 
L 137.616954 229.762065 
L 138.33363 227.160774 
L 139.050307 228.894968 
L 140.48366 227.160774 
L 141.200337 227.160774 
L 141.917014 223.692387 
L 142.633691 228.027871 
L 143.350367 227.160774 
L 144.067044 232.363355 
L 144.783721 230.629161 
L 145.500397 230.629161 
L 146.217074 229.762065 
L 146.933751 230.629161 
L 147.650427 229.762065 
L 149.083781 231.496258 
L 149.800458 226.293677 
L 150.517134 229.762065 
L 151.233811 230.629161 
L 151.950488 227.160774 
L 152.667164 226.293677 
L 153.383841 224.559484 
L 154.100518 231.496258 
L 154.817194 228.027871 
L 155.533871 228.894968 
L 156.250548 235.831742 
L 156.967225 232.363355 
L 157.683901 230.629161 
L 158.400578 234.097548 
L 159.117255 232.363355 
L 159.833931 232.363355 
L 160.550608 228.894968 
L 161.267285 228.894968 
L 161.983961 227.160774 
L 163.417315 225.426581 
L 164.133992 229.762065 
L 164.850668 228.027871 
L 165.567345 227.160774 
L 166.284022 227.160774 
L 167.000698 228.027871 
L 167.717375 234.964645 
L 168.434052 226.293677 
L 169.150728 225.426581 
L 169.867405 227.160774 
L 170.584082 233.230452 
L 171.300759 232.363355 
L 172.017435 230.629161 
L 172.734112 232.363355 
L 173.450789 228.027871 
L 174.167465 228.027871 
L 174.884142 228.894968 
L 175.600819 231.496258 
L 176.317495 228.894968 
L 177.034172 228.027871 
L 177.750849 229.762065 
L 178.467526 224.559484 
L 179.184202 228.894968 
L 179.900879 234.964645 
L 180.617556 224.559484 
L 181.334232 225.426581 
L 182.050909 225.426581 
L 182.767586 224.559484 
L 183.484262 230.629161 
L 184.200939 227.160774 
L 184.917616 229.762065 
L 185.634293 230.629161 
L 186.350969 227.160774 
L 187.067646 226.293677 
L 187.784323 231.496258 
L 188.500999 228.894968 
L 189.217676 228.027871 
L 189.934353 224.559484 
L 190.65103 229.762065 
L 191.367706 227.160774 
L 192.084383 228.027871 
L 192.80106 226.293677 
L 193.517736 227.160774 
L 194.234413 228.894968 
L 194.95109 228.027871 
L 196.384443 224.559484 
L 197.10112 229.762065 
L 197.817797 229.762065 
L 198.534473 228.894968 
L 199.25115 228.894968 
L 199.967827 227.160774 
L 201.40118 230.629161 
L 202.117857 228.894968 
L 202.834533 225.426581 
L 204.267887 227.160774 
L 204.984564 227.160774 
L 205.70124 226.293677 
L 206.417917 226.293677 
L 207.134594 224.559484 
L 209.284624 224.559484 
L 210.0013 223.692387 
L 210.717977 230.629161 
L 211.434654 228.027871 
L 212.151331 229.762065 
L 212.868007 230.629161 
L 213.584684 235.831742 
L 214.301361 228.027871 
L 215.018037 225.426581 
L 215.734714 228.894968 
L 216.451391 230.629161 
L 217.168067 226.293677 
L 217.884744 226.293677 
L 218.601421 224.559484 
L 219.318098 223.692387 
L 220.034774 226.293677 
L 221.468128 222.82529 
L 222.184804 224.559484 
L 222.901481 227.160774 
L 223.618158 222.82529 
L 224.334834 228.894968 
L 225.051511 237.565935 
L 225.768188 228.894968 
L 226.484865 230.629161 
L 227.201541 229.762065 
L 227.918218 225.426581 
L 228.634895 224.559484 
L 229.351571 236.698839 
L 230.068248 225.426581 
L 230.784925 225.426581 
L 231.501601 226.293677 
L 232.218278 226.293677 
L 232.934955 224.559484 
L 233.651632 223.692387 
L 234.368308 224.559484 
L 235.084985 223.692387 
L 235.801662 226.293677 
L 236.518338 224.559484 
L 237.235015 225.426581 
L 237.951692 228.894968 
L 238.668368 234.964645 
L 239.385045 229.762065 
L 240.101722 226.293677 
L 240.818399 228.894968 
L 241.535075 228.894968 
L 242.251752 225.426581 
L 242.968429 225.426581 
L 243.685105 224.559484 
L 244.401782 222.82529 
L 245.118459 225.426581 
L 245.835135 222.82529 
L 246.551812 224.559484 
L 247.268489 224.559484 
L 247.985166 223.692387 
L 248.701842 221.091097 
L 249.418519 224.559484 
L 250.135196 222.82529 
L 250.851872 222.82529 
L 251.568549 234.097548 
L 252.285226 231.496258 
L 253.001902 227.160774 
L 253.718579 231.496258 
L 254.435256 228.894968 
L 255.151933 224.559484 
L 255.868609 225.426581 
L 256.585286 228.027871 
L 257.301963 223.692387 
L 258.018639 227.160774 
L 258.735316 224.559484 
L 259.451993 223.692387 
L 260.168669 223.692387 
L 260.885346 229.762065 
L 261.602023 225.426581 
L 262.3187 224.559484 
L 263.035376 227.160774 
L 263.752053 222.82529 
L 264.46873 224.559484 
L 265.185406 227.160774 
L 265.902083 227.160774 
L 266.61876 226.293677 
L 267.335436 229.762065 
L 268.052113 228.027871 
L 268.76879 225.426581 
L 269.485467 226.293677 
L 270.202143 228.894968 
L 270.91882 225.426581 
L 271.635497 226.293677 
L 272.352173 226.293677 
L 273.06885 225.426581 
L 273.785527 226.293677 
L 274.502203 225.426581 
L 275.21888 222.82529 
L 275.935557 221.958194 
L 276.652234 225.426581 
L 278.085587 221.958194 
L 279.51894 227.160774 
L 280.235617 230.629161 
L 280.952294 225.426581 
L 281.66897 226.293677 
L 282.385647 226.293677 
L 283.102324 223.692387 
L 283.819001 226.293677 
L 284.535677 224.559484 
L 285.252354 226.293677 
L 285.969031 225.426581 
L 286.685707 225.426581 
L 287.402384 226.293677 
L 288.119061 223.692387 
L 288.835738 224.559484 
L 289.552414 227.160774 
L 290.269091 224.559484 
L 290.985768 222.82529 
L 291.702444 223.692387 
L 292.419121 228.027871 
L 293.135798 229.762065 
L 293.852474 227.160774 
L 294.569151 226.293677 
L 295.285828 228.027871 
L 296.002505 224.559484 
L 297.435858 226.293677 
L 298.152535 226.293677 
L 298.869211 223.692387 
L 299.585888 224.559484 
L 300.302565 222.82529 
L 301.019241 223.692387 
L 301.735918 222.82529 
L 302.452595 222.82529 
L 303.169272 221.091097 
L 303.885948 222.82529 
L 304.602625 221.958194 
L 305.319302 222.82529 
L 306.035978 227.160774 
L 306.752655 224.559484 
L 307.469332 225.426581 
L 308.186008 227.160774 
L 308.902685 223.692387 
L 309.619362 223.692387 
L 310.336039 225.426581 
L 311.052715 225.426581 
L 311.769392 223.692387 
L 312.486069 224.559484 
L 314.636099 221.958194 
L 315.352775 222.82529 
L 316.069452 221.091097 
L 316.786129 224.559484 
L 317.502806 221.091097 
L 318.219482 221.091097 
L 318.936159 221.958194 
L 319.652836 231.496258 
L 320.369512 225.426581 
L 321.086189 228.894968 
L 322.519542 225.426581 
L 323.236219 225.426581 
L 323.952896 224.559484 
L 324.669573 222.82529 
L 325.386249 221.958194 
L 326.102926 225.426581 
L 326.819603 223.692387 
L 327.536279 222.82529 
L 328.252956 222.82529 
L 328.969633 225.426581 
L 329.686309 221.958194 
L 330.402986 221.958194 
L 331.119663 222.82529 
L 332.553016 221.091097 
L 333.98637 224.559484 
L 334.703046 225.426581 
L 335.419723 222.82529 
L 336.1364 227.160774 
L 336.853076 224.559484 
L 337.569753 224.559484 
L 338.28643 222.82529 
L 339.003107 222.82529 
L 339.719783 224.559484 
L 340.43646 222.82529 
L 341.153137 221.958194 
L 341.869813 222.82529 
L 342.58649 222.82529 
L 343.303167 225.426581 
L 344.019843 222.82529 
L 344.73652 222.82529 
L 345.453197 221.958194 
L 346.169874 220.224 
L 346.88655 226.293677 
L 347.603227 236.698839 
L 348.319904 225.426581 
L 349.03658 223.692387 
L 349.753257 223.692387 
L 350.469934 225.426581 
L 351.18661 223.692387 
L 352.619964 221.958194 
L 353.336641 222.82529 
L 354.053317 225.426581 
L 354.769994 221.958194 
L 355.486671 222.82529 
L 356.920024 222.82529 
L 357.636701 221.958194 
L 358.353377 223.692387 
L 359.070054 220.224 
L 360.503408 227.160774 
L 361.220084 223.692387 
L 361.936761 221.958194 
L 362.653438 229.762065 
L 363.370114 230.629161 
L 364.086791 226.293677 
L 364.803468 223.692387 
L 365.520144 224.559484 
L 366.236821 222.82529 
L 367.670175 222.82529 
L 368.386851 224.559484 
L 369.103528 221.958194 
L 369.820205 221.958194 
L 370.536881 223.692387 
L 371.253558 222.82529 
L 371.970235 221.091097 
L 372.686911 220.224 
L 373.403588 223.692387 
L 374.120265 228.027871 
L 374.836942 226.293677 
L 375.553618 225.426581 
L 376.270295 222.82529 
L 376.986972 221.958194 
L 377.703648 221.958194 
L 378.420325 226.293677 
L 379.137002 223.692387 
L 379.853679 222.82529 
L 380.570355 225.426581 
L 381.287032 224.559484 
L 382.003709 221.091097 
L 382.720385 222.82529 
L 383.437062 221.958194 
L 384.153739 223.692387 
L 384.870415 221.091097 
L 385.587092 224.559484 
L 386.303769 227.160774 
L 387.020446 227.160774 
L 387.737122 224.559484 
L 388.453799 223.692387 
L 389.170476 226.293677 
L 389.887152 225.426581 
L 390.603829 225.426581 
L 392.037182 221.958194 
L 392.753859 221.091097 
L 393.470536 222.82529 
L 395.620566 222.82529 
L 396.337243 220.224 
L 397.053919 220.224 
L 397.770596 221.091097 
L 398.487273 221.091097 
L 398.487273 221.091097 
" clip-path="url(#p77ca9bb136)" style="fill: none; stroke: #ff0000; stroke-width: 1.5; stroke-linecap: square"/>
   </g>
   <g id="patch_18">
    <path d="M 57.6 248.448 
L 57.6 218.88 
" style="fill: none; stroke: #000000; stroke-width: 0.8; stroke-linejoin: miter; stroke-linecap: square"/>
   </g>
   <g id="patch_19">
    <path d="M 414.72 248.448 
L 414.72 218.88 
" style="fill: none; stroke: #000000; stroke-width: 0.8; stroke-linejoin: miter; stroke-linecap: square"/>
   </g>
   <g id="patch_20">
    <path d="M 57.6 248.448 
L 414.72 248.448 
" style="fill: none; stroke: #000000; stroke-width: 0.8; stroke-linejoin: miter; stroke-linecap: square"/>
   </g>
   <g id="patch_21">
    <path d="M 57.6 218.88 
L 414.72 218.88 
" style="fill: none; stroke: #000000; stroke-width: 0.8; stroke-linejoin: miter; stroke-linecap: square"/>
   </g>
   <g id="text_32">
    <!-- ssim -->
    <g transform="translate(222.3975 212.88)scale(0.12 -0.12)">
     <defs>
      <path id="DejaVuSans-69" d="M 603 3500 
L 1178 3500 
L 1178 0 
L 603 0 
L 603 3500 
z
M 603 4863 
L 1178 4863 
L 1178 4134 
L 603 4134 
L 603 4863 
z
" transform="scale(0.015625)"/>
     </defs>
     <use xlink:href="#DejaVuSans-73"/>
     <use xlink:href="#DejaVuSans-73" x="52.099609"/>
     <use xlink:href="#DejaVuSans-69" x="104.199219"/>
     <use xlink:href="#DejaVuSans-6d" x="131.982422"/>
    </g>
   </g>
  </g>
  <g id="axes_5">
   <g id="patch_22">
    <path d="M 57.6 307.584 
L 414.72 307.584 
L 414.72 278.016 
L 57.6 278.016 
z
" style="fill: #ffffff"/>
   </g>
   <g id="matplotlib.axis_9">
    <g id="xtick_21">
     <g id="line2d_33">
      <g>
       <use xlink:href="#mb1e99ba1a0" x="104.649825" y="307.584" style="stroke: #000000; stroke-width: 0.8"/>
      </g>
     </g>
     <g id="text_33">
      <!-- 100000 -->
      <g transform="translate(85.562325 322.182437)scale(0.1 -0.1)">
       <use xlink:href="#DejaVuSans-31"/>
       <use xlink:href="#DejaVuSans-30" x="63.623047"/>
       <use xlink:href="#DejaVuSans-30" x="127.246094"/>
       <use xlink:href="#DejaVuSans-30" x="190.869141"/>
       <use xlink:href="#DejaVuSans-30" x="254.492188"/>
       <use xlink:href="#DejaVuSans-30" x="318.115234"/>
      </g>
     </g>
    </g>
    <g id="xtick_22">
     <g id="line2d_34">
      <g>
       <use xlink:href="#mb1e99ba1a0" x="176.317495" y="307.584" style="stroke: #000000; stroke-width: 0.8"/>
      </g>
     </g>
     <g id="text_34">
      <!-- 200000 -->
      <g transform="translate(157.229995 322.182437)scale(0.1 -0.1)">
       <use xlink:href="#DejaVuSans-32"/>
       <use xlink:href="#DejaVuSans-30" x="63.623047"/>
       <use xlink:href="#DejaVuSans-30" x="127.246094"/>
       <use xlink:href="#DejaVuSans-30" x="190.869141"/>
       <use xlink:href="#DejaVuSans-30" x="254.492188"/>
       <use xlink:href="#DejaVuSans-30" x="318.115234"/>
      </g>
     </g>
    </g>
    <g id="xtick_23">
     <g id="line2d_35">
      <g>
       <use xlink:href="#mb1e99ba1a0" x="247.985166" y="307.584" style="stroke: #000000; stroke-width: 0.8"/>
      </g>
     </g>
     <g id="text_35">
      <!-- 300000 -->
      <g transform="translate(228.897666 322.182437)scale(0.1 -0.1)">
       <use xlink:href="#DejaVuSans-33"/>
       <use xlink:href="#DejaVuSans-30" x="63.623047"/>
       <use xlink:href="#DejaVuSans-30" x="127.246094"/>
       <use xlink:href="#DejaVuSans-30" x="190.869141"/>
       <use xlink:href="#DejaVuSans-30" x="254.492188"/>
       <use xlink:href="#DejaVuSans-30" x="318.115234"/>
      </g>
     </g>
    </g>
    <g id="xtick_24">
     <g id="line2d_36">
      <g>
       <use xlink:href="#mb1e99ba1a0" x="319.652836" y="307.584" style="stroke: #000000; stroke-width: 0.8"/>
      </g>
     </g>
     <g id="text_36">
      <!-- 400000 -->
      <g transform="translate(300.565336 322.182437)scale(0.1 -0.1)">
       <use xlink:href="#DejaVuSans-34"/>
       <use xlink:href="#DejaVuSans-30" x="63.623047"/>
       <use xlink:href="#DejaVuSans-30" x="127.246094"/>
       <use xlink:href="#DejaVuSans-30" x="190.869141"/>
       <use xlink:href="#DejaVuSans-30" x="254.492188"/>
       <use xlink:href="#DejaVuSans-30" x="318.115234"/>
      </g>
     </g>
    </g>
    <g id="xtick_25">
     <g id="line2d_37">
      <g>
       <use xlink:href="#mb1e99ba1a0" x="391.320506" y="307.584" style="stroke: #000000; stroke-width: 0.8"/>
      </g>
     </g>
     <g id="text_37">
      <!-- 500000 -->
      <g transform="translate(372.233006 322.182437)scale(0.1 -0.1)">
       <use xlink:href="#DejaVuSans-35"/>
       <use xlink:href="#DejaVuSans-30" x="63.623047"/>
       <use xlink:href="#DejaVuSans-30" x="127.246094"/>
       <use xlink:href="#DejaVuSans-30" x="190.869141"/>
       <use xlink:href="#DejaVuSans-30" x="254.492188"/>
       <use xlink:href="#DejaVuSans-30" x="318.115234"/>
      </g>
     </g>
    </g>
   </g>
   <g id="matplotlib.axis_10">
    <g id="ytick_9">
     <g id="line2d_38">
      <g>
       <use xlink:href="#mc87374b8f4" x="57.6" y="304.451012" style="stroke: #000000; stroke-width: 0.8"/>
      </g>
     </g>
     <g id="text_38">
      <!-- 4 -->
      <g transform="translate(44.2375 308.250231)scale(0.1 -0.1)">
       <use xlink:href="#DejaVuSans-34"/>
      </g>
     </g>
    </g>
    <g id="ytick_10">
     <g id="line2d_39">
      <g>
       <use xlink:href="#mc87374b8f4" x="57.6" y="286.380424" style="stroke: #000000; stroke-width: 0.8"/>
      </g>
     </g>
     <g id="text_39">
      <!-- 6 -->
      <g transform="translate(44.2375 290.179642)scale(0.1 -0.1)">
       <defs>
        <path id="DejaVuSans-36" d="M 2113 2584 
Q 1688 2584 1439 2293 
Q 1191 2003 1191 1497 
Q 1191 994 1439 701 
Q 1688 409 2113 409 
Q 2538 409 2786 701 
Q 3034 994 3034 1497 
Q 3034 2003 2786 2293 
Q 2538 2584 2113 2584 
z
M 3366 4563 
L 3366 3988 
Q 3128 4100 2886 4159 
Q 2644 4219 2406 4219 
Q 1781 4219 1451 3797 
Q 1122 3375 1075 2522 
Q 1259 2794 1537 2939 
Q 1816 3084 2150 3084 
Q 2853 3084 3261 2657 
Q 3669 2231 3669 1497 
Q 3669 778 3244 343 
Q 2819 -91 2113 -91 
Q 1303 -91 875 529 
Q 447 1150 447 2328 
Q 447 3434 972 4092 
Q 1497 4750 2381 4750 
Q 2619 4750 2861 4703 
Q 3103 4656 3366 4563 
z
" transform="scale(0.015625)"/>
       </defs>
       <use xlink:href="#DejaVuSans-36"/>
      </g>
     </g>
    </g>
   </g>
   <g id="line2d_40">
    <path d="M 73.832727 280.950212 
L 74.549404 282.459106 
L 75.266081 279.36 
L 75.982757 285.531106 
L 76.699434 280.941176 
L 77.416111 282.576565 
L 78.132787 285.241976 
L 78.849464 286.624376 
L 79.566141 283.651765 
L 80.282818 291.015529 
L 80.999494 287.527906 
L 81.716171 288.720565 
L 82.432848 289.425318 
L 83.149524 286.543059 
L 83.866201 287.356235 
L 84.582878 291.702212 
L 85.299554 289.976471 
L 86.016231 288.747671 
L 87.449585 293.265318 
L 88.166261 283.850541 
L 88.882938 282.169976 
L 89.599615 281.898918 
L 90.316291 285.522071 
L 91.032968 284.835388 
L 91.749645 286.272 
L 92.466321 288.684424 
L 93.182998 286.064188 
L 93.899675 289.235576 
L 94.616352 287.753788 
L 95.333028 288.783812 
L 96.049705 286.299106 
L 96.766382 293.952 
L 97.483058 290.699294 
L 98.199735 290.925176 
L 98.916412 294.503153 
L 99.633089 295.144659 
L 100.349765 292.822588 
L 101.066442 296.825224 
L 101.783119 285.133553 
L 102.499795 280.959247 
L 103.216472 290.536659 
L 104.649825 290.491482 
L 105.366502 288.756706 
L 106.083179 295.171765 
L 106.799856 284.501082 
L 107.516532 289.118118 
L 108.233209 290.157176 
L 109.666562 294.521224 
L 110.383239 292.217224 
L 111.099916 291.160094 
L 111.816592 294.936847 
L 112.533269 291.1872 
L 113.249946 290.898071 
L 113.966623 293.301459 
L 114.683299 292.840659 
L 115.399976 287.979671 
L 116.116653 291.404047 
L 116.833329 290.970353 
L 117.550006 287.735718 
L 118.266683 287.374306 
L 118.983359 291.078776 
L 119.700036 291.313694 
L 120.416713 289.687341 
L 121.13339 293.680941 
L 121.850066 293.717082 
L 122.566743 296.798118 
L 123.28342 296.427671 
L 124.000096 295.731953 
L 124.716773 297.267953 
L 125.43345 293.021365 
L 126.866803 297.042071 
L 127.58348 298.135341 
L 128.300157 297.810071 
L 129.016833 289.027765 
L 129.73351 291.729318 
L 130.450187 293.952 
L 131.166863 289.054871 
L 131.88354 289.262682 
L 132.600217 294.864565 
L 133.316893 289.506635 
L 134.750247 293.906824 
L 135.466924 291.404047 
L 136.1836 291.973271 
L 136.900277 293.057506 
L 137.616954 292.217224 
L 138.33363 298.957553 
L 139.050307 293.509271 
L 139.766984 298.198588 
L 141.200337 294.349553 
L 141.917014 300.032753 
L 142.633691 296.084329 
L 143.350367 298.523859 
L 144.067044 295.966871 
L 144.783721 295.659671 
L 145.500397 290.907106 
L 146.217074 293.762259 
L 146.933751 291.620894 
L 147.650427 293.6448 
L 148.367104 289.380141 
L 149.083781 292.190118 
L 149.800458 297.557082 
L 150.517134 297.060141 
L 151.233811 295.469929 
L 151.950488 297.195671 
L 152.667164 295.831341 
L 153.383841 299.382212 
L 154.100518 295.524141 
L 154.817194 298.063059 
L 155.533871 298.2528 
L 156.250548 285.991906 
L 156.967225 292.8768 
L 157.683901 293.301459 
L 158.400578 293.500235 
L 159.117255 294.214024 
L 159.833931 291.205271 
L 160.550608 292.849694 
L 161.267285 296.527059 
L 161.983961 295.876518 
L 162.700638 298.297976 
L 163.417315 295.849412 
L 164.133992 296.048188 
L 164.850668 297.728753 
L 165.567345 296.355388 
L 166.284022 296.689694 
L 167.000698 296.8704 
L 167.717375 294.710965 
L 168.434052 296.752941 
L 169.150728 297.240847 
L 169.867405 294.421835 
L 170.584082 292.822588 
L 171.300759 293.509271 
L 172.017435 295.271153 
L 172.734112 292.8768 
L 173.450789 293.997176 
L 174.884142 297.511906 
L 175.600819 292.199153 
L 176.317495 294.918776 
L 177.034172 296.283106 
L 177.750849 294.918776 
L 178.467526 297.909459 
L 179.184202 299.002729 
L 179.900879 298.352188 
L 181.334232 299.056941 
L 182.050909 298.460612 
L 182.767586 299.355106 
L 183.484262 292.045553 
L 184.200939 295.722918 
L 184.917616 291.132988 
L 185.634293 293.193035 
L 186.350969 297.466729 
L 187.067646 296.039153 
L 187.784323 295.280188 
L 188.500999 297.204706 
L 189.217676 297.078212 
L 189.934353 298.415435 
L 190.65103 296.048188 
L 191.367706 296.752941 
L 192.084383 298.433506 
L 192.80106 300.981459 
L 193.517736 298.243765 
L 194.234413 297.060141 
L 194.95109 297.475765 
L 195.667766 300.972424 
L 196.384443 298.903341 
L 197.10112 292.903906 
L 197.817797 295.677741 
L 198.534473 295.668706 
L 199.25115 296.771012 
L 199.967827 296.039153 
L 200.684503 296.472847 
L 201.40118 295.126588 
L 202.117857 294.683859 
L 202.834533 298.803953 
L 203.55121 298.469647 
L 204.267887 297.394447 
L 204.984564 299.309929 
L 205.70124 296.915576 
L 206.417917 297.981741 
L 207.134594 299.553882 
L 207.85127 300.385129 
L 208.567947 297.963671 
L 209.284624 300.385129 
L 210.0013 301.632 
L 210.717977 293.346635 
L 211.434654 299.129224 
L 212.151331 300.511624 
L 212.868007 294.042353 
L 213.584684 292.325647 
L 214.301361 298.297976 
L 215.018037 298.035953 
L 215.734714 298.623247 
L 216.451391 299.824941 
L 217.168067 296.734871 
L 218.601421 301.288659 
L 219.318098 301.812706 
L 220.034774 299.093082 
L 220.751451 298.822024 
L 221.468128 301.776565 
L 222.184804 299.915294 
L 222.901481 298.849129 
L 223.618158 302.571671 
L 225.051511 292.036518 
L 225.768188 289.949365 
L 226.484865 296.933647 
L 227.201541 299.102118 
L 227.918218 297.258918 
L 228.634895 298.614212 
L 229.351571 299.409318 
L 230.068248 299.364141 
L 230.784925 301.369976 
L 231.501601 298.532894 
L 232.218278 302.002447 
L 232.934955 300.547765 
L 233.651632 300.385129 
L 234.368308 298.153412 
L 235.084985 298.803953 
L 235.801662 298.695529 
L 236.518338 302.201224 
L 237.235015 302.544565 
L 237.951692 297.430588 
L 238.668368 297.782965 
L 239.385045 296.481882 
L 240.101722 301.731388 
L 240.818399 297.430588 
L 241.535075 297.909459 
L 242.251752 298.035953 
L 242.968429 296.599341 
L 243.685105 300.511624 
L 244.401782 301.4784 
L 245.118459 298.153412 
L 245.835135 301.162165 
L 246.551812 301.794635 
L 247.268489 300.791718 
L 247.985166 299.102118 
L 248.701842 301.180235 
L 249.418519 301.505506 
L 250.135196 301.577788 
L 250.851872 302.192188 
L 251.568549 297.539012 
L 252.285226 298.930447 
L 253.001902 298.56 
L 253.718579 299.653271 
L 254.435256 298.370259 
L 255.151933 300.5568 
L 255.868609 298.541929 
L 256.585286 298.921412 
L 257.301963 300.818824 
L 258.018639 299.653271 
L 258.735316 302.4 
L 259.451993 302.960188 
L 260.168669 299.933365 
L 260.885346 301.857882 
L 261.602023 299.093082 
L 262.3187 299.084047 
L 263.035376 299.382212 
L 263.752053 300.827859 
L 264.46873 300.376094 
L 265.185406 296.256 
L 265.902083 297.954635 
L 266.61876 298.026918 
L 267.335436 300.620047 
L 268.052113 298.993694 
L 268.76879 297.683576 
L 269.485467 299.698447 
L 270.202143 297.701647 
L 270.91882 299.373176 
L 271.635497 302.481318 
L 272.352173 301.080847 
L 273.06885 301.550682 
L 273.785527 299.427388 
L 274.502203 301.577788 
L 275.21888 302.499388 
L 275.935557 304.514259 
L 276.652234 304.767247 
L 277.36891 302.291576 
L 278.085587 303.231247 
L 278.802264 302.436141 
L 279.51894 296.4096 
L 280.235617 291.331765 
L 280.952294 298.849129 
L 281.66897 300.168282 
L 282.385647 298.740706 
L 283.102324 300.809788 
L 283.819001 300.665224 
L 284.535677 299.824941 
L 285.252354 301.830776 
L 285.969031 298.4064 
L 286.685707 302.101835 
L 287.402384 300.882071 
L 288.119061 301.884988 
L 288.835738 301.369976 
L 289.552414 301.776565 
L 290.269091 298.957553 
L 290.985768 302.896941 
L 291.702444 303.330635 
L 292.419121 297.367341 
L 293.135798 298.0992 
L 293.852474 299.364141 
L 294.569151 301.153129 
L 295.285828 299.364141 
L 296.002505 301.297694 
L 296.719181 299.246682 
L 297.435858 302.038588 
L 298.869211 299.590024 
L 299.585888 300.394165 
L 300.302565 303.402918 
L 301.019241 304.993129 
L 301.735918 303.673976 
L 302.452595 304.496188 
L 303.169272 302.363859 
L 303.885948 302.020518 
L 304.602625 302.490353 
L 305.319302 304.505224 
L 306.035978 296.400565 
L 306.752655 299.102118 
L 307.469332 300.484518 
L 308.186008 299.644235 
L 308.902685 298.442541 
L 309.619362 300.972424 
L 310.336039 299.571953 
L 311.052715 300.909176 
L 311.769392 300.114071 
L 312.486069 300.873035 
L 313.202745 302.409035 
L 313.919422 301.749459 
L 314.636099 303.005365 
L 315.352775 305.038306 
L 316.786129 302.662024 
L 317.502806 304.685929 
L 318.219482 303.122824 
L 318.936159 303.357741 
L 319.652836 297.105318 
L 320.369512 301.740424 
L 321.086189 299.038871 
L 321.802866 297.376376 
L 322.519542 300.620047 
L 323.236219 298.026918 
L 323.952896 301.604894 
L 324.669573 301.966306 
L 325.386249 303.936 
L 326.102926 301.279624 
L 326.819603 300.385129 
L 327.536279 301.912094 
L 328.252956 303.0144 
L 328.969633 301.514541 
L 329.686309 303.095718 
L 330.402986 303.791435 
L 331.119663 302.056659 
L 331.83634 304.234165 
L 332.553016 303.484235 
L 333.269693 304.694965 
L 333.98637 300.385129 
L 334.703046 300.809788 
L 336.1364 302.942118 
L 336.853076 300.105035 
L 337.569753 298.2528 
L 338.28643 299.291859 
L 339.719783 302.002447 
L 340.43646 302.083765 
L 341.153137 302.300612 
L 341.869813 302.869835 
L 342.58649 303.899859 
L 343.303167 303.430024 
L 344.019843 304.324518 
L 344.73652 302.354824 
L 345.453197 303.0144 
L 346.169874 304.080565 
L 346.88655 296.725835 
L 347.603227 301.559718 
L 348.319904 300.520659 
L 349.03658 300.041788 
L 349.753257 300.963388 
L 350.469934 302.481318 
L 351.18661 302.652988 
L 351.903287 302.237365 
L 352.619964 302.8608 
L 353.336641 300.385129 
L 354.053317 301.7856 
L 354.769994 302.842729 
L 355.486671 302.689129 
L 356.203347 301.894024 
L 356.920024 300.330918 
L 357.636701 303.339671 
L 358.353377 302.445176 
L 359.070054 304.207059 
L 359.786731 301.839812 
L 360.503408 298.912376 
L 361.220084 301.632 
L 361.936761 301.379012 
L 362.653438 301.866918 
L 363.370114 300.574871 
L 364.086791 299.752659 
L 364.803468 301.505506 
L 365.520144 301.767529 
L 366.236821 303.583624 
L 366.953498 301.586824 
L 367.670175 302.056659 
L 368.386851 303.701082 
L 369.103528 303.267388 
L 369.820205 304.225129 
L 370.536881 303.917929 
L 371.253558 304.559435 
L 371.970235 302.598776 
L 372.686911 303.339671 
L 373.403588 303.818541 
L 374.120265 301.234447 
L 374.836942 300.213459 
L 375.553618 302.779482 
L 376.270295 303.845647 
L 376.986972 302.625882 
L 377.703648 302.354824 
L 378.420325 298.659388 
L 379.137002 299.987576 
L 379.853679 302.634918 
L 380.570355 303.294494 
L 381.287032 302.463247 
L 382.003709 303.764329 
L 382.720385 303.899859 
L 383.437062 303.348706 
L 384.153739 305.264188 
L 384.870415 302.824659 
L 385.587092 297.647435 
L 386.303769 300.231529 
L 387.020446 296.481882 
L 388.453799 298.822024 
L 389.170476 300.475482 
L 389.887152 299.843012 
L 390.603829 300.430306 
L 391.320506 299.544847 
L 392.037182 301.749459 
L 392.753859 304.622682 
L 393.470536 302.436141 
L 394.187213 301.216376 
L 394.903889 304.378729 
L 395.620566 303.041506 
L 396.337243 303.592659 
L 397.053919 304.469082 
L 397.770596 302.842729 
L 398.487273 306.24 
L 398.487273 306.24 
" clip-path="url(#p1d1f602a86)" style="fill: none; stroke: #7fffd4; stroke-width: 1.5; stroke-linecap: square"/>
   </g>
   <g id="patch_23">
    <path d="M 57.6 307.584 
L 57.6 278.016 
" style="fill: none; stroke: #000000; stroke-width: 0.8; stroke-linejoin: miter; stroke-linecap: square"/>
   </g>
   <g id="patch_24">
    <path d="M 414.72 307.584 
L 414.72 278.016 
" style="fill: none; stroke: #000000; stroke-width: 0.8; stroke-linejoin: miter; stroke-linecap: square"/>
   </g>
   <g id="patch_25">
    <path d="M 57.6 307.584 
L 414.72 307.584 
" style="fill: none; stroke: #000000; stroke-width: 0.8; stroke-linejoin: miter; stroke-linecap: square"/>
   </g>
   <g id="patch_26">
    <path d="M 57.6 278.016 
L 414.72 278.016 
" style="fill: none; stroke: #000000; stroke-width: 0.8; stroke-linejoin: miter; stroke-linecap: square"/>
   </g>
   <g id="text_40">
    <!-- lpips -->
    <g transform="translate(222.0825 272.016)scale(0.12 -0.12)">
     <defs>
      <path id="DejaVuSans-6c" d="M 603 4863 
L 1178 4863 
L 1178 0 
L 603 0 
L 603 4863 
z
" transform="scale(0.015625)"/>
     </defs>
     <use xlink:href="#DejaVuSans-6c"/>
     <use xlink:href="#DejaVuSans-70" x="27.783203"/>
     <use xlink:href="#DejaVuSans-69" x="91.259766"/>
     <use xlink:href="#DejaVuSans-70" x="119.042969"/>
     <use xlink:href="#DejaVuSans-73" x="182.519531"/>
    </g>
   </g>
  </g>
 </g>
 <defs>
  <clipPath id="p58a8d52836">
   <rect x="57.6" y="41.472" width="357.12" height="29.568"/>
  </clipPath>
  <clipPath id="pf38d095412">
   <rect x="57.6" y="100.608" width="357.12" height="29.568"/>
  </clipPath>
  <clipPath id="p0a9eae63d5">
   <rect x="57.6" y="159.744" width="357.12" height="29.568"/>
  </clipPath>
  <clipPath id="p77ca9bb136">
   <rect x="57.6" y="218.88" width="357.12" height="29.568"/>
  </clipPath>
  <clipPath id="p1d1f602a86">
   <rect x="57.6" y="278.016" width="357.12" height="29.568"/>
  </clipPath>
 </defs>
</svg>
